<svg width="37" height="37" viewBox="0 0 37 37" fill="none" xmlns="http://www.w3.org/2000/svg">
<path d="M19.7316 3.23322V1.64147C19.7316 1.23979 19.572 0.85457 19.288 0.570544C19.004 0.286517 18.6188 0.126953 18.2171 0.126953C17.8154 0.126953 17.4302 0.286517 17.1462 0.570544C16.8621 0.85457 16.7026 1.23979 16.7026 1.64147V3.23322C13.6535 3.50657 10.7391 4.61628 8.28035 6.44008C5.82163 8.26388 3.91407 10.731 2.76782 13.5696C1.62158 16.4082 1.28114 19.5081 1.78401 22.5278C2.28688 25.5475 3.61355 28.3698 5.61786 30.6838C4.82632 31.0753 4.16488 31.6874 3.71318 32.4462C3.26149 33.205 3.03881 34.0783 3.07196 34.9607C3.07196 35.3624 3.23152 35.7476 3.51555 36.0317C3.79958 36.3157 4.1848 36.4753 4.58647 36.4753C4.98815 36.4753 5.37337 36.3157 5.65739 36.0317C5.94142 35.7476 6.10099 35.3624 6.10099 34.9607C6.0884 34.4939 6.25599 34.0402 6.569 33.6936C6.882 33.347 7.31641 33.1343 7.78209 33.0994C7.88627 33.0796 7.98788 33.0481 8.085 33.0055C10.9861 35.2556 14.5532 36.4768 18.2247 36.4768C21.8961 36.4768 25.4632 35.2556 28.3643 33.0055C28.453 33.0463 28.5453 33.0788 28.64 33.1024C29.1073 33.1343 29.5442 33.3454 29.8597 33.6916C30.1752 34.0378 30.3448 34.4925 30.3332 34.9607C30.3332 35.3624 30.4927 35.7476 30.7768 36.0317C31.0608 36.3157 31.446 36.4753 31.8477 36.4753C32.2494 36.4753 32.6346 36.3157 32.9186 36.0317C33.2026 35.7476 33.3622 35.3624 33.3622 34.9607C33.3954 34.0783 33.1727 33.205 32.721 32.4462C32.2693 31.6874 31.6078 31.0753 30.8163 30.6838C32.8206 28.3698 34.1473 25.5475 34.6502 22.5278C35.153 19.5081 34.8126 16.4082 33.6663 13.5696C32.5201 10.731 30.6125 8.26388 28.1538 6.44008C25.6951 4.61628 22.7807 3.50657 19.7316 3.23322V3.23322ZM4.58647 19.8156C4.58647 17.1197 5.38589 14.4844 6.88365 12.2429C8.3814 10.0013 10.5102 8.25424 13.0009 7.22257C15.4915 6.1909 18.2322 5.92097 20.8763 6.44691C23.5204 6.97285 25.9491 8.27104 27.8554 10.1773C29.7617 12.0836 31.0599 14.5123 31.5858 17.1564C32.1117 19.8005 31.8418 22.5412 30.8101 25.0318C29.7785 27.5225 28.0314 29.6513 25.7898 31.1491C23.5483 32.6468 20.913 33.4462 18.2171 33.4462C14.6034 33.4418 11.1389 32.0043 8.58366 29.449C6.02838 26.8938 4.59088 23.4293 4.58647 19.8156V19.8156Z" fill="#BB8E34"/>
<path d="M29.1446 0.127036C28.743 0.127036 28.3577 0.2866 28.0737 0.570627C27.7897 0.854653 27.6301 1.23988 27.6301 1.64155C27.6301 2.04322 27.7897 2.42844 28.0737 2.71247C28.3577 2.9965 28.743 3.15606 29.1446 3.15606C29.6728 3.11592 30.2035 3.18314 30.705 3.35368C31.2064 3.52422 31.6681 3.79454 32.0623 4.14834C32.4564 4.50215 32.7748 4.93211 32.9983 5.4123C33.2218 5.89249 33.3457 6.41297 33.3626 6.94234C33.3626 7.34402 33.5221 7.72924 33.8061 8.01326C34.0902 8.29729 34.4754 8.45686 34.8771 8.45686C35.2787 8.45686 35.664 8.29729 35.948 8.01326C36.232 7.72924 36.3916 7.34402 36.3916 6.94234C36.3722 6.01621 36.1683 5.10324 35.7919 4.25685C35.4154 3.41046 34.8739 2.64765 34.1991 2.01304C33.5243 1.37842 32.7297 0.884757 31.8619 0.56092C30.994 0.237083 30.0702 0.0895787 29.1446 0.127036V0.127036Z" fill="#BB8E34"/>
<path d="M3.07199 6.94234C3.08888 6.41297 3.21279 5.89249 3.43626 5.4123C3.65974 4.93211 3.97814 4.50215 4.37228 4.14834C4.76642 3.79454 5.22813 3.52422 5.72957 3.35368C6.23101 3.18314 6.76179 3.11592 7.28991 3.15606C7.69159 3.15606 8.07681 2.9965 8.36083 2.71247C8.64486 2.42844 8.80442 2.04322 8.80442 1.64155C8.80442 1.23988 8.64486 0.854653 8.36083 0.570627C8.07681 0.2866 7.69159 0.127036 7.28991 0.127036C6.36433 0.0895787 5.44058 0.237083 4.5727 0.56092C3.70481 0.884757 2.91022 1.37842 2.23542 2.01304C1.56061 2.64765 1.01914 3.41046 0.642687 4.25685C0.266231 5.10324 0.0623488 6.01621 0.0429688 6.94234C0.0429688 7.34402 0.202533 7.72924 0.486559 8.01326C0.770585 8.29729 1.15581 8.45686 1.55748 8.45686C1.95916 8.45686 2.34438 8.29729 2.6284 8.01326C2.91243 7.72924 3.07199 7.34402 3.07199 6.94234Z" fill="#BB8E34"/>
<path d="M19.7317 17.6742V10.7286C19.7317 10.3269 19.5721 9.94173 19.2881 9.6577C19.004 9.37368 18.6188 9.21411 18.2171 9.21411C17.8155 9.21411 17.4303 9.37368 17.1462 9.6577C16.8622 9.94173 16.7026 10.3269 16.7026 10.7286V18.3012C16.7027 18.7028 16.8623 19.088 17.1464 19.3719L21.6899 23.9155C21.9756 24.1914 22.3581 24.344 22.7552 24.3406C23.1523 24.3371 23.5322 24.1778 23.813 23.897C24.0938 23.6162 24.2531 23.2364 24.2565 22.8393C24.26 22.4422 24.1073 22.0596 23.8314 21.774L19.7317 17.6742Z" fill="#BB8E34"/>
</svg>
