<svg width="15" height="9" viewBox="0 0 15 9" fill="none" xmlns="http://www.w3.org/2000/svg">
<path d="M1.81258 0.959728C2.07778 0.959785 2.33209 1.06518 2.51958 1.25273L7.10558 5.83873C7.29571 6.02122 7.54904 6.12312 7.81258 6.12312C8.07612 6.12312 8.32945 6.02122 8.51958 5.83873L13.1056 1.25273C13.2942 1.07057 13.5468 0.969775 13.809 0.972054C14.0712 0.974332 14.322 1.0795 14.5074 1.26491C14.6928 1.45032 14.798 1.70113 14.8003 1.96333C14.8025 2.22552 14.7017 2.47813 14.5196 2.66673L9.93358 7.25273C9.36196 7.7982 8.6022 8.10254 7.81208 8.10254C7.02196 8.10254 6.2622 7.7982 5.69058 7.25273L1.10558 2.66673C0.96577 2.52688 0.870565 2.34871 0.831997 2.15476C0.79343 1.96081 0.813233 1.75977 0.888903 1.57707C0.964573 1.39437 1.09271 1.23821 1.25712 1.12833C1.42153 1.01844 1.61483 0.959771 1.81258 0.959728Z" fill="#666666"/>
</svg>
