<svg width="14" height="8" viewBox="0 0 14 8" fill="none" xmlns="http://www.w3.org/2000/svg">
<path d="M12.9999 7.98046C12.7347 7.9804 12.4804 7.87501 12.2929 7.68746L7.70692 3.10146C7.51679 2.91897 7.26346 2.81707 6.99992 2.81707C6.73638 2.81707 6.48305 2.91897 6.29292 3.10146L1.70692 7.68746C1.51832 7.86962 1.26571 7.97041 1.00352 7.96813C0.741321 7.96585 0.490509 7.86068 0.305101 7.67528C0.119692 7.48987 0.0145233 7.23906 0.0122448 6.97686C0.00996641 6.71466 0.110761 6.46206 0.292919 6.27346L4.87892 1.68746C5.45054 1.14198 6.2103 0.837646 7.00042 0.837646C7.79054 0.837646 8.5503 1.14198 9.12192 1.68746L13.7069 6.27346C13.8467 6.41331 13.9419 6.59147 13.9805 6.78543C14.0191 6.97938 13.9993 7.18041 13.9236 7.36311C13.8479 7.54581 13.7198 7.70198 13.5554 7.81186C13.391 7.92174 13.1977 7.98042 12.9999 7.98046Z" fill="#BB8E34"/>
</svg>
