<svg width="38" height="34" viewBox="0 0 38 34" fill="none" xmlns="http://www.w3.org/2000/svg">
<path d="M31.1809 15.646H29.6664V6.55889C29.6664 4.95219 29.0281 3.41131 27.892 2.2752C26.7559 1.1391 25.215 0.500839 23.6083 0.500839H6.94868C5.34198 0.500839 3.80109 1.1391 2.66499 2.2752C1.52888 3.41131 0.890625 4.95219 0.890625 6.55889L0.890625 23.2185C0.893875 24.1741 1.19891 25.1042 1.76218 25.876C2.32545 26.6479 3.11817 27.2221 4.02718 27.5167C3.95862 27.8466 3.92261 28.1824 3.91965 28.5193C3.91965 29.9252 4.47812 31.2735 5.47222 32.2675C6.46631 33.2616 7.81459 33.8201 9.22044 33.8201C10.6263 33.8201 11.9746 33.2616 12.9687 32.2675C13.9628 31.2735 14.5212 29.9252 14.5212 28.5193C14.5189 28.2657 14.4981 28.0127 14.4591 27.7621H23.6704C23.6314 28.0127 23.6107 28.2657 23.6083 28.5193C23.6083 29.9252 24.1668 31.2735 25.1609 32.2675C26.155 33.2616 27.5032 33.8201 28.9091 33.8201C30.315 33.8201 31.6632 33.2616 32.6573 32.2675C33.6514 31.2735 34.2099 29.9252 34.2099 28.5193C34.2069 28.1824 34.1709 27.8466 34.1024 27.5167C35.0114 27.2221 35.8041 26.6479 36.3674 25.876C36.9306 25.1042 37.2357 24.1741 37.2389 23.2185V21.704C37.2389 20.0973 36.6007 18.5564 35.4646 17.4203C34.3285 16.2842 32.7876 15.646 31.1809 15.646ZM3.91965 15.646V9.58791H6.94868V15.646H3.91965ZM9.9777 9.58791H13.0067V15.646H9.9777V9.58791ZM16.0358 9.58791H20.5793V24.733H16.0358V9.58791ZM23.6083 9.58791H26.6373V15.646H23.6083V9.58791ZM6.94868 3.52986H23.6083C24.4117 3.52986 25.1821 3.84899 25.7502 4.41705C26.3182 4.9851 26.6373 5.75554 26.6373 6.55889H3.91965C3.91965 5.75554 4.23878 4.9851 4.80683 4.41705C5.37488 3.84899 6.14533 3.52986 6.94868 3.52986ZM3.91965 18.675H13.0067V24.733H5.43416C5.03249 24.733 4.64727 24.5735 4.36324 24.2894C4.07921 24.0054 3.91965 23.6202 3.91965 23.2185V18.675ZM11.4922 28.5193C11.4922 29.1218 11.2529 29.6997 10.8268 30.1257C10.4008 30.5517 9.82295 30.7911 9.22044 30.7911C8.61793 30.7911 8.0401 30.5517 7.61406 30.1257C7.18802 29.6997 6.94868 29.1218 6.94868 28.5193C6.94934 28.2605 6.99706 28.0039 7.08952 27.7621H11.3514C11.4438 28.0039 11.4915 28.2605 11.4922 28.5193ZM28.9091 30.7911C28.3066 30.7911 27.7288 30.5517 27.3027 30.1257C26.8767 29.6997 26.6373 29.1218 26.6373 28.5193C26.638 28.2605 26.6857 28.0039 26.7782 27.7621H31.04C31.1325 28.0039 31.1802 28.2605 31.1809 28.5193C31.1809 29.1218 30.9415 29.6997 30.5155 30.1257C30.0894 30.5517 29.5116 30.7911 28.9091 30.7911ZM34.2099 23.2185C34.2099 23.6202 34.0503 24.0054 33.7663 24.2894C33.4823 24.5735 33.0971 24.733 32.6954 24.733H23.6083V18.675H31.1809C31.9842 18.675 32.7547 18.9941 33.3227 19.5622C33.8908 20.1302 34.2099 20.9007 34.2099 21.704V23.2185Z" fill="#BB8E34"/>
</svg>
