<svg width="37" height="34" viewBox="0 0 37 34" fill="none" xmlns="http://www.w3.org/2000/svg">
<path d="M6.10037 15.4995H7.61489V6.41241C7.61489 4.80571 8.25315 3.26482 9.38925 2.12872C10.5254 0.992612 12.0662 0.354355 13.6729 0.354355H30.3326C31.9393 0.354355 33.4802 0.992612 34.6163 2.12872C35.7524 3.26482 36.3906 4.80571 36.3906 6.41241V23.072C36.3874 24.0276 36.0823 24.9577 35.5191 25.7296C34.9558 26.5014 34.1631 27.0757 33.2541 27.3702C33.3226 27.7001 33.3586 28.0359 33.3616 28.3728C33.3616 29.7787 32.8031 31.127 31.809 32.1211C30.8149 33.1152 29.4667 33.6736 28.0608 33.6736C26.6549 33.6736 25.3067 33.1152 24.3126 32.1211C23.3185 31.127 22.76 29.7787 22.76 28.3728C22.7624 28.1192 22.7831 27.8662 22.8221 27.6156H13.6108C13.6498 27.8662 13.6706 28.1192 13.6729 28.3728C13.6729 29.7787 13.1145 31.127 12.1204 32.1211C11.1263 33.1152 9.778 33.6736 8.37214 33.6736C6.96629 33.6736 5.61801 33.1152 4.62391 32.1211C3.62982 31.127 3.07135 29.7787 3.07135 28.3728C3.07431 28.0359 3.11032 27.7001 3.17888 27.3702C2.26987 27.0757 1.47715 26.5014 0.913879 25.7296C0.350605 24.9577 0.0455742 24.0276 0.0423241 23.072V21.5575C0.0423241 19.9508 0.680584 18.4099 1.81669 17.2738C2.95279 16.1377 4.49368 15.4995 6.10037 15.4995ZM33.3616 15.4995V9.44143H30.3326V15.4995H33.3616ZM27.3035 9.44143H24.2745V15.4995H27.3035V9.44143ZM21.2455 9.44143H16.702V24.5866H21.2455V9.44143ZM13.6729 9.44143H10.6439V15.4995H13.6729V9.44143ZM30.3326 3.38338H13.6729C12.8696 3.38338 12.0991 3.70251 11.5311 4.27056C10.963 4.83861 10.6439 5.60906 10.6439 6.41241H33.3616C33.3616 5.60906 33.0425 4.83861 32.4744 4.27056C31.9064 3.70251 31.1359 3.38338 30.3326 3.38338ZM33.3616 18.5285H24.2745V24.5866H31.8471C32.2488 24.5866 32.634 24.427 32.918 24.143C33.202 23.8589 33.3616 23.4737 33.3616 23.072V18.5285ZM25.789 28.3728C25.789 28.9753 26.0284 29.5532 26.4544 29.9792C26.8805 30.4053 27.4583 30.6446 28.0608 30.6446C28.6633 30.6446 29.2412 30.4053 29.6672 29.9792C30.0932 29.5532 30.3326 28.9753 30.3326 28.3728C30.3319 28.114 30.2842 27.8574 30.1917 27.6156H25.9299C25.8374 27.8574 25.7897 28.114 25.789 28.3728ZM8.37214 30.6446C8.97465 30.6446 9.55249 30.4053 9.97853 29.9792C10.4046 29.5532 10.6439 28.9753 10.6439 28.3728C10.6432 28.114 10.5955 27.8574 10.5031 27.6156H6.24122C6.14876 27.8574 6.10104 28.114 6.10037 28.3728C6.10037 28.9753 6.33972 29.5532 6.76576 29.9792C7.1918 30.4053 7.76963 30.6446 8.37214 30.6446ZM3.07135 23.072C3.07135 23.4737 3.23091 23.8589 3.51494 24.143C3.79897 24.427 4.18419 24.5866 4.58586 24.5866H13.6729V18.5285H6.10037C5.29703 18.5285 4.52658 18.8476 3.95853 19.4157C3.39048 19.9837 3.07135 20.7542 3.07135 21.5575V23.072Z" fill="#BB8E34"/>
</svg>
