<svg width="24" height="24" viewBox="0 0 24 24" fill="none" xmlns="http://www.w3.org/2000/svg">
<path d="M23.7195 22.3067L17.7554 16.3426C19.3807 14.3548 20.1798 11.8184 19.9874 9.25796C19.7951 6.69754 18.6259 4.309 16.7219 2.5864C14.8178 0.863809 12.3245 -0.0610491 9.75763 0.00313002C7.19079 0.0673091 4.74681 1.11562 2.93121 2.93121C1.11562 4.74681 0.0673091 7.19079 0.00313002 9.75763C-0.0610491 12.3245 0.863809 14.8178 2.5864 16.7219C4.309 18.6259 6.69754 19.7951 9.25796 19.9874C11.8184 20.1798 14.3548 19.3807 16.3426 17.7554L22.3067 23.7195C22.4951 23.9015 22.7475 24.0022 23.0095 24C23.2715 23.9977 23.5221 23.8926 23.7073 23.7073C23.8926 23.5221 23.9977 23.2715 24 23.0095C24.0022 22.7475 23.9015 22.4951 23.7195 22.3067ZM10.0238 18.0172C8.44282 18.0172 6.89737 17.5484 5.58286 16.6701C4.26835 15.7917 3.24381 14.5433 2.6388 13.0827C2.0338 11.6221 1.8755 10.0149 2.18393 8.46433C2.49236 6.91376 3.25366 5.48946 4.37156 4.37156C5.48946 3.25366 6.91376 2.49236 8.46433 2.18393C10.0149 1.8755 11.6221 2.0338 13.0827 2.6388C14.5433 3.24381 15.7917 4.26835 16.6701 5.58286C17.5484 6.89737 18.0172 8.44282 18.0172 10.0238C18.0148 12.143 17.1719 14.1748 15.6734 15.6734C14.1748 17.1719 12.143 18.0148 10.0238 18.0172Z" fill="#BB8E34"/>
<path d="M13.0216 9.0239H11.0232V7.02555C11.0232 6.76055 10.918 6.5064 10.7306 6.31902C10.5432 6.13164 10.2891 6.02637 10.0241 6.02637C9.75906 6.02637 9.50492 6.13164 9.31753 6.31902C9.13015 6.5064 9.02488 6.76055 9.02488 7.02555V9.0239H7.02652C6.76152 9.0239 6.50738 9.12917 6.32 9.31656C6.13261 9.50394 6.02734 9.75808 6.02734 10.0231C6.02734 10.2881 6.13261 10.5422 6.32 10.7296C6.50738 10.917 6.76152 11.0223 7.02652 11.0223H9.02488V13.0206C9.02488 13.2856 9.13015 13.5398 9.31753 13.7271C9.50492 13.9145 9.75906 14.0198 10.0241 14.0198C10.2891 14.0198 10.5432 13.9145 10.7306 13.7271C10.918 13.5398 11.0232 13.2856 11.0232 13.0206V11.0223H13.0216C13.2866 11.0223 13.5407 10.917 13.7281 10.7296C13.9155 10.5422 14.0208 10.2881 14.0208 10.0231C14.0208 9.75808 13.9155 9.50394 13.7281 9.31656C13.5407 9.12917 13.2866 9.0239 13.0216 9.0239Z" fill="#BB8E34"/>
</svg>
