<svg width="70" height="77" viewBox="0 0 70 77" fill="none" xmlns="http://www.w3.org/2000/svg">
<path d="M35.1029 25.6836C32.5681 25.6836 30.0902 26.4353 27.9826 27.8435C25.8749 29.2518 24.2322 31.2534 23.2622 33.5953C22.2922 35.9372 22.0384 38.5141 22.5329 41.0002C23.0274 43.4863 24.248 45.77 26.0404 47.5624C27.8328 49.3548 30.1165 50.5754 32.6026 51.0699C35.0887 51.5644 37.6656 51.3106 40.0075 50.3406C42.3494 49.3706 44.351 47.7279 45.7593 45.6202C47.1675 43.5126 47.9192 41.0347 47.9192 38.4999C47.9192 35.1008 46.5689 31.8409 44.1654 29.4374C41.7619 27.0339 38.502 25.6836 35.1029 25.6836V25.6836ZM35.1029 44.908C33.8355 44.908 32.5966 44.5322 31.5427 43.8281C30.4889 43.1239 29.6676 42.1231 29.1826 40.9522C28.6975 39.7812 28.5706 38.4928 28.8179 37.2497C29.0652 36.0067 29.6755 34.8648 30.5717 33.9686C31.4679 33.0724 32.6097 32.4621 33.8528 32.2149C35.0958 31.9676 36.3843 32.0945 37.5552 32.5795C38.7261 33.0645 39.727 33.8859 40.4311 34.9397C41.1352 35.9935 41.5111 37.2325 41.5111 38.4999C41.5111 40.1994 40.8359 41.8294 39.6342 43.0311C38.4324 44.2329 36.8025 44.908 35.1029 44.908Z" fill="#BB8E34"/>
<path d="M64.8825 44.5874L63.4599 43.7671C64.1003 40.2825 64.1003 36.7104 63.4599 33.2257L64.8825 32.4055C65.9765 31.7743 66.9354 30.9339 67.7046 29.9322C68.4738 28.9304 69.0381 27.787 69.3654 26.5671C69.6927 25.3472 69.7765 24.0749 69.612 22.8226C69.4476 21.5704 69.0381 20.3628 68.4069 19.2688C67.7758 18.1748 66.9354 17.2159 65.9336 16.4467C64.9318 15.6775 63.7884 15.1131 62.5685 14.7859C61.3487 14.4586 60.0763 14.3748 58.8241 14.5392C57.5718 14.7037 56.3642 15.1132 55.2703 15.7443L53.8444 16.5678C51.1515 14.267 48.0568 12.4834 44.716 11.3067V9.663C44.716 7.11368 43.7033 4.66877 41.9007 2.86613C40.098 1.06349 37.6531 0.0507813 35.1038 0.0507812C32.5545 0.0507813 30.1096 1.06349 28.307 2.86613C26.5043 4.66877 25.4916 7.11368 25.4916 9.663V11.3067C22.151 12.4876 19.0573 14.2756 16.3664 16.5806L14.9342 15.7507C12.7248 14.4761 10.0995 14.1313 7.63589 14.7923C5.17229 15.4532 3.07215 17.0658 1.79749 19.2752C0.522831 21.4846 0.178063 24.1099 0.839031 26.5735C1.5 29.0371 3.11256 31.1372 5.32197 32.4119L6.74458 33.2321C6.10411 36.7168 6.10411 40.2889 6.74458 43.7735L5.32197 44.5938C3.11256 45.8684 1.5 47.9686 0.839031 50.4322C0.178063 52.8958 0.522831 55.5211 1.79749 57.7305C3.07215 59.9399 5.17229 61.5525 7.63589 62.2134C10.0995 62.8744 12.7248 62.5296 14.9342 61.255L16.36 60.4315C19.0539 62.7326 22.1497 64.5163 25.4916 65.6926V67.3363C25.4916 69.8856 26.5043 72.3305 28.307 74.1332C30.1096 75.9358 32.5545 76.9485 35.1038 76.9485C37.6531 76.9485 40.098 75.9358 41.9007 74.1332C43.7033 72.3305 44.716 69.8856 44.716 67.3363V65.6926C48.0566 64.5117 51.1503 62.7237 53.8412 60.4187L55.2735 61.2454C57.4829 62.52 60.1081 62.8648 62.5717 62.2038C65.0354 61.5428 67.1355 59.9303 68.4102 57.7209C69.6848 55.5115 70.0296 52.8862 69.3686 50.4226C68.7076 47.959 67.0951 45.8588 64.8857 44.5842L64.8825 44.5874ZM56.7185 32.4888C57.8035 36.4204 57.8035 40.5725 56.7185 44.5041C56.529 45.1884 56.5722 45.9162 56.8413 46.5733C57.1104 47.2304 57.5902 47.7794 58.2052 48.1343L61.6784 50.14C62.4147 50.5649 62.9521 51.2649 63.1723 52.086C63.3926 52.9071 63.2776 53.7821 62.8527 54.5184C62.4278 55.2547 61.7278 55.7921 60.9067 56.0123C60.0856 56.2326 59.2107 56.1176 58.4743 55.6927L54.9947 53.6805C54.3792 53.324 53.6625 53.1825 52.9577 53.2782C52.2529 53.3739 51.5999 53.7015 51.1017 54.2092C48.2498 57.1206 44.657 59.1979 40.7109 60.2168C40.0222 60.3939 39.4119 60.7951 38.9762 61.3572C38.5406 61.9193 38.3043 62.6104 38.3047 63.3216V67.3363C38.3047 68.1861 37.9671 69.001 37.3662 69.6019C36.7654 70.2028 35.9504 70.5404 35.1006 70.5404C34.2508 70.5404 33.4359 70.2028 32.835 69.6019C32.2341 69.001 31.8965 68.1861 31.8965 67.3363V63.3248C31.8969 62.6136 31.6606 61.9225 31.225 61.3604C30.7893 60.7983 30.1791 60.3971 29.4903 60.22C25.544 59.1969 21.9522 57.1152 19.1027 54.1996C18.6045 53.6919 17.9516 53.3643 17.2467 53.2686C16.5419 53.1729 15.8253 53.3144 15.2097 53.6709L11.7365 55.6799C11.372 55.8936 10.9688 56.0331 10.5501 56.0903C10.1315 56.1476 9.70563 56.1214 9.29711 56.0134C8.8886 55.9054 8.50548 55.7177 8.16981 55.461C7.83415 55.2043 7.55257 54.8838 7.34129 54.5179C7.13001 54.1519 6.9932 53.7478 6.93873 53.3288C6.88427 52.9097 6.91323 52.4841 7.02394 52.0763C7.13465 51.6685 7.32493 51.2866 7.58383 50.9527C7.84272 50.6187 8.16512 50.3393 8.53245 50.1304L12.0057 48.1247C12.6207 47.7698 13.1004 47.2208 13.3695 46.5637C13.6386 45.9066 13.6818 45.1788 13.4924 44.4945C12.4073 40.5629 12.4073 36.4108 13.4924 32.4792C13.6784 31.7963 13.6331 31.0711 13.3636 30.4167C13.0941 29.7623 12.6154 29.2155 12.0025 28.8618L8.52925 26.856C7.79292 26.4312 7.25553 25.7312 7.03531 24.9101C6.81509 24.089 6.93007 23.214 7.35495 22.4777C7.77984 21.7414 8.47983 21.204 9.30093 20.9837C10.122 20.7635 10.997 20.8785 11.7333 21.3034L15.2129 23.3155C15.8268 23.6728 16.5419 23.8161 17.246 23.7227C17.9501 23.6293 18.6032 23.3046 19.1027 22.7997C21.9546 19.8883 25.5474 17.811 29.4935 16.7921C30.1844 16.6144 30.7963 16.2113 31.2321 15.6466C31.668 15.0819 31.903 14.3879 31.8997 13.6745V9.663C31.8997 8.81322 32.2373 7.99826 32.8382 7.39738C33.4391 6.7965 34.254 6.45892 35.1038 6.45892C35.9536 6.45892 36.7686 6.7965 37.3694 7.39738C37.9703 7.99826 38.3079 8.81322 38.3079 9.663V13.6745C38.3075 14.3857 38.5438 15.0767 38.9794 15.6388C39.4151 16.201 40.0254 16.6022 40.7141 16.7792C44.6616 17.8018 48.2546 19.8836 51.105 22.7997C51.6031 23.3074 52.2561 23.635 52.9609 23.7307C53.6657 23.8264 54.3824 23.6849 54.9979 23.3284L58.4711 21.3194C58.8356 21.1057 59.2388 20.9662 59.6575 20.909C60.0762 20.8517 60.502 20.8779 60.9105 20.9859C61.319 21.0939 61.7022 21.2816 62.0378 21.5383C62.3735 21.795 62.6551 22.1155 62.8664 22.4814C63.0776 22.8474 63.2144 23.2515 63.2689 23.6705C63.3234 24.0896 63.2944 24.5152 63.1837 24.923C63.073 25.3308 62.8827 25.7127 62.6238 26.0466C62.3649 26.3806 62.0425 26.66 61.6752 26.8689L58.202 28.8746C57.5901 29.2293 57.1129 29.7765 56.8445 30.4308C56.5762 31.0851 56.5319 31.8099 56.7185 32.492V32.4888Z" fill="#BB8E34"/>
</svg>
