<svg width="69" height="69" viewBox="0 0 69 69" fill="none" xmlns="http://www.w3.org/2000/svg">
<rect x="1" y="1.00684" width="67" height="67" stroke="#666666" stroke-width="1.76" stroke-linejoin="round"/>
<path d="M5.85547 10.8618C5.85547 8.10039 8.09405 5.86182 10.8555 5.86182H58.1453C60.9067 5.86182 63.1453 8.10039 63.1453 10.8618V44.7024H5.85547V10.8618Z" stroke="#666666" stroke-width="1.76" stroke-linejoin="round"/>
<path fill-rule="evenodd" clip-rule="evenodd" d="M22.3593 52.8397C21.3763 52.8689 20.1664 53.1639 19.1693 53.9445C18.1045 54.7781 17.1669 56.2566 17.1039 58.8769C19.6889 58.4545 21.024 57.3232 21.7033 56.1544C22.3403 55.0584 22.4661 53.818 22.3593 52.8397ZM15.3583 59.876C15.1809 56.2261 16.3652 53.9045 18.0844 52.5586C19.7618 51.2455 21.8095 50.9717 23.1918 51.1099C23.5925 51.15 23.9035 51.453 23.9707 51.8308C24.2856 53.1817 24.2823 55.2196 23.225 57.0388C22.1242 58.9328 19.9765 60.4282 16.3146 60.7468C15.8304 60.7889 15.4037 60.4306 15.3616 59.9464C15.3596 59.9228 15.3585 59.8993 15.3583 59.876Z" fill="#666666"/>
<path fill-rule="evenodd" clip-rule="evenodd" d="M35.4326 49.9606C35.1162 49.7172 34.6758 49.7172 34.3595 49.9606L29.6838 53.5572C29.2986 53.8535 29.2265 54.406 29.5229 54.7913C29.8192 55.1765 30.3717 55.2486 30.7569 54.9522L34.896 51.7683L39.0351 54.9522C39.4203 55.2486 39.9728 55.1765 40.2692 54.7913C40.5655 54.406 40.4934 53.8535 40.1082 53.5572L35.4326 49.9606ZM32.5379 55.6932C32.5379 55.2072 32.1439 54.8132 31.6579 54.8132C31.1719 54.8132 30.7779 55.2072 30.7779 55.6932V60.0092C30.7779 60.4952 31.1719 60.8892 31.6579 60.8892H38.1318C38.6178 60.8892 39.0118 60.4952 39.0118 60.0092V55.6932C39.0118 55.2072 38.6178 54.8132 38.1318 54.8132C37.6458 54.8132 37.2518 55.2072 37.2518 55.6932V59.1292H32.5379V55.6932Z" fill="#666666"/>
<path fill-rule="evenodd" clip-rule="evenodd" d="M47.9434 53.8566C47.9434 52.576 48.9135 51.6167 50.0156 51.6167C51.1006 51.6167 52.0576 52.5465 52.087 53.7974C52.0857 53.8163 52.085 53.8354 52.085 53.8546C52.085 54.1236 52.2169 54.3617 52.4195 54.5079C52.5523 54.6046 52.7159 54.6617 52.8928 54.6617C52.9084 54.6617 52.9239 54.6612 52.9392 54.6603C54.0208 54.6884 54.9622 55.638 54.9622 56.8996C54.9622 58.1802 53.9921 59.1394 52.8901 59.1394C52.8711 59.1394 52.8523 59.1401 52.8336 59.1414H47.1611C47.1527 59.1411 47.1443 59.141 47.1359 59.141C46.0339 59.141 45.0638 58.1817 45.0638 56.9011C45.0638 55.628 46.0225 54.6726 47.1164 54.6614L47.1384 54.6617C47.583 54.6617 47.9434 54.3012 47.9434 53.8566ZM47.1104 60.751C45.0467 60.7366 43.4536 58.9753 43.4536 56.9011C43.4536 55.0722 44.6922 53.4865 46.3999 53.1272C46.7232 51.3774 48.1872 50.0066 50.0156 50.0066C51.8438 50.0066 53.3077 51.3772 53.6311 53.1267C55.3362 53.4881 56.5724 55.0725 56.5724 56.8996C56.5724 58.9596 55.0009 60.7111 52.9576 60.7489C52.9362 60.7506 52.9146 60.7515 52.8928 60.7515H47.1384C47.129 60.7515 47.1197 60.7513 47.1104 60.751Z" fill="#666666"/>
<path d="M15.5625 14.6023H25.7582V24.7979H15.5625" stroke="#666666" stroke-width="1.76" stroke-linecap="round" stroke-linejoin="round"/>
<path d="M15.5622 24.7979V34.9935H25.7578" stroke="#666666" stroke-width="1.76" stroke-linecap="round" stroke-linejoin="round"/>
<path d="M30.6133 14.6023H40.8089V24.7979H30.6133" stroke="#666666" stroke-width="1.76" stroke-linecap="round" stroke-linejoin="round"/>
<path d="M30.6129 24.7979V34.9935H40.8086" stroke="#666666" stroke-width="1.76" stroke-linecap="round" stroke-linejoin="round"/>
<circle cx="52.4616" cy="25.2833" r="1.94203" stroke="#666666" stroke-width="1.76" stroke-linejoin="round"/>
<circle cx="52.4626" cy="20.4284" r="0.971014" transform="rotate(180 52.4626 20.4284)" fill="#666666"/>
<circle cx="52.4626" cy="34.0226" r="0.971014" transform="rotate(180 52.4626 34.0226)" fill="#666666"/>
<circle cx="52.4626" cy="16.5444" r="0.971014" transform="rotate(180 52.4626 16.5444)" fill="#666666"/>
<circle cx="52.4626" cy="30.1384" r="0.971014" transform="rotate(180 52.4626 30.1384)" fill="#666666"/>
</svg>
