<svg width="25" height="23" viewBox="0 0 25 23" fill="none" xmlns="http://www.w3.org/2000/svg">
<path d="M19.408 0.242188H5.40796C4.08236 0.243775 2.81152 0.771069 1.87418 1.70841C0.936841 2.64575 0.409547 3.91659 0.407959 5.24219L0.407959 17.2422C0.409547 18.5678 0.936841 19.8386 1.87418 20.776C2.81152 21.7133 4.08236 22.2406 5.40796 22.2422H19.408C20.7336 22.2406 22.0044 21.7133 22.9417 20.776C23.8791 19.8386 24.4064 18.5678 24.408 17.2422V5.24219C24.4064 3.91659 23.8791 2.64575 22.9417 1.70841C22.0044 0.771069 20.7336 0.243775 19.408 0.242188ZM5.40796 2.24219H19.408C20.0067 2.24337 20.5915 2.4237 21.0869 2.75999C21.5823 3.09628 21.9658 3.57313 22.188 4.12919L14.53 11.7882C13.9664 12.3495 13.2034 12.6647 12.408 12.6647C11.6125 12.6647 10.8495 12.3495 10.286 11.7882L2.62796 4.12919C2.85011 3.57313 3.23357 3.09628 3.72901 2.75999C4.22444 2.4237 4.80917 2.24337 5.40796 2.24219ZM19.408 20.2422H5.40796C4.61231 20.2422 3.84925 19.9261 3.28664 19.3635C2.72403 18.8009 2.40796 18.0378 2.40796 17.2422V6.74219L8.87196 13.2022C9.81059 14.1384 11.0822 14.6642 12.408 14.6642C13.7337 14.6642 15.0053 14.1384 15.944 13.2022L22.408 6.74219V17.2422C22.408 18.0378 22.0919 18.8009 21.5293 19.3635C20.9667 19.9261 20.2036 20.2422 19.408 20.2422Z" fill="#BB8E34"/>
</svg>
