<svg width="65" height="77" viewBox="0 0 65 77" fill="none" xmlns="http://www.w3.org/2000/svg">
<path d="M53.1974 6.86661L33.0972 0.164398C32.4391 -0.0547992 31.7276 -0.0547992 31.0695 0.164398L10.9693 6.86661C7.77349 7.92818 4.9935 9.96989 3.02432 12.7016C1.05514 15.4334 -0.00308537 18.7162 6.75712e-06 22.0837V38.5008C6.75712e-06 62.7654 29.5167 76.1666 30.7808 76.7249C31.1908 76.907 31.6346 77.0012 32.0833 77.0012C32.5321 77.0012 32.9758 76.907 33.3859 76.7249C34.65 76.1666 64.1667 62.7654 64.1667 38.5008V22.0837C64.1698 18.7162 63.1115 15.4334 61.1424 12.7016C59.1732 9.96989 56.3932 7.92818 53.1974 6.86661V6.86661ZM57.75 38.5008C57.75 56.0022 37.4765 67.4816 32.0833 70.228C26.6837 67.4913 6.41667 56.0472 6.41667 38.5008V22.0837C6.41686 20.0634 7.0528 18.0943 8.2344 16.4555C9.416 14.8167 11.0833 13.5912 13.0002 12.9528L32.0833 6.59069L51.1665 12.9528C53.0833 13.5912 54.7507 14.8167 55.9323 16.4555C57.1139 18.0943 57.7498 20.0634 57.75 22.0837V38.5008Z" fill="#BB8E34"/>
<path d="M42.6708 26.6303L29.2343 40.1053L22.0348 32.5978C21.7459 32.2819 21.3966 32.027 21.0077 31.8481C20.6187 31.6693 20.1979 31.5701 19.77 31.5564C19.3421 31.5427 18.9158 31.6147 18.5162 31.7683C18.1166 31.9219 17.7518 32.154 17.4432 32.4507C17.1347 32.7475 16.8887 33.103 16.7196 33.4963C16.5506 33.8897 16.462 34.3128 16.4591 34.7409C16.4561 35.169 16.5389 35.5934 16.7025 35.989C16.866 36.3846 17.1071 36.7435 17.4116 37.0445L24.81 44.7445C25.3617 45.3405 26.0286 45.8183 26.7703 46.1492C27.512 46.4801 28.3131 46.6571 29.1252 46.6695H29.2311C30.0269 46.6721 30.8154 46.5167 31.5506 46.2121C32.2859 45.9075 32.9533 45.4599 33.5142 44.8953L47.2202 31.1893C47.5196 30.8906 47.7571 30.5358 47.9194 30.1453C48.0816 29.7548 48.1654 29.3361 48.1658 28.9132C48.1663 28.4903 48.0834 28.0714 47.922 27.6806C47.7606 27.2897 47.5237 26.9344 47.225 26.6351C46.9263 26.3357 46.5715 26.0981 46.181 25.9359C45.7905 25.7736 45.3718 25.6899 44.9489 25.6895C44.526 25.689 44.1071 25.7719 43.7163 25.9333C43.3254 26.0947 42.9701 26.3315 42.6708 26.6303V26.6303Z" fill="#BB8E34"/>
</svg>
