<svg width="37" height="38" viewBox="0 0 37 38" fill="none" xmlns="http://www.w3.org/2000/svg">
<path d="M18.8811 0.947266C15.2997 0.947266 11.7988 2.00926 8.82101 3.99895C5.84323 5.98864 3.52233 8.81667 2.15181 12.1254C0.781283 15.4341 0.422692 19.075 1.12138 22.5875C1.82007 26.1 3.54465 29.3265 6.07705 31.8589C8.60944 34.3913 11.8359 36.1159 15.3484 36.8146C18.861 37.5133 22.5018 37.1547 25.8106 35.7841C29.1193 34.4136 31.9473 32.0927 33.937 29.1149C35.9267 26.1372 36.9887 22.6362 36.9887 19.0549C36.9835 14.254 35.0741 9.65131 31.6794 6.2566C28.2846 2.86189 23.6819 0.952458 18.8811 0.947266V0.947266ZM18.8811 34.1446C15.8966 34.1446 12.9792 33.2596 10.4977 31.6015C8.0162 29.9434 6.08212 27.5867 4.94002 24.8295C3.79791 22.0722 3.49909 19.0382 4.08133 16.111C4.66357 13.1839 6.10072 10.4952 8.21105 8.38487C10.3214 6.27454 13.0101 4.83739 15.9372 4.25515C18.8643 3.67291 21.8984 3.97173 24.6556 5.11384C27.4129 6.25594 29.7696 8.19002 31.4277 10.6715C33.0858 13.153 33.9708 16.0704 33.9708 19.0549C33.9664 23.0556 32.3752 26.8911 29.5462 29.7201C26.7173 32.549 22.8818 34.1402 18.8811 34.1446ZM21.899 19.0549C21.9014 19.5852 21.764 20.1068 21.5007 20.5671C21.2373 21.0275 20.8573 21.4103 20.3989 21.677C19.9405 21.9437 19.42 22.085 18.8896 22.0865C18.3593 22.088 17.8379 21.9497 17.3781 21.6856C16.9182 21.4214 16.536 21.0408 16.2701 20.5819C16.0041 20.1231 15.8638 19.6023 15.8632 19.072C15.8626 18.5416 16.0017 18.0205 16.2666 17.5611C16.5315 17.1016 16.9128 16.7201 17.3721 16.4549V11.51C17.3721 11.1098 17.5311 10.726 17.8141 10.443C18.0971 10.1601 18.4809 10.0011 18.8811 10.0011C19.2813 10.0011 19.6651 10.1601 19.9481 10.443C20.2311 10.726 20.39 11.1098 20.39 11.51V16.4549C20.8474 16.718 21.2276 17.0966 21.4925 17.553C21.7573 18.0093 21.8975 18.5273 21.899 19.0549Z" fill="#BB8E34"/>
</svg>
