<svg width="43" height="43" viewBox="0 0 43 43" fill="none" xmlns="http://www.w3.org/2000/svg">
<path d="M28.835 24.2494C28.2773 23.6464 27.6511 23.1107 26.969 22.6532C29.7214 20.5251 31.6503 17.5081 32.4266 14.1167C32.4839 13.8716 32.4922 13.6176 32.451 13.3693C32.4098 13.121 32.3198 12.8833 32.1864 12.6699C32.053 12.4565 31.8786 12.2716 31.6735 12.1258C31.4683 11.98 31.2363 11.8762 30.9909 11.8204C30.7455 11.7646 30.4914 11.7579 30.2434 11.8007C29.9953 11.8434 29.7582 11.9348 29.5456 12.0695C29.333 12.2043 29.1492 12.3797 29.0047 12.5858C28.8601 12.7919 28.7578 13.0245 28.7035 13.2703C28.3419 14.8567 27.6386 16.3451 26.6427 17.6317C25.6468 18.9184 24.3822 19.9723 22.9371 20.7201V13.6973C22.9253 13.5568 22.8973 13.4182 22.8537 13.2841C22.841 13.1737 22.819 13.0646 22.7878 12.958C22.7064 12.7844 22.599 12.6241 22.4694 12.4828C22.4352 12.4422 22.418 12.3888 22.3807 12.3512C22.2409 12.2221 22.0825 12.1146 21.9109 12.0323C21.8622 12.0063 21.826 11.9624 21.7748 11.9407C21.6285 11.8919 21.477 11.8608 21.3234 11.8478C21.2286 11.8201 21.1317 11.8001 21.0336 11.7883L19.7845 11.7844H19.7789C19.3323 11.7822 18.8992 11.9375 18.5557 12.2229C18.2121 12.5083 17.9801 12.9056 17.9004 13.345C17.8206 13.7845 17.8982 14.2379 18.1195 14.6259C18.3408 15.0138 18.6917 15.3114 19.1105 15.4663V24.8031C16.0852 21.6627 14.082 17.6796 13.3646 13.3785C13.3228 13.1313 13.2326 12.8948 13.0993 12.6825C12.9661 12.4702 12.7923 12.2862 12.5879 12.141C12.3836 11.9959 12.1526 11.8924 11.9082 11.8365C11.6639 11.7806 11.4109 11.7734 11.1637 11.8152C10.9166 11.8571 10.6801 11.9472 10.4678 12.0805C10.2555 12.2138 10.0715 12.3875 9.92631 12.5919C9.78115 12.7963 9.67766 13.0272 9.62176 13.2716C9.56586 13.516 9.55863 13.769 9.6005 14.0161C10.7162 20.6646 14.4236 26.5991 19.9094 30.5174C19.9876 30.5643 20.0692 30.6054 20.1534 30.6405C20.2195 30.6793 20.2881 30.7139 20.3586 30.7439C20.5717 30.8291 20.7985 30.8749 21.028 30.8791C21.3089 30.8757 21.5854 30.8092 21.8371 30.6846C21.8561 30.6757 21.8779 30.6799 21.8968 30.6703C22.0655 30.5824 22.2201 30.4696 22.3552 30.3357C22.3823 30.3092 22.4005 30.2767 22.4262 30.2487C22.5493 30.1134 22.6522 29.9609 22.7314 29.7959C22.758 29.7412 22.7822 29.6888 22.8036 29.6313C22.8875 29.4207 22.9327 29.1967 22.9371 28.97L22.938 24.9113C24.1209 25.2586 25.1867 25.9219 26.0207 26.8297L29.1668 30.2601C29.3361 30.4455 29.5402 30.5956 29.7676 30.702C29.9949 30.8084 30.2411 30.8688 30.4918 30.8799C30.7426 30.8911 30.9931 30.8526 31.229 30.7668C31.4649 30.681 31.6815 30.5494 31.8665 30.3798C32.0515 30.2101 32.2012 30.0056 32.3071 29.778C32.4129 29.5504 32.4728 29.3042 32.4834 29.0534C32.4939 28.8026 32.4549 28.5522 32.3685 28.3165C32.2822 28.0808 32.1502 27.8644 31.9801 27.6798L28.835 24.2494ZM27.5541 0.329834H15.8414C4.08669 0.329834 0.687988 3.72481 0.687988 15.4627V27.1764C0.687988 38.9311 4.08203 42.3298 15.8218 42.3298H27.5346C39.2893 42.3298 42.688 38.9349 42.688 27.1969V15.4832C42.688 3.72853 39.2939 0.329834 27.5541 0.329834ZM38.8698 27.1969C38.8698 36.8188 37.1751 38.5117 27.5346 38.5117H15.8218C6.19806 38.5117 4.50617 36.817 4.50617 27.1764V15.4627C4.50617 5.84084 6.20087 4.14802 15.8414 4.14802H27.5541C37.1779 4.14802 38.8698 5.84272 38.8698 15.4832V27.1969Z" fill="#BB8E34"/>
</svg>
