<svg width="469" height="414" viewBox="0 0 469 414" fill="none" xmlns="http://www.w3.org/2000/svg">
<rect width="468.662" height="413.074" fill="#FAFAFA"/>
<circle cx="232.216" cy="201.156" r="122.912" stroke="#BB8E34" stroke-width="1.83679" stroke-linecap="round" stroke-linejoin="round" stroke-dasharray="6.12 6.12"/>
<g filter="url(#filter0_d_249_19836)">
<rect x="331.438" y="177.533" width="47.2528" height="47.2528" rx="1.83679" fill="#FAFAFA"/>
</g>
<g clip-path="url(#clip0_249_19836)">
<rect width="36.3483" height="36.3483" transform="translate(336.891 182.986)" fill="#FAFAFA"/>
<path d="M367.181 199.646H365.666V190.559C365.666 188.952 365.028 187.411 363.892 186.275C362.756 185.139 361.215 184.501 359.608 184.501H342.949C341.342 184.501 339.801 185.139 338.665 186.275C337.529 187.411 336.891 188.952 336.891 190.559V207.219C336.894 208.174 337.199 209.104 337.762 209.876C338.325 210.648 339.118 211.222 340.027 211.517C339.959 211.847 339.923 212.182 339.92 212.519C339.92 213.925 340.478 215.273 341.472 216.268C342.466 217.262 343.815 217.82 345.22 217.82C346.626 217.82 347.975 217.262 348.969 216.268C349.963 215.273 350.521 213.925 350.521 212.519C350.519 212.266 350.498 212.013 350.459 211.762H359.67C359.631 212.013 359.611 212.266 359.608 212.519C359.608 213.925 360.167 215.273 361.161 216.268C362.155 217.262 363.503 217.82 364.909 217.82C366.315 217.82 367.663 217.262 368.657 216.268C369.651 215.273 370.21 213.925 370.21 212.519C370.207 212.182 370.171 211.847 370.102 211.517C371.011 211.222 371.804 210.648 372.367 209.876C372.931 209.104 373.236 208.174 373.239 207.219V205.704C373.239 204.097 372.601 202.556 371.465 201.42C370.328 200.284 368.788 199.646 367.181 199.646V199.646ZM339.92 199.646V193.588H342.949V199.646H339.92ZM345.978 193.588H349.007V199.646H345.978V193.588ZM352.036 193.588H356.579V208.733H352.036V193.588ZM359.608 193.588H362.637V199.646H359.608V193.588ZM342.949 187.53H359.608C360.412 187.53 361.182 187.849 361.75 188.417C362.318 188.985 362.637 189.756 362.637 190.559H339.92C339.92 189.756 340.239 188.985 340.807 188.417C341.375 187.849 342.145 187.53 342.949 187.53V187.53ZM339.92 202.675H349.007V208.733H341.434C341.032 208.733 340.647 208.573 340.363 208.289C340.079 208.005 339.92 207.62 339.92 207.219V202.675ZM347.492 212.519C347.492 213.122 347.253 213.7 346.827 214.126C346.401 214.552 345.823 214.791 345.22 214.791C344.618 214.791 344.04 214.552 343.614 214.126C343.188 213.7 342.949 213.122 342.949 212.519C342.949 212.26 342.997 212.004 343.09 211.762H347.351C347.444 212.004 347.492 212.26 347.492 212.519V212.519ZM364.909 214.791C364.307 214.791 363.729 214.552 363.303 214.126C362.877 213.7 362.637 213.122 362.637 212.519C362.638 212.26 362.686 212.004 362.778 211.762H367.04C367.132 212.004 367.18 212.26 367.181 212.519C367.181 213.122 366.942 213.7 366.515 214.126C366.089 214.552 365.512 214.791 364.909 214.791ZM370.21 207.219C370.21 207.62 370.05 208.005 369.766 208.289C369.482 208.573 369.097 208.733 368.695 208.733H359.608V202.675H367.181C367.984 202.675 368.755 202.994 369.323 203.562C369.891 204.13 370.21 204.901 370.21 205.704V207.219Z" fill="#BB8E34"/>
</g>
<g filter="url(#filter1_d_249_19836)">
<rect x="208.59" y="300.387" width="47.2528" height="47.2528" rx="1.83679" fill="#FAFAFA"/>
</g>
<g clip-path="url(#clip1_249_19836)">
<rect width="36.3483" height="36.3483" transform="matrix(-1 0 0 1 250.391 305.84)" fill="#FAFAFA"/>
<path d="M220.1 322.499H221.615V313.412C221.615 311.806 222.253 310.265 223.389 309.129C224.525 307.993 226.066 307.354 227.673 307.354H244.333C245.939 307.354 247.48 307.993 248.616 309.129C249.752 310.265 250.391 311.806 250.391 313.412V330.072C250.387 331.028 250.082 331.958 249.519 332.73C248.956 333.501 248.163 334.076 247.254 334.37C247.323 334.7 247.359 335.036 247.362 335.373C247.362 336.779 246.803 338.127 245.809 339.121C244.815 340.115 243.467 340.674 242.061 340.674C240.655 340.674 239.307 340.115 238.313 339.121C237.318 338.127 236.76 336.779 236.76 335.373C236.762 335.119 236.783 334.866 236.822 334.616H227.611C227.65 334.866 227.671 335.119 227.673 335.373C227.673 336.779 227.114 338.127 226.12 339.121C225.126 340.115 223.778 340.674 222.372 340.674C220.966 340.674 219.618 340.115 218.624 339.121C217.63 338.127 217.071 336.779 217.071 335.373C217.074 335.036 217.11 334.7 217.179 334.37C216.27 334.076 215.477 333.501 214.914 332.73C214.351 331.958 214.046 331.028 214.042 330.072V328.558C214.042 326.951 214.681 325.41 215.817 324.274C216.953 323.138 218.494 322.499 220.1 322.499V322.499ZM247.362 322.499V316.441H244.333V322.499H247.362ZM241.304 316.441H238.275V322.499H241.304V316.441ZM235.245 316.441H230.702V331.587H235.245V316.441ZM227.673 316.441H224.644V322.499H227.673V316.441ZM244.333 310.383H227.673C226.87 310.383 226.099 310.703 225.531 311.271C224.963 311.839 224.644 312.609 224.644 313.412H247.362C247.362 312.609 247.042 311.839 246.474 311.271C245.906 310.703 245.136 310.383 244.333 310.383V310.383ZM247.362 325.529H238.275V331.587H245.847C246.249 331.587 246.634 331.427 246.918 331.143C247.202 330.859 247.362 330.474 247.362 330.072V325.529ZM239.789 335.373C239.789 335.975 240.028 336.553 240.454 336.979C240.88 337.405 241.458 337.645 242.061 337.645C242.663 337.645 243.241 337.405 243.667 336.979C244.093 336.553 244.333 335.975 244.333 335.373C244.332 335.114 244.284 334.857 244.192 334.616H239.93C239.837 334.857 239.79 335.114 239.789 335.373V335.373ZM222.372 337.645C222.975 337.645 223.552 337.405 223.979 336.979C224.405 336.553 224.644 335.975 224.644 335.373C224.643 335.114 224.596 334.857 224.503 334.616H220.241C220.149 334.857 220.101 335.114 220.1 335.373C220.1 335.975 220.34 336.553 220.766 336.979C221.192 337.405 221.77 337.645 222.372 337.645ZM217.071 330.072C217.071 330.474 217.231 330.859 217.515 331.143C217.799 331.427 218.184 331.587 218.586 331.587H227.673V325.529H220.1C219.297 325.529 218.527 325.848 217.959 326.416C217.39 326.984 217.071 327.754 217.071 328.558V330.072Z" fill="#BB8E34"/>
</g>
<g filter="url(#filter2_d_249_19836)">
<rect x="208.59" y="54.6738" width="47.2528" height="47.2528" rx="1.83679" fill="#FAFAFA"/>
</g>
<g clip-path="url(#clip2_249_19836)">
<rect width="36.3483" height="36.3483" transform="translate(214.043 60.127)" fill="#FAFAFA"/>
<path d="M233.732 63.2332V61.6415C233.732 61.2398 233.572 60.8546 233.288 60.5705C233.004 60.2865 232.619 60.127 232.217 60.127C231.815 60.127 231.43 60.2865 231.146 60.5705C230.862 60.8546 230.703 61.2398 230.703 61.6415V63.2332C227.654 63.5066 224.739 64.6163 222.28 66.4401C219.822 68.2639 217.914 70.731 216.768 73.5696C215.622 76.4082 215.281 79.5081 215.784 82.5278C216.287 85.5475 217.614 88.3698 219.618 90.6838C218.826 91.0753 218.165 91.6874 217.713 92.4462C217.261 93.205 217.039 94.0783 217.072 94.9607C217.072 95.3624 217.232 95.7476 217.516 96.0317C217.8 96.3157 218.185 96.4753 218.586 96.4753C218.988 96.4753 219.373 96.3157 219.657 96.0317C219.941 95.7476 220.101 95.3624 220.101 94.9607C220.088 94.4939 220.256 94.0402 220.569 93.6936C220.882 93.347 221.316 93.1343 221.782 93.0994C221.886 93.0796 221.988 93.0481 222.085 93.0055C224.986 95.2556 228.553 96.4768 232.225 96.4768C235.896 96.4768 239.463 95.2556 242.364 93.0055C242.453 93.0463 242.545 93.0788 242.64 93.1024C243.107 93.1343 243.544 93.3454 243.86 93.6916C244.175 94.0378 244.345 94.4925 244.333 94.9607C244.333 95.3624 244.493 95.7476 244.777 96.0317C245.061 96.3157 245.446 96.4753 245.848 96.4753C246.249 96.4753 246.635 96.3157 246.919 96.0317C247.203 95.7476 247.362 95.3624 247.362 94.9607C247.395 94.0783 247.173 93.205 246.721 92.4462C246.269 91.6874 245.608 91.0753 244.816 90.6838C246.821 88.3698 248.147 85.5475 248.65 82.5278C249.153 79.5081 248.813 76.4082 247.666 73.5696C246.52 70.731 244.613 68.2639 242.154 66.4401C239.695 64.6163 236.781 63.5066 233.732 63.2332V63.2332ZM218.586 79.8156C218.586 77.1197 219.386 74.4844 220.884 72.2429C222.381 70.0013 224.51 68.2542 227.001 67.2226C229.492 66.1909 232.232 65.921 234.876 66.4469C237.52 66.9729 239.949 68.271 241.855 70.1773C243.762 72.0836 245.06 74.5123 245.586 77.1564C246.112 79.8005 245.842 82.5412 244.81 85.0318C243.778 87.5225 242.031 89.6513 239.79 91.1491C237.548 92.6468 234.913 93.4462 232.217 93.4462C228.603 93.4418 225.139 92.0043 222.584 89.449C220.028 86.8938 218.591 83.4293 218.586 79.8156V79.8156Z" fill="#BB8E34"/>
<path d="M243.144 60.127C242.743 60.127 242.357 60.2865 242.073 60.5706C241.789 60.8546 241.63 61.2398 241.63 61.6415C241.63 62.0432 241.789 62.4284 242.073 62.7124C242.357 62.9964 242.743 63.156 243.144 63.156C243.673 63.1159 244.203 63.1831 244.705 63.3536C245.206 63.5242 245.668 63.7945 246.062 64.1483C246.456 64.5021 246.775 64.932 246.998 65.4122C247.222 65.8924 247.345 66.4129 247.362 66.9423C247.362 67.344 247.522 67.7292 247.806 68.0132C248.09 68.2972 248.475 68.4568 248.877 68.4568C249.278 68.4568 249.664 68.2972 249.948 68.0132C250.232 67.7292 250.391 67.344 250.391 66.9423C250.372 66.0162 250.168 65.1032 249.792 64.2568C249.415 63.4104 248.874 62.6476 248.199 62.013C247.524 61.3784 246.729 60.8847 245.862 60.5609C244.994 60.237 244.07 60.0895 243.144 60.127V60.127Z" fill="#BB8E34"/>
<path d="M217.072 66.9423C217.089 66.4129 217.213 65.8924 217.436 65.4122C217.66 64.932 217.978 64.5021 218.372 64.1483C218.766 63.7945 219.228 63.5242 219.73 63.3536C220.231 63.1831 220.762 63.1159 221.29 63.156C221.692 63.156 222.077 62.9964 222.361 62.7124C222.645 62.4284 222.804 62.0432 222.804 61.6415C222.804 61.2398 222.645 60.8546 222.361 60.5706C222.077 60.2865 221.692 60.127 221.29 60.127C220.364 60.0895 219.441 60.237 218.573 60.5609C217.705 60.8847 216.91 61.3784 216.235 62.013C215.561 62.6476 215.019 63.4104 214.643 64.2568C214.266 65.1032 214.062 66.0162 214.043 66.9423C214.043 67.344 214.203 67.7292 214.487 68.0132C214.771 68.2972 215.156 68.4568 215.557 68.4568C215.959 68.4568 216.344 68.2972 216.628 68.0132C216.912 67.7292 217.072 67.344 217.072 66.9423Z" fill="#BB8E34"/>
<path d="M233.732 77.6741V70.7285C233.732 70.3268 233.572 69.9416 233.288 69.6576C233.004 69.3736 232.619 69.214 232.217 69.214C231.815 69.214 231.43 69.3736 231.146 69.6576C230.862 69.9416 230.703 70.3268 230.703 70.7285V78.3011C230.703 78.7027 230.862 79.0879 231.146 79.3718L235.69 83.9154C235.976 84.1912 236.358 84.3439 236.755 84.3404C237.152 84.337 237.532 84.1777 237.813 83.8969C238.094 83.6161 238.253 83.2362 238.257 82.8391C238.26 82.442 238.107 82.0595 237.831 81.7738L233.732 77.6741Z" fill="#BB8E34"/>
</g>
<g filter="url(#filter3_d_249_19836)">
<rect x="85.7266" y="177.533" width="47.2528" height="47.2528" rx="1.83679" fill="#FAFAFA"/>
</g>
<g clip-path="url(#clip3_249_19836)">
<path d="M108.881 182.947C105.3 182.947 101.799 184.009 98.821 185.999C95.8432 187.989 93.5223 190.817 92.1518 194.125C90.7813 197.434 90.4227 201.075 91.1214 204.588C91.8201 208.1 93.5446 211.327 96.077 213.859C98.6094 216.391 101.836 218.116 105.348 218.815C108.861 219.513 112.502 219.155 115.811 217.784C119.119 216.414 121.947 214.093 123.937 211.115C125.927 208.137 126.989 204.636 126.989 201.055C126.984 196.254 125.074 191.651 121.679 188.257C118.285 184.862 113.682 182.952 108.881 182.947V182.947ZM108.881 216.145C105.897 216.145 102.979 215.26 100.498 213.602C98.0162 211.943 96.0821 209.587 94.94 206.829C93.7979 204.072 93.4991 201.038 94.0813 198.111C94.6636 195.184 96.1007 192.495 98.2111 190.385C100.321 188.275 103.01 186.837 105.937 186.255C108.864 185.673 111.898 185.972 114.656 187.114C117.413 188.256 119.77 190.19 121.428 192.672C123.086 195.153 123.971 198.07 123.971 201.055C123.966 205.056 122.375 208.891 119.546 211.72C116.717 214.549 112.882 216.14 108.881 216.145V216.145ZM111.899 201.055C111.901 201.585 111.764 202.107 111.501 202.567C111.237 203.027 110.857 203.41 110.399 203.677C109.941 203.944 109.42 204.085 108.89 204.086C108.359 204.088 107.838 203.95 107.378 203.686C106.918 203.421 106.536 203.041 106.27 202.582C106.004 202.123 105.864 201.602 105.863 201.072C105.863 200.542 106.002 200.02 106.267 199.561C106.532 199.102 106.913 198.72 107.372 198.455V193.51C107.372 193.11 107.531 192.726 107.814 192.443C108.097 192.16 108.481 192.001 108.881 192.001C109.281 192.001 109.665 192.16 109.948 192.443C110.231 192.726 110.39 193.11 110.39 193.51V198.455C110.847 198.718 111.228 199.097 111.492 199.553C111.757 200.009 111.898 200.527 111.899 201.055V201.055Z" fill="#BB8E34"/>
</g>
<path d="M223.5 36.0706L223.665 37.0956H223.721L223.864 36.0376L224.734 32.7093H226.167L224.448 38.0434C224.316 38.4621 224.191 38.8258 224.073 39.1344C223.956 39.4356 223.827 39.6891 223.688 39.8948C223.548 40.1006 223.39 40.2548 223.214 40.3577C223.045 40.4532 222.835 40.501 222.585 40.501C222.387 40.501 222.214 40.4826 222.067 40.4459C221.928 40.4091 221.781 40.3393 221.627 40.2365L221.968 39.0683C222.071 39.1271 222.163 39.1675 222.244 39.1895C222.325 39.2042 222.409 39.2152 222.497 39.2226C222.769 39.2226 222.956 38.9434 223.059 38.385L220.679 32.7093H222.321L223.5 36.0706ZM231.136 33.9877H229.306V40.4238H227.918V33.9877H226.088V32.7093H231.136V33.9877ZM231.804 32.7865C232.069 32.7277 232.359 32.6836 232.675 32.6542C232.991 32.6175 233.307 32.5991 233.622 32.5991C233.96 32.5991 234.291 32.6322 234.614 32.6983C234.945 32.7571 235.239 32.8783 235.496 33.062C235.753 33.2457 235.962 33.5065 236.124 33.8445C236.286 34.1751 236.367 34.6086 236.367 35.1449C236.367 35.6298 236.297 36.0413 236.157 36.3792C236.025 36.7172 235.845 36.9927 235.617 37.2058C235.389 37.4188 235.125 37.5731 234.824 37.6686C234.53 37.7642 234.225 37.8119 233.909 37.8119C233.88 37.8119 233.832 37.8119 233.766 37.8119C233.7 37.8119 233.63 37.8119 233.556 37.8119C233.483 37.8046 233.409 37.7972 233.336 37.7899C233.27 37.7825 233.222 37.7752 233.193 37.7678V40.4238H231.804V32.7865ZM233.193 36.5225C233.237 36.5372 233.318 36.5519 233.435 36.5666C233.56 36.5739 233.644 36.5776 233.689 36.5776C233.85 36.5776 234.004 36.5556 234.151 36.5115C234.298 36.4674 234.427 36.3939 234.537 36.2911C234.655 36.1809 234.747 36.0339 234.813 35.8502C234.879 35.6592 234.912 35.4204 234.912 35.1339C234.912 34.8914 234.879 34.6857 234.813 34.5167C234.754 34.3477 234.669 34.2155 234.559 34.12C234.456 34.0171 234.335 33.9436 234.196 33.8996C234.056 33.8555 233.909 33.8334 233.755 33.8334C233.527 33.8334 233.34 33.8518 233.193 33.8885V36.5225ZM236.882 36.5666C236.882 35.2588 237.106 34.2632 237.554 33.58C238.002 32.8967 238.686 32.555 239.604 32.555C240.081 32.555 240.493 32.6505 240.838 32.8416C241.184 33.0253 241.466 33.2934 241.687 33.6461C241.907 33.9914 242.069 34.4139 242.172 34.9135C242.282 35.4057 242.337 35.9568 242.337 36.5666C242.337 37.8744 242.106 38.8699 241.643 39.5532C241.187 40.2365 240.508 40.5781 239.604 40.5781C239.119 40.5781 238.704 40.4863 238.359 40.3026C238.021 40.1116 237.741 39.8434 237.521 39.4981C237.301 39.1454 237.139 38.723 237.036 38.2307C236.933 37.7311 236.882 37.1764 236.882 36.5666ZM238.337 36.5666C238.337 36.956 238.359 37.3197 238.403 37.6576C238.447 37.9882 238.52 38.2748 238.623 38.5172C238.726 38.7597 238.855 38.9507 239.009 39.0903C239.17 39.2299 239.369 39.2997 239.604 39.2997C240.03 39.2997 240.35 39.083 240.563 38.6495C240.776 38.216 240.882 37.5217 240.882 36.5666C240.882 36.1919 240.86 35.8392 240.816 35.5086C240.772 35.1706 240.699 34.8804 240.596 34.638C240.5 34.3881 240.372 34.1934 240.21 34.0539C240.048 33.9069 239.846 33.8334 239.604 33.8334C238.759 33.8334 238.337 34.7445 238.337 36.5666Z" fill="#BB8E34"/>
<path d="M212.034 19.3002H214.561V16.4397H216.716V19.3002H219.244V21.377H216.716V24.2571H214.561V21.377H212.034V19.3002ZM228.028 16.5769C228.028 17.2561 227.93 17.9549 227.734 18.6732C227.538 19.3786 227.283 20.0708 226.97 20.75C226.669 21.4292 226.336 22.0758 225.97 22.6897C225.605 23.3036 225.245 23.8456 224.893 24.3158L224.031 25.1191V25.2171L225.206 24.9232H228.243V27H221.366V25.6481C221.64 25.3085 221.934 24.9232 222.248 24.4922C222.574 24.0481 222.894 23.5844 223.208 23.1011C223.534 22.6048 223.848 22.0954 224.148 21.5729C224.449 21.0374 224.71 20.5084 224.932 19.9859C225.167 19.4504 225.35 18.9279 225.481 18.4185C225.624 17.9091 225.683 17.4324 225.657 16.9883C225.683 16.4397 225.565 15.9956 225.304 15.656C225.043 15.3164 224.632 15.1466 224.07 15.1466C223.743 15.1466 223.41 15.225 223.071 15.3817C222.731 15.5254 222.444 15.7017 222.209 15.9107L221.307 14.2062C221.738 13.8405 222.228 13.5531 222.777 13.3441C223.325 13.1221 223.972 13.011 224.716 13.011C225.187 13.011 225.624 13.0894 226.029 13.2461C226.434 13.3898 226.78 13.6119 227.068 13.9123C227.368 14.2127 227.603 14.585 227.773 15.0291C227.943 15.4731 228.028 15.9891 228.028 16.5769ZM233.583 25.1975C234.223 25.1975 234.706 24.982 235.033 24.551C235.372 24.1199 235.542 23.5713 235.542 22.9052C235.542 21.4292 234.811 20.6913 233.348 20.6913H232.192V19.359L234.131 16.0675L235.072 15.1858L233.779 15.3621H231.095V13.2853H237.364V14.6764L235.091 18.3794L234.366 18.9083V19.0063L235.091 18.8888C235.457 18.9149 235.81 19.0128 236.149 19.1826C236.489 19.3524 236.783 19.5941 237.031 19.9076C237.292 20.221 237.495 20.6129 237.638 21.0831C237.795 21.5533 237.873 22.1084 237.873 22.7485C237.873 23.5191 237.762 24.1852 237.54 24.7469C237.331 25.3085 237.038 25.7787 236.659 26.1575C236.293 26.5363 235.855 26.8171 235.346 27C234.85 27.1829 234.314 27.2743 233.739 27.2743C233.256 27.2743 232.747 27.222 232.211 27.1176C231.676 27.0131 231.251 26.8629 230.938 26.6669L231.565 24.7077C231.839 24.8514 232.139 24.9689 232.466 25.0604C232.793 25.1518 233.165 25.1975 233.583 25.1975ZM251.782 26.4514C251.442 26.7388 250.985 26.9478 250.411 27.0784C249.849 27.209 249.287 27.2743 248.726 27.2743C248.02 27.2743 247.361 27.1567 246.747 26.9216C246.146 26.6735 245.617 26.2686 245.16 25.7069C244.703 25.1453 244.344 24.4073 244.082 23.493C243.821 22.5787 243.69 21.4554 243.69 20.1231C243.69 18.7385 243.834 17.5891 244.121 16.6748C244.422 15.7605 244.807 15.0356 245.277 14.5001C245.761 13.9515 246.309 13.5662 246.923 13.3441C247.537 13.1221 248.157 13.011 248.784 13.011C249.424 13.011 249.98 13.0633 250.45 13.1678C250.933 13.2723 251.325 13.3898 251.625 13.5204L251.136 15.6952C250.887 15.5646 250.593 15.4666 250.254 15.4013C249.927 15.3229 249.535 15.2838 249.078 15.2838C248.177 15.2838 247.485 15.6756 247.002 16.4593C246.518 17.243 246.277 18.4708 246.277 20.1427C246.277 20.8611 246.329 21.5207 246.433 22.1215C246.551 22.7093 246.727 23.2187 246.962 23.6497C247.211 24.0807 247.517 24.4138 247.883 24.6489C248.262 24.884 248.713 25.0016 249.235 25.0016C249.692 25.0016 250.084 24.9428 250.411 24.8252C250.737 24.6946 251.031 24.5444 251.292 24.3746L251.782 26.4514Z" fill="#666666"/>
<circle cx="242.711" cy="11.295" r="1.68372" fill="#666666"/>
<path d="M54.3957 187.314H52.2908V190.576H50.9022V182.862H52.2908V186.036H54.3957V182.862H55.7844V190.576H54.3957V187.314ZM56.6903 186.719C56.6903 185.411 56.9144 184.416 57.3626 183.732C57.8107 183.049 58.494 182.707 59.4124 182.707C59.89 182.707 60.3014 182.803 60.6467 182.994C60.9921 183.178 61.2749 183.446 61.4953 183.798C61.7157 184.144 61.8774 184.566 61.9802 185.066C62.0904 185.558 62.1456 186.109 62.1456 186.719C62.1456 188.027 61.9141 189.022 61.4512 189.706C60.9957 190.389 60.3161 190.73 59.4124 190.73C58.9275 190.73 58.5124 190.639 58.1671 190.455C57.8291 190.264 57.5499 189.996 57.3295 189.65C57.1091 189.298 56.9474 188.875 56.8446 188.383C56.7417 187.883 56.6903 187.329 56.6903 186.719ZM58.145 186.719C58.145 187.108 58.1671 187.472 58.2112 187.81C58.2552 188.141 58.3287 188.427 58.4316 188.67C58.5344 188.912 58.663 189.103 58.8173 189.243C58.9789 189.382 59.1773 189.452 59.4124 189.452C59.8385 189.452 60.1581 189.235 60.3712 188.802C60.5843 188.368 60.6908 187.674 60.6908 186.719C60.6908 186.344 60.6688 185.992 60.6247 185.661C60.5806 185.323 60.5071 185.033 60.4043 184.79C60.3088 184.54 60.1802 184.346 60.0186 184.206C59.8569 184.059 59.6549 183.986 59.4124 183.986C58.5675 183.986 58.145 184.897 58.145 186.719ZM64.3137 182.862V185.396C64.3137 185.852 64.3798 186.179 64.5121 186.377C64.6443 186.568 64.8611 186.664 65.1623 186.664C65.3754 186.664 65.5737 186.631 65.7574 186.565C65.9484 186.499 66.0991 186.403 66.2093 186.278V182.862H67.5979V190.576H66.2093V187.468C66.0623 187.571 65.8566 187.67 65.5921 187.766C65.335 187.854 65.0301 187.898 64.6774 187.898C64.4349 187.898 64.2072 187.865 63.9941 187.799C63.781 187.725 63.5937 187.612 63.432 187.457C63.2778 187.296 63.1529 187.086 63.0573 186.829C62.9692 186.565 62.9251 186.238 62.9251 185.848V182.862H64.3137ZM68.6771 182.862H70.0657V185.639C70.1098 185.632 70.1649 185.621 70.2311 185.606C70.3045 185.591 70.3817 185.58 70.4625 185.573C70.5433 185.565 70.6278 185.558 70.716 185.551C70.8041 185.543 70.8813 185.54 70.9474 185.54C71.256 185.54 71.5462 185.576 71.818 185.65C72.0972 185.723 72.3397 185.852 72.5454 186.036C72.7511 186.219 72.9128 186.473 73.0303 186.796C73.1552 187.112 73.2177 187.516 73.2177 188.008C73.2177 188.89 73.0046 189.559 72.5785 190.014C72.1523 190.462 71.4801 190.686 70.5617 190.686C70.4809 190.686 70.3633 190.683 70.209 190.675C70.0621 190.675 69.9004 190.668 69.7241 190.653C69.5478 190.646 69.3678 190.628 69.1841 190.598C69.0004 190.576 68.8314 190.547 68.6771 190.51V182.862ZM70.0657 189.342C70.1319 189.364 70.2164 189.382 70.3192 189.397C70.4294 189.404 70.536 189.408 70.6388 189.408C70.9841 189.408 71.256 189.309 71.4544 189.11C71.6601 188.912 71.7629 188.567 71.7629 188.074C71.7629 187.817 71.7335 187.608 71.6748 187.446C71.616 187.277 71.5352 187.149 71.4323 187.061C71.3368 186.965 71.2192 186.903 71.0797 186.873C70.9474 186.836 70.8005 186.818 70.6388 186.818C70.558 186.818 70.4515 186.829 70.3192 186.851C70.1943 186.873 70.1098 186.895 70.0657 186.917V189.342Z" fill="#BB8E34"/>
<path d="M32.7445 203.574H35.2719V200.713H37.4271V203.574H39.9545V205.65H37.4271V208.531H35.2719V205.65H32.7445V203.574ZM42.5669 209.197H44.8004V201.497L45.0551 200.165L44.2518 201.321L42.9587 202.32L41.8811 201.007L45.6625 197.324H47.0339V209.197H49.2283V211.273H42.5669V209.197ZM51.3548 207.982C51.3548 207.512 51.4071 207.094 51.5116 206.728C51.6161 206.349 51.7597 206.016 51.9426 205.729C52.1255 205.428 52.3279 205.161 52.55 204.926C52.7851 204.69 53.0332 204.475 53.2945 204.279C52.7851 203.874 52.3802 203.41 52.0797 202.888C51.7924 202.352 51.6487 201.693 51.6487 200.909C51.6487 199.799 51.9557 198.917 52.5696 198.264C53.1965 197.611 54.052 197.284 55.1362 197.284C56.1288 197.284 56.9321 197.572 57.546 198.147C58.1599 198.721 58.4669 199.538 58.4669 200.596C58.4669 201.366 58.3232 202.019 58.0358 202.555C57.7485 203.09 57.337 203.587 56.8015 204.044C57.4546 204.501 57.9444 205.017 58.2709 205.592C58.5975 206.166 58.7607 206.891 58.7607 207.766C58.7607 208.354 58.6628 208.883 58.4669 209.353C58.284 209.824 58.0228 210.222 57.6832 210.549C57.3566 210.875 56.9648 211.123 56.5076 211.293C56.0505 211.463 55.5541 211.548 55.0186 211.548C54.47 211.548 53.9737 211.463 53.5296 211.293C53.0855 211.136 52.7002 210.908 52.3736 210.607C52.0471 210.307 51.7924 209.935 51.6095 209.491C51.4397 209.046 51.3548 208.544 51.3548 207.982ZM56.5076 207.766C56.5076 207.44 56.4554 207.146 56.3509 206.885C56.2464 206.624 56.1027 206.395 55.9198 206.199C55.75 205.99 55.5541 205.801 55.3321 205.631C55.1231 205.461 54.9141 205.298 54.7051 205.141C54.248 205.494 53.928 205.879 53.7451 206.297C53.5753 206.702 53.4904 207.113 53.4904 207.531C53.4904 208.08 53.6275 208.544 53.9018 208.922C54.1761 209.288 54.5614 209.471 55.0578 209.471C55.5019 209.471 55.8545 209.334 56.1158 209.059C56.377 208.772 56.5076 208.341 56.5076 207.766ZM53.8822 200.948C53.8822 201.249 53.9214 201.516 53.9998 201.752C54.0912 201.974 54.2088 202.176 54.3525 202.359C54.4961 202.542 54.6594 202.712 54.8423 202.868C55.0382 203.012 55.2406 203.149 55.4496 203.28C55.75 202.927 55.9721 202.581 56.1158 202.241C56.2725 201.889 56.3509 201.49 56.3509 201.046C56.3509 200.511 56.2268 200.099 55.9786 199.812C55.7435 199.511 55.4562 199.361 55.1166 199.361C54.6855 199.361 54.372 199.525 54.1761 199.851C53.9802 200.165 53.8822 200.53 53.8822 200.948ZM72.493 210.725C72.1534 211.012 71.6963 211.221 71.1215 211.352C70.5599 211.482 69.9982 211.548 69.4366 211.548C68.7313 211.548 68.0717 211.43 67.4578 211.195C66.8569 210.947 66.3279 210.542 65.8708 209.98C65.4136 209.419 65.0544 208.681 64.7932 207.766C64.532 206.852 64.4014 205.729 64.4014 204.397C64.4014 203.012 64.545 201.863 64.8324 200.948C65.1328 200.034 65.5181 199.309 65.9883 198.773C66.4716 198.225 67.0202 197.84 67.6341 197.618C68.248 197.396 68.8684 197.284 69.4954 197.284C70.1354 197.284 70.6905 197.337 71.1607 197.441C71.644 197.546 72.0359 197.663 72.3363 197.794L71.8465 199.969C71.5983 199.838 71.3044 199.74 70.9648 199.675C70.6383 199.596 70.2464 199.557 69.7893 199.557C68.888 199.557 68.1957 199.949 67.7125 200.733C67.2292 201.516 66.9876 202.744 66.9876 204.416C66.9876 205.134 67.0398 205.794 67.1443 206.395C67.2618 206.983 67.4382 207.492 67.6733 207.923C67.9215 208.354 68.2284 208.687 68.5941 208.922C68.9729 209.157 69.4235 209.275 69.946 209.275C70.4032 209.275 70.795 209.216 71.1215 209.099C71.4481 208.968 71.742 208.818 72.0032 208.648L72.493 210.725Z" fill="#666666"/>
<circle cx="63.379" cy="195.568" r="1.68372" fill="#666666"/>
<path d="M394.476 181.763H392.47V188.199H391.082V180.485H395.865V188.199H394.476V181.763ZM396.773 184.342C396.773 183.034 396.997 182.039 397.445 181.355C397.894 180.672 398.577 180.33 399.495 180.33C399.973 180.33 400.384 180.426 400.73 180.617C401.075 180.801 401.358 181.069 401.578 181.421C401.799 181.767 401.96 182.189 402.063 182.689C402.173 183.181 402.228 183.732 402.228 184.342C402.228 185.65 401.997 186.645 401.534 187.329C401.079 188.012 400.399 188.354 399.495 188.354C399.01 188.354 398.595 188.262 398.25 188.078C397.912 187.887 397.633 187.619 397.412 187.273C397.192 186.921 397.03 186.498 396.927 186.006C396.825 185.506 396.773 184.952 396.773 184.342ZM398.228 184.342C398.228 184.731 398.25 185.095 398.294 185.433C398.338 185.764 398.412 186.05 398.514 186.293C398.617 186.535 398.746 186.726 398.9 186.866C399.062 187.005 399.26 187.075 399.495 187.075C399.921 187.075 400.241 186.858 400.454 186.425C400.667 185.991 400.774 185.297 400.774 184.342C400.774 183.967 400.752 183.615 400.708 183.284C400.663 182.946 400.59 182.656 400.487 182.413C400.392 182.164 400.263 181.969 400.101 181.829C399.94 181.682 399.738 181.609 399.495 181.609C398.65 181.609 398.228 182.52 398.228 184.342ZM404.815 184.893H404.518V188.199H403.129V180.485H404.518V183.912L404.793 183.78L406.413 180.485H407.978L406.215 183.736L405.697 184.144L406.226 184.562L408.265 188.199H406.568L404.815 184.893ZM411.89 186.458H410.071L409.619 188.199H408.242L410.479 180.43H411.57L413.818 188.199H412.363L411.89 186.458ZM410.369 185.312H411.647L411.206 183.515L411.03 182.303H410.986L410.799 183.526L410.369 185.312ZM394.575 196.937H392.47V200.199H391.082V192.485H392.47V195.659H394.575V192.485H395.964V200.199H394.575V196.937ZM400.165 198.458H398.347L397.895 200.199H396.517L398.755 192.43H399.846L402.094 200.199H400.639L400.165 198.458ZM398.644 197.312H399.923L399.482 195.515L399.306 194.303H399.261L399.074 195.526L398.644 197.312ZM404.595 192.562C404.859 192.503 405.15 192.459 405.466 192.43C405.781 192.393 406.097 192.375 406.413 192.375C406.751 192.375 407.082 192.408 407.405 192.474C407.736 192.532 408.03 192.654 408.287 192.837C408.544 193.021 408.753 193.282 408.915 193.62C409.077 193.95 409.157 194.384 409.157 194.92C409.157 195.405 409.088 195.817 408.948 196.155C408.816 196.493 408.636 196.768 408.408 196.981C408.18 197.194 407.916 197.349 407.615 197.444C407.321 197.54 407.016 197.587 406.7 197.587C406.67 197.587 406.623 197.587 406.557 197.587C406.49 197.587 406.421 197.587 406.347 197.587C406.274 197.58 406.2 197.573 406.127 197.565C406.061 197.558 406.013 197.551 405.984 197.543V200.199H404.595V192.562ZM405.984 196.298C406.028 196.313 406.108 196.327 406.226 196.342C406.351 196.349 406.435 196.353 406.479 196.353C406.641 196.353 406.795 196.331 406.942 196.287C407.089 196.243 407.218 196.169 407.328 196.066C407.446 195.956 407.537 195.809 407.604 195.626C407.67 195.435 407.703 195.196 407.703 194.909C407.703 194.667 407.67 194.461 407.604 194.292C407.545 194.123 407.46 193.991 407.35 193.895C407.247 193.793 407.126 193.719 406.986 193.675C406.847 193.631 406.7 193.609 406.546 193.609C406.318 193.609 406.13 193.627 405.984 193.664V196.298ZM412.333 198.458H410.514L410.063 200.199H408.685L410.922 192.43H412.013L414.262 200.199H412.807L412.333 198.458ZM410.812 197.312H412.09L411.65 195.515L411.473 194.303H411.429L411.242 195.526L410.812 197.312ZM414.823 192.485H418.868V193.763H416.212V195.438C416.322 195.416 416.454 195.394 416.609 195.372C416.763 195.35 416.914 195.339 417.061 195.339C417.413 195.339 417.729 195.383 418.008 195.471C418.288 195.552 418.526 195.688 418.725 195.879C418.923 196.063 419.074 196.305 419.177 196.606C419.287 196.908 419.342 197.275 419.342 197.709C419.342 198.575 419.125 199.226 418.692 199.659C418.258 200.093 417.615 200.309 416.763 200.309C416.66 200.309 416.528 200.306 416.366 200.298C416.205 200.291 416.032 200.28 415.848 200.265C415.665 200.258 415.481 200.243 415.297 200.221C415.121 200.199 414.963 200.17 414.823 200.133V192.485ZM416.862 199.075C417.171 199.075 417.417 198.98 417.601 198.789C417.792 198.598 417.887 198.274 417.887 197.819C417.887 197.547 417.858 197.33 417.799 197.169C417.74 197.007 417.659 196.882 417.556 196.794C417.461 196.706 417.343 196.647 417.204 196.617C417.072 196.588 416.925 196.573 416.763 196.573C416.682 196.573 416.579 196.584 416.454 196.606C416.337 196.621 416.256 196.636 416.212 196.651V199.02C416.278 199.035 416.374 199.049 416.498 199.064C416.623 199.071 416.745 199.075 416.862 199.075ZM419.976 196.342C419.976 195.034 420.201 194.039 420.649 193.355C421.097 192.672 421.78 192.33 422.699 192.33C423.176 192.33 423.588 192.426 423.933 192.617C424.278 192.801 424.561 193.069 424.781 193.421C425.002 193.767 425.164 194.189 425.266 194.689C425.377 195.181 425.432 195.732 425.432 196.342C425.432 197.65 425.2 198.645 424.737 199.329C424.282 200.012 423.602 200.354 422.699 200.354C422.214 200.354 421.799 200.262 421.453 200.078C421.115 199.887 420.836 199.619 420.616 199.273C420.395 198.921 420.234 198.498 420.131 198.006C420.028 197.506 419.976 196.952 419.976 196.342ZM421.431 196.342C421.431 196.731 421.453 197.095 421.497 197.433C421.541 197.764 421.615 198.05 421.718 198.293C421.821 198.535 421.949 198.726 422.103 198.866C422.265 199.005 422.463 199.075 422.699 199.075C423.125 199.075 423.444 198.858 423.657 198.425C423.87 197.991 423.977 197.297 423.977 196.342C423.977 195.967 423.955 195.615 423.911 195.284C423.867 194.946 423.793 194.656 423.69 194.413C423.595 194.164 423.466 193.969 423.305 193.829C423.143 193.682 422.941 193.609 422.699 193.609C421.854 193.609 421.431 194.52 421.431 196.342ZM430.639 193.763H428.809V200.199H427.421V193.763H425.591V192.485H430.639V193.763ZM431.307 192.485H435.164V193.763H432.695V195.659H434.933V196.937H432.695V198.921H435.208V200.199H431.307V192.485Z" fill="#BB8E34"/>
<path d="M391.33 213.437H393.858V210.576H396.013V213.437H398.54V215.514H396.013V218.394H393.858V215.514H391.33V213.437ZM401.153 219.06H403.386V211.36L403.641 210.028L402.838 211.184L401.545 212.183L400.467 210.87L404.248 207.187H405.62V219.06H407.814V221.137H401.153V219.06ZM417.543 216.885C417.543 217.577 417.445 218.204 417.249 218.766C417.066 219.328 416.805 219.804 416.465 220.196C416.138 220.588 415.74 220.889 415.27 221.098C414.813 221.307 414.31 221.411 413.761 221.411C413.187 221.411 412.658 221.313 412.174 221.117C411.691 220.908 411.273 220.595 410.92 220.177C410.568 219.759 410.293 219.223 410.097 218.57C409.902 217.904 409.804 217.12 409.804 216.219C409.804 214.887 409.96 213.698 410.274 212.653C410.6 211.595 411.031 210.687 411.567 209.93C412.116 209.172 412.736 208.565 413.428 208.108C414.134 207.638 414.872 207.318 415.642 207.148L416.23 209.048C415.721 209.179 415.244 209.388 414.8 209.675C414.356 209.963 413.957 210.309 413.605 210.714C413.252 211.118 412.951 211.582 412.703 212.105C412.468 212.614 412.292 213.156 412.174 213.731C412.396 213.417 412.677 213.163 413.017 212.967C413.356 212.771 413.774 212.673 414.271 212.673C414.741 212.673 415.172 212.758 415.564 212.928C415.969 213.097 416.315 213.359 416.602 213.711C416.903 214.064 417.131 214.508 417.288 215.043C417.458 215.566 417.543 216.18 417.543 216.885ZM415.289 217.022C415.289 216.226 415.152 215.651 414.878 215.298C414.617 214.932 414.212 214.75 413.663 214.75C413.271 214.75 412.938 214.861 412.664 215.083C412.39 215.305 412.194 215.566 412.076 215.866C412.063 216.01 412.057 216.16 412.057 216.317C412.057 216.461 412.057 216.604 412.057 216.748C412.057 217.088 412.089 217.414 412.155 217.728C412.22 218.028 412.318 218.302 412.449 218.551C412.592 218.786 412.762 218.975 412.958 219.119C413.167 219.262 413.415 219.334 413.702 219.334C414.173 219.334 414.552 219.138 414.839 218.746C415.139 218.342 415.289 217.767 415.289 217.022ZM431.079 220.588C430.739 220.875 430.282 221.084 429.707 221.215C429.146 221.346 428.584 221.411 428.023 221.411C427.317 221.411 426.658 221.293 426.044 221.058C425.443 220.81 424.914 220.405 424.457 219.844C424 219.282 423.64 218.544 423.379 217.63C423.118 216.715 422.987 215.592 422.987 214.26C422.987 212.875 423.131 211.726 423.418 210.812C423.719 209.897 424.104 209.172 424.574 208.637C425.058 208.088 425.606 207.703 426.22 207.481C426.834 207.259 427.454 207.148 428.081 207.148C428.721 207.148 429.276 207.2 429.747 207.304C430.23 207.409 430.622 207.527 430.922 207.657L430.432 209.832C430.184 209.701 429.89 209.603 429.551 209.538C429.224 209.46 428.832 209.42 428.375 209.42C427.474 209.42 426.782 209.812 426.298 210.596C425.815 211.38 425.573 212.608 425.573 214.279C425.573 214.998 425.626 215.657 425.73 216.258C425.848 216.846 426.024 217.355 426.259 217.786C426.507 218.217 426.814 218.551 427.18 218.786C427.559 219.021 428.009 219.138 428.532 219.138C428.989 219.138 429.381 219.08 429.707 218.962C430.034 218.831 430.328 218.681 430.589 218.511L431.079 220.588Z" fill="#666666"/>
<circle cx="421.965" cy="205.432" r="1.68372" fill="#666666"/>
<path d="M200.2 365.828V364.704H200.465C200.575 364.704 200.711 364.7 200.873 364.693C201.034 364.685 201.163 364.663 201.258 364.627C201.457 364.568 201.626 364.458 201.765 364.296C201.905 364.134 201.975 363.925 201.975 363.668C201.975 363.308 201.886 363.058 201.71 362.918C201.541 362.779 201.302 362.709 200.994 362.709C200.744 362.709 200.509 362.749 200.288 362.83C200.075 362.904 199.906 362.981 199.782 363.062L199.429 361.86C199.502 361.816 199.605 361.769 199.737 361.717C199.87 361.666 200.017 361.618 200.178 361.574C200.347 361.53 200.524 361.497 200.707 361.475C200.898 361.445 201.089 361.431 201.28 361.431C201.56 361.431 201.828 361.46 202.085 361.519C202.349 361.57 202.581 361.669 202.779 361.816C202.978 361.956 203.135 362.151 203.253 362.4C203.371 362.65 203.429 362.97 203.429 363.359C203.429 363.734 203.349 364.083 203.187 364.406C203.033 364.729 202.779 364.968 202.427 365.123V365.189C202.809 365.292 203.102 365.497 203.308 365.806C203.521 366.114 203.628 366.533 203.628 367.062C203.628 367.481 203.558 367.841 203.418 368.142C203.286 368.443 203.102 368.69 202.867 368.881C202.64 369.072 202.375 369.211 202.074 369.299C201.773 369.388 201.46 369.432 201.137 369.432C200.74 369.432 200.377 369.395 200.046 369.321C199.715 369.255 199.451 369.163 199.253 369.046L199.616 367.812C199.756 367.892 199.947 367.97 200.189 368.043C200.439 368.116 200.729 368.153 201.06 368.153C201.361 368.153 201.622 368.058 201.842 367.867C202.063 367.668 202.173 367.36 202.173 366.941C202.173 366.581 202.07 366.313 201.864 366.136C201.666 365.953 201.313 365.854 200.806 365.839C200.726 365.839 200.671 365.839 200.641 365.839C200.612 365.832 200.549 365.828 200.454 365.828H200.2ZM207.613 367.536H205.794L205.342 369.277H203.965L206.202 361.508H207.293L209.541 369.277H208.086L207.613 367.536ZM206.092 366.39H207.37L206.929 364.594L206.753 363.381H206.709L206.521 364.605L206.092 366.39ZM212.505 368.109H213.761V363.778L213.905 363.029L213.453 363.679L212.726 364.241L212.119 363.502L214.246 361.431H215.018V368.109H216.252V369.277H212.505V368.109ZM217.393 365.486H219.686V366.743H217.393V365.486ZM224.698 363.414C224.698 363.796 224.643 364.189 224.533 364.594C224.423 364.99 224.28 365.38 224.103 365.762C223.934 366.144 223.747 366.507 223.541 366.853C223.335 367.198 223.133 367.503 222.935 367.768L222.45 368.219V368.274L223.111 368.109H224.82V369.277H220.951V368.517C221.106 368.326 221.271 368.109 221.447 367.867C221.631 367.617 221.811 367.356 221.987 367.084C222.171 366.805 222.347 366.518 222.516 366.225C222.685 365.923 222.832 365.626 222.957 365.332C223.089 365.031 223.192 364.737 223.266 364.45C223.346 364.164 223.38 363.896 223.365 363.646C223.38 363.337 223.313 363.087 223.166 362.896C223.02 362.705 222.788 362.61 222.472 362.61C222.288 362.61 222.101 362.654 221.91 362.742C221.719 362.823 221.557 362.922 221.425 363.04L220.918 362.081C221.161 361.875 221.436 361.713 221.745 361.596C222.053 361.471 222.417 361.409 222.836 361.409C223.1 361.409 223.346 361.453 223.574 361.541C223.802 361.622 223.997 361.747 224.158 361.916C224.327 362.084 224.46 362.294 224.555 362.544C224.651 362.793 224.698 363.084 224.698 363.414ZM229.731 361.563V364.098C229.731 364.553 229.797 364.88 229.929 365.078C230.061 365.269 230.278 365.365 230.579 365.365C230.792 365.365 230.991 365.332 231.174 365.266C231.365 365.2 231.516 365.104 231.626 364.979V361.563H233.015V369.277H231.626V366.17C231.479 366.272 231.273 366.372 231.009 366.467C230.752 366.555 230.447 366.599 230.094 366.599C229.852 366.599 229.624 366.566 229.411 366.5C229.198 366.427 229.011 366.313 228.849 366.158C228.695 365.997 228.57 365.787 228.474 365.53C228.386 365.266 228.342 364.939 228.342 364.549V361.563H229.731ZM237.213 367.536H235.394L234.943 369.277H233.565L235.802 361.508H236.893L239.142 369.277H237.687L237.213 367.536ZM235.692 366.39H236.97L236.53 364.594L236.353 363.381H236.309L236.122 364.605L235.692 366.39ZM243.788 368.969C243.597 369.13 243.34 369.248 243.016 369.321C242.701 369.395 242.385 369.432 242.069 369.432C241.672 369.432 241.301 369.366 240.956 369.233C240.618 369.094 240.32 368.866 240.063 368.55C239.806 368.234 239.604 367.819 239.457 367.305C239.31 366.79 239.236 366.158 239.236 365.409C239.236 364.63 239.317 363.984 239.479 363.469C239.648 362.955 239.865 362.547 240.129 362.246C240.401 361.938 240.709 361.721 241.055 361.596C241.4 361.471 241.749 361.409 242.102 361.409C242.462 361.409 242.774 361.438 243.039 361.497C243.31 361.555 243.531 361.622 243.7 361.695L243.424 362.918C243.285 362.845 243.119 362.79 242.928 362.753C242.745 362.709 242.524 362.687 242.267 362.687C241.76 362.687 241.371 362.907 241.099 363.348C240.827 363.789 240.691 364.48 240.691 365.42C240.691 365.824 240.721 366.195 240.779 366.533C240.845 366.864 240.945 367.15 241.077 367.393C241.216 367.635 241.389 367.823 241.595 367.955C241.808 368.087 242.061 368.153 242.355 368.153C242.612 368.153 242.833 368.12 243.016 368.054C243.2 367.981 243.365 367.896 243.512 367.801L243.788 368.969ZM247.237 367.536H245.418L244.967 369.277H243.589L245.826 361.508H246.917L249.165 369.277H247.711L247.237 367.536ZM245.716 366.39H246.994L246.554 364.594L246.377 363.381H246.333L246.146 364.605L245.716 366.39ZM257.278 370.655H256.297L256.165 369.277H252.198L252.065 370.655H251.085V367.999H251.757C251.801 367.918 251.867 367.734 251.955 367.448C252.051 367.161 252.146 366.757 252.242 366.236C252.337 365.714 252.414 365.067 252.473 364.296C252.539 363.525 252.569 362.613 252.561 361.563H256.485V367.999H257.278V370.655ZM255.096 367.999V362.841H253.873C253.836 364.142 253.748 365.233 253.608 366.114C253.476 366.996 253.34 367.624 253.2 367.999H255.096ZM257.67 365.42C257.67 364.112 257.894 363.117 258.342 362.433C258.79 361.75 259.474 361.409 260.392 361.409C260.87 361.409 261.281 361.504 261.626 361.695C261.972 361.879 262.255 362.147 262.475 362.5C262.695 362.845 262.857 363.267 262.96 363.767C263.07 364.259 263.125 364.81 263.125 365.42C263.125 366.728 262.894 367.723 262.431 368.407C261.975 369.09 261.296 369.432 260.392 369.432C259.907 369.432 259.492 369.34 259.147 369.156C258.809 368.965 258.53 368.697 258.309 368.352C258.089 367.999 257.927 367.576 257.824 367.084C257.721 366.585 257.67 366.03 257.67 365.42ZM259.125 365.42C259.125 365.809 259.147 366.173 259.191 366.511C259.235 366.842 259.308 367.128 259.411 367.371C259.514 367.613 259.643 367.804 259.797 367.944C259.959 368.083 260.157 368.153 260.392 368.153C260.818 368.153 261.138 367.936 261.351 367.503C261.564 367.07 261.67 366.375 261.67 365.42C261.67 365.045 261.648 364.693 261.604 364.362C261.56 364.024 261.487 363.734 261.384 363.491C261.288 363.242 261.16 363.047 260.998 362.907C260.837 362.76 260.634 362.687 260.392 362.687C259.547 362.687 259.125 363.598 259.125 365.42ZM188.638 375.348C188.638 375.539 188.616 375.73 188.571 375.921C188.535 376.105 188.472 376.281 188.384 376.45C188.296 376.612 188.178 376.755 188.031 376.88C187.892 377.005 187.723 377.1 187.524 377.167V377.233C187.701 377.277 187.866 377.343 188.02 377.431C188.182 377.519 188.322 377.641 188.439 377.795C188.557 377.942 188.649 378.125 188.715 378.346C188.788 378.559 188.825 378.812 188.825 379.106C188.825 379.503 188.755 379.848 188.616 380.142C188.483 380.429 188.3 380.664 188.064 380.848C187.837 381.031 187.569 381.167 187.26 381.255C186.951 381.343 186.624 381.388 186.279 381.388C186.176 381.388 186.044 381.388 185.882 381.388C185.721 381.388 185.544 381.38 185.353 381.366C185.17 381.358 184.979 381.343 184.78 381.321C184.582 381.299 184.398 381.266 184.229 381.222V373.618C184.472 373.574 184.769 373.537 185.122 373.508C185.482 373.471 185.838 373.453 186.191 373.453C186.514 373.453 186.823 373.478 187.117 373.53C187.418 373.581 187.679 373.677 187.899 373.816C188.127 373.956 188.307 374.151 188.439 374.4C188.571 374.643 188.638 374.959 188.638 375.348ZM186.312 380.186C186.621 380.186 186.874 380.087 187.073 379.889C187.271 379.69 187.37 379.4 187.37 379.018C187.37 378.776 187.337 378.585 187.271 378.445C187.205 378.298 187.117 378.188 187.006 378.114C186.896 378.034 186.768 377.982 186.621 377.96C186.481 377.938 186.334 377.927 186.18 377.927H185.618V380.12C185.677 380.142 185.776 380.161 185.915 380.175C186.062 380.183 186.195 380.186 186.312 380.186ZM185.937 376.836C186.018 376.836 186.11 376.832 186.213 376.825C186.323 376.81 186.411 376.796 186.477 376.781C186.691 376.7 186.871 376.568 187.018 376.384C187.172 376.2 187.249 375.962 187.249 375.668C187.249 375.477 187.223 375.315 187.172 375.183C187.12 375.051 187.051 374.948 186.962 374.874C186.874 374.793 186.768 374.738 186.643 374.709C186.525 374.672 186.397 374.654 186.257 374.654C185.956 374.654 185.743 374.669 185.618 374.698V376.836H185.937ZM189.544 377.42C189.544 376.112 189.768 375.117 190.216 374.433C190.664 373.75 191.348 373.409 192.266 373.409C192.744 373.409 193.155 373.504 193.5 373.695C193.846 373.879 194.128 374.147 194.349 374.5C194.569 374.845 194.731 375.267 194.834 375.767C194.944 376.259 194.999 376.81 194.999 377.42C194.999 378.728 194.768 379.723 194.305 380.407C193.849 381.09 193.17 381.432 192.266 381.432C191.781 381.432 191.366 381.34 191.021 381.156C190.683 380.965 190.403 380.697 190.183 380.352C189.963 379.999 189.801 379.576 189.698 379.084C189.595 378.585 189.544 378.03 189.544 377.42ZM190.999 377.42C190.999 377.809 191.021 378.173 191.065 378.511C191.109 378.842 191.182 379.128 191.285 379.371C191.388 379.613 191.517 379.804 191.671 379.944C191.832 380.083 192.031 380.153 192.266 380.153C192.692 380.153 193.012 379.936 193.225 379.503C193.438 379.07 193.544 378.375 193.544 377.42C193.544 377.045 193.522 376.693 193.478 376.362C193.434 376.024 193.361 375.734 193.258 375.491C193.162 375.242 193.034 375.047 192.872 374.907C192.71 374.76 192.508 374.687 192.266 374.687C191.421 374.687 190.999 375.598 190.999 377.42ZM196.484 377.828V376.704H196.748C196.859 376.704 196.995 376.7 197.156 376.693C197.318 376.685 197.446 376.663 197.542 376.627C197.74 376.568 197.909 376.458 198.049 376.296C198.189 376.134 198.258 375.925 198.258 375.668C198.258 375.308 198.17 375.058 197.994 374.918C197.825 374.779 197.586 374.709 197.277 374.709C197.028 374.709 196.793 374.749 196.572 374.83C196.359 374.904 196.19 374.981 196.065 375.062L195.713 373.86C195.786 373.816 195.889 373.769 196.021 373.717C196.153 373.666 196.3 373.618 196.462 373.574C196.631 373.53 196.807 373.497 196.991 373.475C197.182 373.445 197.373 373.431 197.564 373.431C197.843 373.431 198.111 373.46 198.369 373.519C198.633 373.57 198.864 373.669 199.063 373.816C199.261 373.956 199.419 374.151 199.537 374.4C199.654 374.65 199.713 374.97 199.713 375.359C199.713 375.734 199.632 376.083 199.471 376.406C199.316 376.729 199.063 376.968 198.71 377.123V377.189C199.092 377.292 199.386 377.497 199.592 377.806C199.805 378.114 199.911 378.533 199.911 379.062C199.911 379.481 199.842 379.841 199.702 380.142C199.57 380.443 199.386 380.69 199.151 380.881C198.923 381.072 198.659 381.211 198.357 381.299C198.056 381.388 197.744 381.432 197.421 381.432C197.024 381.432 196.66 381.395 196.33 381.321C195.999 381.255 195.735 381.163 195.536 381.046L195.9 379.812C196.039 379.892 196.23 379.97 196.473 380.043C196.723 380.116 197.013 380.153 197.344 380.153C197.645 380.153 197.906 380.058 198.126 379.867C198.346 379.668 198.457 379.36 198.457 378.941C198.457 378.581 198.354 378.313 198.148 378.136C197.95 377.953 197.597 377.854 197.09 377.839C197.009 377.839 196.954 377.839 196.925 377.839C196.895 377.832 196.833 377.828 196.737 377.828H196.484ZM205.186 375.348C205.186 375.539 205.164 375.73 205.119 375.921C205.083 376.105 205.02 376.281 204.932 376.45C204.844 376.612 204.726 376.755 204.579 376.88C204.44 377.005 204.271 377.1 204.073 377.167V377.233C204.249 377.277 204.414 377.343 204.568 377.431C204.73 377.519 204.87 377.641 204.987 377.795C205.105 377.942 205.197 378.125 205.263 378.346C205.336 378.559 205.373 378.812 205.373 379.106C205.373 379.503 205.303 379.848 205.164 380.142C205.031 380.429 204.848 380.664 204.613 380.848C204.385 381.031 204.117 381.167 203.808 381.255C203.499 381.343 203.172 381.388 202.827 381.388C202.724 381.388 202.592 381.388 202.43 381.388C202.269 381.388 202.092 381.38 201.901 381.366C201.718 381.358 201.527 381.343 201.328 381.321C201.13 381.299 200.946 381.266 200.777 381.222V373.618C201.02 373.574 201.317 373.537 201.67 373.508C202.03 373.471 202.386 373.453 202.739 373.453C203.062 373.453 203.371 373.478 203.665 373.53C203.966 373.581 204.227 373.677 204.447 373.816C204.675 373.956 204.855 374.151 204.987 374.4C205.119 374.643 205.186 374.959 205.186 375.348ZM202.86 380.186C203.169 380.186 203.422 380.087 203.621 379.889C203.819 379.69 203.918 379.4 203.918 379.018C203.918 378.776 203.885 378.585 203.819 378.445C203.753 378.298 203.665 378.188 203.555 378.114C203.444 378.034 203.316 377.982 203.169 377.96C203.029 377.938 202.882 377.927 202.728 377.927H202.166V380.12C202.225 380.142 202.324 380.161 202.463 380.175C202.61 380.183 202.743 380.186 202.86 380.186ZM202.486 376.836C202.566 376.836 202.658 376.832 202.761 376.825C202.871 376.81 202.959 376.796 203.026 376.781C203.239 376.7 203.419 376.568 203.566 376.384C203.72 376.2 203.797 375.962 203.797 375.668C203.797 375.477 203.771 375.315 203.72 375.183C203.668 375.051 203.599 374.948 203.51 374.874C203.422 374.793 203.316 374.738 203.191 374.709C203.073 374.672 202.945 374.654 202.805 374.654C202.504 374.654 202.291 374.669 202.166 374.698V376.836H202.486ZM206.268 373.64C206.533 373.581 206.823 373.537 207.139 373.508C207.455 373.471 207.771 373.453 208.087 373.453C208.425 373.453 208.755 373.486 209.078 373.552C209.409 373.611 209.703 373.732 209.96 373.916C210.217 374.099 210.427 374.36 210.588 374.698C210.75 375.029 210.831 375.462 210.831 375.998C210.831 376.483 210.761 376.895 210.621 377.233C210.489 377.571 210.309 377.846 210.081 378.059C209.854 378.272 209.589 378.427 209.288 378.522C208.994 378.618 208.689 378.665 208.373 378.665C208.344 378.665 208.296 378.665 208.23 378.665C208.164 378.665 208.094 378.665 208.021 378.665C207.947 378.658 207.874 378.651 207.8 378.643C207.734 378.636 207.686 378.629 207.657 378.621V381.277H206.268V373.64ZM207.657 377.376C207.701 377.391 207.782 377.405 207.899 377.42C208.024 377.427 208.109 377.431 208.153 377.431C208.314 377.431 208.469 377.409 208.616 377.365C208.763 377.321 208.891 377.247 209.001 377.145C209.119 377.034 209.211 376.887 209.277 376.704C209.343 376.513 209.376 376.274 209.376 375.987C209.376 375.745 209.343 375.539 209.277 375.37C209.218 375.201 209.134 375.069 209.023 374.973C208.921 374.871 208.799 374.797 208.66 374.753C208.52 374.709 208.373 374.687 208.219 374.687C207.991 374.687 207.804 374.705 207.657 374.742V377.376ZM214.006 379.536H212.188L211.736 381.277H210.358L212.596 373.508H213.687L215.935 381.277H214.48L214.006 379.536ZM212.485 378.39H213.764L213.323 376.594L213.147 375.381H213.103L212.915 376.605L212.485 378.39ZM216.497 381.277V373.563H217.885V379.999H219.208V373.563H220.596V379.999H221.919V373.563H223.307V379.999H224.145V382.655H223.164L223.021 381.277H216.497ZM224.872 373.563H228.729V374.841H226.26V376.737H228.498V378.015H226.26V379.999H228.773V381.277H224.872V373.563ZM233.189 378.015H231.084V381.277H229.695V373.563H231.084V376.737H233.189V373.563H234.578V381.277H233.189V378.015ZM239.308 377.167L239.418 376.076H239.363L238.944 377.244L236.751 381.277H235.66V373.563H237.049V377.596L236.927 378.721H236.982L237.423 377.519L239.616 373.563H240.696V381.277H239.308V377.167ZM246.139 381.277H244.751V378.203L244.156 378.412L242.932 381.277H241.334L242.591 378.654L243.142 378.214C242.752 378.103 242.429 377.865 242.172 377.497C241.915 377.123 241.786 376.601 241.786 375.932C241.786 375.462 241.852 375.069 241.984 374.753C242.117 374.437 242.304 374.184 242.547 373.993C242.789 373.802 243.079 373.666 243.417 373.585C243.755 373.497 244.126 373.453 244.53 373.453C244.626 373.453 244.743 373.456 244.883 373.464C245.03 373.471 245.177 373.482 245.324 373.497C245.471 373.511 245.614 373.533 245.754 373.563C245.9 373.585 246.029 373.611 246.139 373.64V381.277ZM244.751 374.786C244.685 374.764 244.618 374.749 244.552 374.742C244.486 374.735 244.405 374.731 244.31 374.731C244.163 374.731 244.023 374.753 243.891 374.797C243.759 374.834 243.645 374.904 243.549 375.007C243.454 375.102 243.377 375.231 243.318 375.392C243.267 375.554 243.241 375.756 243.241 375.998C243.241 376.461 243.34 376.796 243.538 377.001C243.744 377.2 244.009 377.299 244.332 377.299H244.751V374.786ZM255.183 382.655H254.202L254.07 381.277H250.102L249.97 382.655H248.989V379.999H249.661C249.705 379.918 249.772 379.734 249.86 379.448C249.955 379.161 250.051 378.757 250.146 378.236C250.242 377.714 250.319 377.067 250.378 376.296C250.444 375.525 250.473 374.613 250.466 373.563H254.389V379.999H255.183V382.655ZM253.001 379.999V374.841H251.777C251.741 376.142 251.652 377.233 251.513 378.114C251.381 378.996 251.245 379.624 251.105 379.999H253.001ZM255.575 377.42C255.575 376.112 255.799 375.117 256.247 374.433C256.695 373.75 257.378 373.409 258.297 373.409C258.774 373.409 259.186 373.504 259.531 373.695C259.876 373.879 260.159 374.147 260.38 374.5C260.6 374.845 260.762 375.267 260.865 375.767C260.975 376.259 261.03 376.81 261.03 377.42C261.03 378.728 260.798 379.723 260.336 380.407C259.88 381.09 259.2 381.432 258.297 381.432C257.812 381.432 257.397 381.34 257.051 381.156C256.713 380.965 256.434 380.697 256.214 380.352C255.993 379.999 255.832 379.576 255.729 379.084C255.626 378.585 255.575 378.03 255.575 377.42ZM257.029 377.42C257.029 377.809 257.051 378.173 257.095 378.511C257.14 378.842 257.213 379.128 257.316 379.371C257.419 379.613 257.547 379.804 257.702 379.944C257.863 380.083 258.062 380.153 258.297 380.153C258.723 380.153 259.042 379.936 259.255 379.503C259.469 379.07 259.575 378.375 259.575 377.42C259.575 377.045 259.553 376.693 259.509 376.362C259.465 376.024 259.391 375.734 259.289 375.491C259.193 375.242 259.064 375.047 258.903 374.907C258.741 374.76 258.539 374.687 258.297 374.687C257.452 374.687 257.029 375.598 257.029 377.42ZM266.868 377.299L267.022 375.822H266.967L266.559 377.145L265.303 379.856H264.84L263.507 377.134L263.099 375.8H263.033L263.242 377.288V381.277H261.931V373.563H263.264L264.873 376.902L265.138 377.861H265.182L265.435 376.88L266.945 373.563H268.256V381.277H266.868V377.299ZM269.161 377.42C269.161 376.112 269.385 375.117 269.833 374.433C270.281 373.75 270.965 373.409 271.883 373.409C272.361 373.409 272.772 373.504 273.117 373.695C273.463 373.879 273.745 374.147 273.966 374.5C274.186 374.845 274.348 375.267 274.451 375.767C274.561 376.259 274.616 376.81 274.616 377.42C274.616 378.728 274.385 379.723 273.922 380.407C273.466 381.09 272.787 381.432 271.883 381.432C271.398 381.432 270.983 381.34 270.638 381.156C270.3 380.965 270.02 380.697 269.8 380.352C269.58 379.999 269.418 379.576 269.315 379.084C269.212 378.585 269.161 378.03 269.161 377.42ZM270.616 377.42C270.616 377.809 270.638 378.173 270.682 378.511C270.726 378.842 270.799 379.128 270.902 379.371C271.005 379.613 271.134 379.804 271.288 379.944C271.449 380.083 271.648 380.153 271.883 380.153C272.309 380.153 272.629 379.936 272.842 379.503C273.055 379.07 273.161 378.375 273.161 377.42C273.161 377.045 273.139 376.693 273.095 376.362C273.051 376.024 272.978 375.734 272.875 375.491C272.779 375.242 272.651 375.047 272.489 374.907C272.327 374.76 272.125 374.687 271.883 374.687C271.038 374.687 270.616 375.598 270.616 377.42ZM279.165 377.167L279.275 376.076H279.22L278.801 377.244L276.608 381.277H275.517V373.563H276.905V377.596L276.784 378.721H276.839L277.28 377.519L279.473 373.563H280.553V381.277H279.165V377.167ZM277.578 371.645C277.622 372.093 277.828 372.318 278.195 372.318C278.562 372.318 278.768 372.097 278.812 371.656L279.936 371.822C279.877 372.299 279.697 372.644 279.396 372.858C279.095 373.071 278.691 373.177 278.184 373.177C277.927 373.177 277.692 373.155 277.479 373.111C277.266 373.067 277.078 372.993 276.917 372.891C276.755 372.788 276.623 372.652 276.52 372.483C276.417 372.314 276.351 372.101 276.321 371.844L277.578 371.645Z" fill="#BB8E34"/>
<path d="M212.311 394.509H214.839V391.649H216.994V394.509H219.521V396.586H216.994V399.466H214.839V396.586H212.311V394.509ZM228.305 391.786C228.305 392.465 228.207 393.164 228.012 393.882C227.816 394.588 227.561 395.28 227.247 395.959C226.947 396.638 226.614 397.285 226.248 397.899C225.883 398.513 225.523 399.055 225.171 399.525L224.309 400.328V400.426L225.484 400.132H228.521V402.209H221.644V400.857C221.918 400.518 222.212 400.132 222.526 399.701C222.852 399.257 223.172 398.793 223.486 398.31C223.812 397.814 224.126 397.304 224.426 396.782C224.727 396.246 224.988 395.717 225.21 395.195C225.445 394.659 225.628 394.137 225.758 393.628C225.902 393.118 225.961 392.641 225.935 392.197C225.961 391.649 225.843 391.205 225.582 390.865C225.321 390.525 224.909 390.356 224.348 390.356C224.021 390.356 223.688 390.434 223.349 390.591C223.009 390.734 222.722 390.911 222.486 391.12L221.585 389.415C222.016 389.049 222.506 388.762 223.055 388.553C223.603 388.331 224.25 388.22 224.994 388.22C225.465 388.22 225.902 388.298 226.307 388.455C226.712 388.599 227.058 388.821 227.345 389.121C227.646 389.422 227.881 389.794 228.051 390.238C228.221 390.682 228.305 391.198 228.305 391.786ZM233.861 400.406C234.501 400.406 234.984 400.191 235.31 399.76C235.65 399.329 235.82 398.78 235.82 398.114C235.82 396.638 235.088 395.9 233.626 395.9H232.47V394.568L234.409 391.276L235.35 390.395L234.057 390.571H231.372V388.494H237.642V389.885L235.369 393.588L234.644 394.117V394.215L235.369 394.098C235.735 394.124 236.088 394.222 236.427 394.392C236.767 394.561 237.061 394.803 237.309 395.117C237.57 395.43 237.773 395.822 237.916 396.292C238.073 396.762 238.151 397.317 238.151 397.957C238.151 398.728 238.04 399.394 237.818 399.956C237.609 400.518 237.315 400.988 236.937 401.367C236.571 401.745 236.133 402.026 235.624 402.209C235.128 402.392 234.592 402.483 234.017 402.483C233.534 402.483 233.025 402.431 232.489 402.327C231.954 402.222 231.529 402.072 231.216 401.876L231.843 399.917C232.117 400.06 232.417 400.178 232.744 400.269C233.07 400.361 233.443 400.406 233.861 400.406ZM252.06 401.66C251.72 401.948 251.263 402.157 250.689 402.287C250.127 402.418 249.565 402.483 249.004 402.483C248.298 402.483 247.639 402.366 247.025 402.131C246.424 401.882 245.895 401.478 245.438 400.916C244.981 400.354 244.621 399.616 244.36 398.702C244.099 397.788 243.968 396.664 243.968 395.332C243.968 393.948 244.112 392.798 244.399 391.884C244.7 390.969 245.085 390.245 245.555 389.709C246.039 389.16 246.587 388.775 247.201 388.553C247.815 388.331 248.435 388.22 249.062 388.22C249.702 388.22 250.257 388.272 250.728 388.377C251.211 388.481 251.603 388.599 251.903 388.729L251.413 390.904C251.165 390.774 250.871 390.676 250.532 390.61C250.205 390.532 249.813 390.493 249.356 390.493C248.455 390.493 247.763 390.885 247.279 391.668C246.796 392.452 246.555 393.68 246.555 395.352C246.555 396.07 246.607 396.73 246.711 397.33C246.829 397.918 247.005 398.428 247.24 398.859C247.488 399.29 247.795 399.623 248.161 399.858C248.54 400.093 248.99 400.211 249.513 400.211C249.97 400.211 250.362 400.152 250.689 400.034C251.015 399.904 251.309 399.753 251.57 399.584L252.06 401.66Z" fill="#666666"/>
<circle cx="243.27" cy="386.504" r="1.68372" fill="#666666"/>
<g opacity="0.4" filter="url(#filter4_d_249_19836)">
<circle cx="230.887" cy="193.635" r="73.6179" fill="#BB8E34"/>
</g>
<defs>
<filter id="filter0_d_249_19836" x="328.376" y="175.696" width="53.3755" height="53.3754" filterUnits="userSpaceOnUse" color-interpolation-filters="sRGB">
<feFlood flood-opacity="0" result="BackgroundImageFix"/>
<feColorMatrix in="SourceAlpha" type="matrix" values="0 0 0 0 0 0 0 0 0 0 0 0 0 0 0 0 0 0 127 0" result="hardAlpha"/>
<feOffset dy="1.22452"/>
<feGaussianBlur stdDeviation="1.53065"/>
<feComposite in2="hardAlpha" operator="out"/>
<feColorMatrix type="matrix" values="0 0 0 0 0.4 0 0 0 0 0.4 0 0 0 0 0.4 0 0 0 0.25 0"/>
<feBlend mode="normal" in2="BackgroundImageFix" result="effect1_dropShadow_249_19836"/>
<feBlend mode="normal" in="SourceGraphic" in2="effect1_dropShadow_249_19836" result="shape"/>
</filter>
<filter id="filter1_d_249_19836" x="205.529" y="298.55" width="53.3755" height="53.3754" filterUnits="userSpaceOnUse" color-interpolation-filters="sRGB">
<feFlood flood-opacity="0" result="BackgroundImageFix"/>
<feColorMatrix in="SourceAlpha" type="matrix" values="0 0 0 0 0 0 0 0 0 0 0 0 0 0 0 0 0 0 127 0" result="hardAlpha"/>
<feOffset dy="1.22452"/>
<feGaussianBlur stdDeviation="1.53065"/>
<feComposite in2="hardAlpha" operator="out"/>
<feColorMatrix type="matrix" values="0 0 0 0 0.4 0 0 0 0 0.4 0 0 0 0 0.4 0 0 0 0.25 0"/>
<feBlend mode="normal" in2="BackgroundImageFix" result="effect1_dropShadow_249_19836"/>
<feBlend mode="normal" in="SourceGraphic" in2="effect1_dropShadow_249_19836" result="shape"/>
</filter>
<filter id="filter2_d_249_19836" x="205.529" y="52.837" width="53.3755" height="53.3754" filterUnits="userSpaceOnUse" color-interpolation-filters="sRGB">
<feFlood flood-opacity="0" result="BackgroundImageFix"/>
<feColorMatrix in="SourceAlpha" type="matrix" values="0 0 0 0 0 0 0 0 0 0 0 0 0 0 0 0 0 0 127 0" result="hardAlpha"/>
<feOffset dy="1.22452"/>
<feGaussianBlur stdDeviation="1.53065"/>
<feComposite in2="hardAlpha" operator="out"/>
<feColorMatrix type="matrix" values="0 0 0 0 0.4 0 0 0 0 0.4 0 0 0 0 0.4 0 0 0 0.25 0"/>
<feBlend mode="normal" in2="BackgroundImageFix" result="effect1_dropShadow_249_19836"/>
<feBlend mode="normal" in="SourceGraphic" in2="effect1_dropShadow_249_19836" result="shape"/>
</filter>
<filter id="filter3_d_249_19836" x="82.6653" y="175.696" width="53.3755" height="53.3754" filterUnits="userSpaceOnUse" color-interpolation-filters="sRGB">
<feFlood flood-opacity="0" result="BackgroundImageFix"/>
<feColorMatrix in="SourceAlpha" type="matrix" values="0 0 0 0 0 0 0 0 0 0 0 0 0 0 0 0 0 0 127 0" result="hardAlpha"/>
<feOffset dy="1.22452"/>
<feGaussianBlur stdDeviation="1.53065"/>
<feComposite in2="hardAlpha" operator="out"/>
<feColorMatrix type="matrix" values="0 0 0 0 0.4 0 0 0 0 0.4 0 0 0 0 0.4 0 0 0 0.25 0"/>
<feBlend mode="normal" in2="BackgroundImageFix" result="effect1_dropShadow_249_19836"/>
<feBlend mode="normal" in="SourceGraphic" in2="effect1_dropShadow_249_19836" result="shape"/>
</filter>
<filter id="filter4_d_249_19836" x="151.333" y="116.455" width="159.11" height="159.11" filterUnits="userSpaceOnUse" color-interpolation-filters="sRGB">
<feFlood flood-opacity="0" result="BackgroundImageFix"/>
<feColorMatrix in="SourceAlpha" type="matrix" values="0 0 0 0 0 0 0 0 0 0 0 0 0 0 0 0 0 0 127 0" result="hardAlpha"/>
<feOffset dy="2.37477"/>
<feGaussianBlur stdDeviation="2.96846"/>
<feComposite in2="hardAlpha" operator="out"/>
<feColorMatrix type="matrix" values="0 0 0 0 0.4 0 0 0 0 0.4 0 0 0 0 0.4 0 0 0 0.25 0"/>
<feBlend mode="normal" in2="BackgroundImageFix" result="effect1_dropShadow_249_19836"/>
<feBlend mode="normal" in="SourceGraphic" in2="effect1_dropShadow_249_19836" result="shape"/>
</filter>
<clipPath id="clip0_249_19836">
<rect width="36.3483" height="36.3483" fill="white" transform="translate(336.891 182.986)"/>
</clipPath>
<clipPath id="clip1_249_19836">
<rect width="36.3483" height="36.3483" fill="white" transform="matrix(-1 0 0 1 250.391 305.84)"/>
</clipPath>
<clipPath id="clip2_249_19836">
<rect width="36.3483" height="36.3483" fill="white" transform="translate(214.043 60.127)"/>
</clipPath>
<clipPath id="clip3_249_19836">
<rect width="36.2152" height="36.2152" fill="white" transform="translate(90.7734 182.947)"/>
</clipPath>
</defs>
</svg>
