<svg width="33" height="27" viewBox="0 0 33 27" fill="none" xmlns="http://www.w3.org/2000/svg">
<g clip-path="url(#clip0_1_44535)">
<path fill-rule="evenodd" clip-rule="evenodd" d="M14.3755 7.03113V21.812C14.3809 21.9119 14.3637 22.0118 14.3249 22.1056C14.2861 22.1993 14.2265 22.285 14.1498 22.3575C14.0731 22.4299 13.9808 22.4876 13.8786 22.527C13.7764 22.5664 13.6663 22.5867 13.5551 22.5867C13.4438 22.5867 13.3338 22.5664 13.2315 22.527C13.1293 22.4876 13.037 22.4299 12.9603 22.3575C12.8836 22.285 12.824 22.1993 12.7852 22.1056C12.7464 22.0118 12.7292 21.9119 12.7346 21.812V10.7292C12.723 10.2462 12.5015 9.78649 12.1176 9.4486C11.7338 9.11071 11.2181 8.9215 10.681 8.9215C10.144 8.9215 9.62826 9.11071 9.24441 9.4486C8.86056 9.78649 8.63909 10.2462 8.62744 10.7292V21.812C8.63284 21.9119 8.61561 22.0118 8.57681 22.1056C8.53801 22.1993 8.47845 22.285 8.40173 22.3575C8.32501 22.4299 8.23274 22.4876 8.1305 22.527C8.02827 22.5664 7.9182 22.5867 7.80698 22.5867C7.69575 22.5867 7.58569 22.5664 7.48346 22.527C7.38122 22.4876 7.28895 22.4299 7.21223 22.3575C7.13551 22.285 7.07595 22.1993 7.03715 22.1056C6.99835 22.0118 6.98112 21.9119 6.98651 21.812V14.4237C6.99244 14.1778 6.94371 13.9332 6.84317 13.7044C6.74263 13.4756 6.59231 13.2672 6.40103 13.0914C6.20975 12.9156 5.98136 12.7758 5.72926 12.6805C5.47716 12.5851 5.20642 12.536 4.93293 12.536C4.65944 12.536 4.38871 12.5851 4.1366 12.6805C3.8845 12.7758 3.65612 12.9156 3.46484 13.0914C3.27356 13.2672 3.12324 13.4756 3.0227 13.7044C2.92216 13.9332 2.87343 14.1778 2.87936 14.4237V21.812C2.87936 22.9878 3.39861 24.1155 4.3229 24.9469C5.24719 25.7784 6.5008 26.2455 7.80794 26.2455H27.9277C29.2349 26.2455 30.4885 25.7784 31.4127 24.9469C32.337 24.1155 32.8563 22.9878 32.8563 21.812V14.0538C32.857 13.3367 32.6642 12.6302 32.2943 11.995C31.9244 11.3597 31.3885 10.8148 30.7327 10.407L30.7057 10.3905L30.6652 10.3662L19.2925 3.42686C19.2259 3.38432 19.1584 3.34003 19.0898 3.3027L19.0812 3.29836C18.2884 2.8429 17.3674 2.60089 16.4267 2.60089C15.486 2.60089 14.565 2.8429 13.7723 3.29836C13.6342 3.37747 13.5008 3.46297 13.3726 3.5545L12.7317 3.96607V2.60286C12.7376 2.3569 12.6889 2.11235 12.5884 1.88356C12.4878 1.65477 12.3375 1.44635 12.1462 1.27051C11.9549 1.09467 11.7266 0.954971 11.4745 0.859594C11.2224 0.764217 10.9516 0.715088 10.6781 0.715088C10.4046 0.715088 10.1339 0.764217 9.8818 0.859594C9.6297 0.954971 9.40131 1.09467 9.21003 1.27051C9.01875 1.44635 8.86843 1.65477 8.76789 1.88356C8.66736 2.11235 8.61862 2.3569 8.62455 2.60286V6.60567L2.13418 10.7735C1.47564 11.1807 0.937208 11.7259 0.565378 12.3622C0.193548 12.9985 -0.000497521 13.7066 9.57975e-07 14.4255V22.0603C9.57975e-07 22.3321 0.276063 22.5527 0.615832 22.5527C0.955602 22.5527 1.23263 22.3321 1.23263 22.0603V14.4237C1.2319 13.8948 1.37167 13.3734 1.64032 12.903C1.90896 12.4325 2.29869 12.0266 2.77704 11.719L9.85718 7.17353V2.60286C9.85179 2.50292 9.86902 2.40305 9.90781 2.30928C9.94662 2.21552 10.0062 2.12981 10.0829 2.05737C10.1596 1.98493 10.2519 1.92726 10.3541 1.88786C10.4564 1.84845 10.5664 1.82813 10.6776 1.82813C10.7889 1.82813 10.8989 1.84845 11.0012 1.88786C11.1034 1.92726 11.1957 1.98493 11.2724 2.05737C11.3491 2.12981 11.4087 2.21552 11.4475 2.30928C11.4863 2.40305 11.5035 2.50292 11.4981 2.60286V6.11769L11.6236 6.03694L12.1805 5.68007L14.417 4.24479C15.0158 3.89599 15.7139 3.7104 16.4272 3.7104C17.1405 3.7104 17.8386 3.89599 18.4373 4.24479L30.0899 11.3552C30.5651 11.663 30.9521 12.0681 31.2188 12.537C31.4855 13.006 31.6243 13.5253 31.6237 14.0521V21.8103C31.6237 22.2469 31.5281 22.6792 31.3423 23.0826C31.1566 23.4859 30.8844 23.8524 30.5412 24.1612C30.1979 24.4699 29.7905 24.7148 29.3421 24.8819C28.8937 25.0489 28.4131 25.1349 27.9277 25.1349H7.80408C7.31872 25.1349 6.83811 25.0489 6.3897 24.8819C5.94129 24.7148 5.53385 24.4699 5.19065 24.1612C4.84745 23.8524 4.5752 23.4859 4.38946 23.0826C4.20372 22.6792 4.10812 22.2469 4.10812 21.8103V14.4237C4.11835 14.2342 4.20925 14.0554 4.362 13.9245C4.51475 13.7936 4.71762 13.7206 4.92859 13.7206C5.13955 13.7206 5.34243 13.7936 5.49518 13.9245C5.64793 14.0554 5.73883 14.2342 5.74906 14.4237V21.812C5.74313 22.058 5.79186 22.3025 5.8924 22.5313C5.99294 22.7601 6.14326 22.9685 6.33454 23.1444C6.52582 23.3202 6.75421 23.4599 7.00631 23.5553C7.25841 23.6506 7.52915 23.6998 7.80264 23.6998C8.07613 23.6998 8.34686 23.6506 8.59896 23.5553C8.85106 23.4599 9.07946 23.3202 9.27073 23.1444C9.46201 22.9685 9.61233 22.7601 9.71287 22.5313C9.81341 22.3025 9.86214 22.058 9.85621 21.812V10.7292C9.85082 10.6292 9.86805 10.5294 9.90685 10.4356C9.94565 10.3418 10.0052 10.2561 10.0819 10.1837C10.1587 10.1112 10.2509 10.0536 10.3532 10.0142C10.4554 9.97476 10.5655 9.95444 10.6767 9.95444C10.7879 9.95444 10.898 9.97476 11.0002 10.0142C11.1024 10.0536 11.1947 10.1112 11.2714 10.1837C11.3481 10.2561 11.4077 10.3418 11.4465 10.4356C11.4853 10.5294 11.5025 10.6292 11.4971 10.7292V21.812C11.4912 22.058 11.54 22.3025 11.6405 22.5313C11.741 22.7601 11.8913 22.9685 12.0826 23.1444C12.2739 23.3202 12.5023 23.4599 12.7544 23.5553C13.0065 23.6506 13.2772 23.6998 13.5507 23.6998C13.8242 23.6998 14.095 23.6506 14.3471 23.5553C14.5992 23.4599 14.8275 23.3202 15.0188 23.1444C15.2101 22.9685 15.3604 22.7601 15.461 22.5313C15.5615 22.3025 15.6102 22.058 15.6043 21.812V7.03113C15.5989 6.9312 15.6161 6.83132 15.6549 6.73755C15.6937 6.64379 15.7533 6.55809 15.83 6.48564C15.9067 6.4132 15.999 6.35553 16.1012 6.31613C16.2035 6.27672 16.3135 6.2564 16.4248 6.2564C16.536 6.2564 16.6461 6.27672 16.7483 6.31613C16.8505 6.35553 16.9428 6.4132 17.0195 6.48564C17.0962 6.55809 17.1558 6.64379 17.1946 6.73755C17.2334 6.83132 17.2506 6.9312 17.2452 7.03113V21.812C17.2393 22.058 17.288 22.3025 17.3886 22.5313C17.4891 22.7601 17.6394 22.9685 17.8307 23.1444C18.022 23.3202 18.2504 23.4599 18.5025 23.5553C18.7546 23.6506 19.0253 23.6998 19.2988 23.6998C19.5723 23.6998 19.843 23.6506 20.0951 23.5553C20.3472 23.4599 20.5756 23.3202 20.7669 23.1444C20.9582 22.9685 21.1085 22.7601 21.2091 22.5313C21.3096 22.3025 21.3583 22.058 21.3524 21.812V10.7292C21.3626 10.5396 21.4535 10.3609 21.6063 10.23C21.759 10.0991 21.9619 10.0261 22.1729 10.0261C22.3838 10.0261 22.5867 10.0991 22.7395 10.23C22.8922 10.3609 22.9831 10.5396 22.9933 10.7292V21.812C22.9933 22.0545 23.0464 22.2947 23.1496 22.5188C23.2528 22.7428 23.404 22.9464 23.5947 23.1179C23.7853 23.2894 24.0116 23.4255 24.2607 23.5183C24.5098 23.6111 24.7768 23.6589 25.0464 23.6589C25.316 23.6589 25.583 23.6111 25.8321 23.5183C26.0812 23.4255 26.3075 23.2894 26.4982 23.1179C26.6888 22.9464 26.8401 22.7428 26.9432 22.5188C27.0464 22.2947 27.0995 22.0545 27.0995 21.812V14.0538C27.1097 13.8643 27.2007 13.6856 27.3534 13.5547C27.5061 13.4238 27.709 13.3507 27.92 13.3507C28.131 13.3507 28.3338 13.4238 28.4866 13.5547C28.6393 13.6856 28.7302 13.8643 28.7405 14.0538V21.9969C28.7468 22.1402 28.8144 22.2757 28.9293 22.375C29.0442 22.4744 29.1974 22.5298 29.3568 22.5298C29.5161 22.5298 29.6693 22.4744 29.7842 22.375C29.8991 22.2757 29.9668 22.1402 29.9731 21.9969V14.0538C29.9614 13.5709 29.74 13.1112 29.3561 12.7733C28.9723 12.4354 28.4566 12.2462 27.9195 12.2462C27.3824 12.2462 26.8667 12.4354 26.4829 12.7733C26.099 13.1112 25.8776 13.5709 25.8659 14.0538V21.812C25.8713 21.9119 25.8541 22.0118 25.8153 22.1056C25.7765 22.1993 25.7169 22.285 25.6402 22.3575C25.5635 22.4299 25.4712 22.4876 25.369 22.527C25.2668 22.5664 25.1567 22.5867 25.0455 22.5867C24.9342 22.5867 24.8242 22.5664 24.7219 22.527C24.6197 22.4876 24.5274 22.4299 24.4507 22.3575C24.374 22.285 24.3144 22.1993 24.2756 22.1056C24.2368 22.0118 24.2196 21.9119 24.225 21.812V10.7292C24.2134 10.2462 23.9919 9.78649 23.608 9.4486C23.2242 9.11071 22.7085 8.9215 22.1714 8.9215C21.6344 8.9215 21.1187 9.11071 20.7348 9.4486C20.351 9.78649 20.1295 10.2462 20.1178 10.7292V21.812C20.1232 21.9119 20.106 22.0118 20.0672 22.1056C20.0284 22.1993 19.9688 22.285 19.8921 22.3575C19.8154 22.4299 19.7231 22.4876 19.6209 22.527C19.5187 22.5664 19.4086 22.5867 19.2974 22.5867C19.1861 22.5867 19.0761 22.5664 18.9738 22.527C18.8716 22.4876 18.7793 22.4299 18.7026 22.3575C18.6259 22.285 18.5663 22.1993 18.5275 22.1056C18.4887 22.0118 18.4715 21.9119 18.4769 21.812V7.03113C18.4769 6.54131 18.2606 6.07156 17.8756 5.72521C17.4905 5.37886 16.9683 5.18428 16.4238 5.18428C15.8793 5.18428 15.3571 5.37886 14.972 5.72521C14.587 6.07156 14.3707 6.54131 14.3707 7.03113H14.3755Z" fill="#FAF39E"/>
</g>
<defs>
<clipPath id="clip0_1_44535">
<rect width="32.8553" height="25.4912" fill="white" transform="translate(0 0.754395)"/>
</clipPath>
</defs>
</svg>
