<svg width="113" height="59" viewBox="0 0 113 59" fill="none" xmlns="http://www.w3.org/2000/svg">
<g clip-path="url(#clip0_3_6667)">
<path fill-rule="evenodd" clip-rule="evenodd" d="M20.4073 0.864451H0.52892C0.453727 0.863983 0.379289 0.87952 0.310505 0.910039C0.241721 0.940558 0.180151 0.985366 0.129849 1.04151C0.079547 1.09766 0.0416534 1.16388 0.0186628 1.2358C-0.00432788 1.30772 -0.0118941 1.38372 -0.00353776 1.45879V5.32202C-0.00353776 5.46389 0.0525603 5.59995 0.152415 5.70026C0.252271 5.80058 0.387703 5.85693 0.52892 5.85693H7.21422V30.641C7.21422 30.7829 7.27032 30.919 7.37018 31.0193C7.47003 31.1196 7.60546 31.1759 7.74668 31.1759H13.3079C13.4491 31.1759 13.5846 31.1196 13.6844 31.0193C13.7843 30.919 13.8404 30.7829 13.8404 30.641V5.7975H20.5257C20.6669 5.7975 20.8023 5.74114 20.9022 5.64083C21.002 5.54051 21.0581 5.40446 21.0581 5.26259V1.45879C21.0433 1.2959 20.9683 1.1445 20.8478 1.03447C20.7273 0.924437 20.5702 0.863774 20.4073 0.864451Z" fill="#002554"/>
<path fill-rule="evenodd" clip-rule="evenodd" d="M44.7901 0.864451H24.9117C24.8365 0.863983 24.7621 0.87952 24.6933 0.910039C24.6245 0.940558 24.563 0.985366 24.5127 1.04151C24.4624 1.09766 24.4245 1.16388 24.4015 1.2358C24.3785 1.30772 24.3709 1.38372 24.3793 1.45879V30.5816C24.3793 30.7235 24.4354 30.8595 24.5352 30.9598C24.6351 31.0602 24.7705 31.1165 24.9117 31.1165H44.7901C44.8649 31.1249 44.9405 31.1173 45.0121 31.0942C45.0837 31.0711 45.1496 31.033 45.2055 30.9825C45.2614 30.932 45.306 30.8701 45.3364 30.801C45.3668 30.7319 45.3822 30.6571 45.3818 30.5816V26.7778C45.3913 26.6975 45.3825 26.616 45.3562 26.5395C45.3298 26.4631 45.2865 26.3936 45.2295 26.3364C45.1726 26.2792 45.1035 26.2357 45.0273 26.2092C44.9512 26.1827 44.8701 26.1739 44.7901 26.1835H31.0646V18.1598H41.5362C41.6162 18.1694 41.6973 18.1606 41.7734 18.1341C41.8495 18.1076 41.9187 18.0641 41.9756 18.0069C42.0326 17.9497 42.0759 17.8802 42.1023 17.8038C42.1286 17.7273 42.1374 17.6458 42.1279 17.5655V13.7023C42.1283 13.6267 42.1129 13.5519 42.0825 13.4828C42.0521 13.4137 42.0075 13.3519 41.9516 13.3014C41.8957 13.2508 41.8298 13.2128 41.7582 13.1897C41.6866 13.1666 41.611 13.159 41.5362 13.1674H31.0646V5.7975H44.7901C44.8649 5.80589 44.9405 5.79829 45.0121 5.7752C45.0837 5.7521 45.1496 5.71403 45.2055 5.6635C45.2614 5.61296 45.306 5.55111 45.3364 5.48201C45.3668 5.41291 45.3822 5.33813 45.3818 5.26259V1.45879C45.4409 1.10219 45.1451 0.864451 44.7901 0.864451Z" fill="#002554"/>
<path fill-rule="evenodd" clip-rule="evenodd" d="M92.2989 0.864451H72.4205C72.3453 0.863983 72.2709 0.87952 72.2021 0.910039C72.1333 0.940558 72.0718 0.985366 72.0215 1.04151C71.9712 1.09766 71.9333 1.16388 71.9103 1.2358C71.8873 1.30772 71.8797 1.38372 71.8881 1.45879V30.5816C71.8881 30.7235 71.9442 30.8595 72.044 30.9598C72.1439 31.0602 72.2793 31.1165 72.4205 31.1165H92.2989C92.4461 31.1173 92.5883 31.0629 92.6977 30.9639C92.8071 30.865 92.8758 30.7287 92.8906 30.5816V26.7778C92.8906 26.6202 92.8282 26.469 92.7173 26.3575C92.6063 26.2461 92.4559 26.1835 92.2989 26.1835H78.5142V18.1598H89.045C89.125 18.1694 89.2061 18.1606 89.2822 18.1341C89.3583 18.1076 89.4275 18.0641 89.4844 18.0069C89.5414 17.9497 89.5847 17.8802 89.611 17.8038C89.6374 17.7273 89.6462 17.6458 89.6367 17.5655V13.7023C89.6371 13.6267 89.6217 13.5519 89.5913 13.4828C89.5609 13.4137 89.5163 13.3519 89.4604 13.3014C89.4045 13.2508 89.3386 13.2128 89.267 13.1897C89.1954 13.1666 89.1198 13.159 89.045 13.1674H78.5142V5.7975H92.2989C92.4461 5.79824 92.5883 5.74384 92.6977 5.64493C92.8071 5.54602 92.8758 5.4097 92.8906 5.26259V1.45879C92.9497 1.10219 92.5948 0.864451 92.2989 0.864451Z" fill="#002554"/>
<path fill-rule="evenodd" clip-rule="evenodd" d="M111.64 17.6837H99.2747C99.1334 17.6837 98.998 17.74 98.8981 17.8404C98.7983 17.9407 98.7422 18.0767 98.7422 18.2186V30.5809C98.7422 30.7228 98.7983 30.8589 98.8981 30.9592C98.998 31.0595 99.1334 31.1158 99.2747 31.1158H111.64C111.781 31.1158 111.916 31.0595 112.016 30.9592C112.116 30.8589 112.172 30.7228 112.172 30.5809V18.278C112.173 18.1302 112.119 17.9874 112.02 17.8775C111.922 17.7676 111.786 17.6985 111.64 17.6837Z" fill="#002554"/>
<path fill-rule="evenodd" clip-rule="evenodd" d="M110.755 12.9296H100.165V2.29087H110.755V12.9296ZM111.643 0.864451H99.2779C99.2028 0.863983 99.1283 0.87952 99.0595 0.910039C98.9907 0.940558 98.9292 0.985366 98.8789 1.04151C98.8286 1.09766 98.7907 1.16388 98.7677 1.2358C98.7447 1.30772 98.7371 1.38372 98.7455 1.45879V13.7617C98.7371 13.8368 98.7447 13.9128 98.7677 13.9847C98.7907 14.0566 98.8286 14.1228 98.8789 14.179C98.9292 14.2351 98.9907 14.2799 99.0595 14.3104C99.1283 14.341 99.2028 14.3565 99.2779 14.356H111.643C111.718 14.3565 111.792 14.341 111.861 14.3104C111.93 14.2799 111.992 14.2351 112.042 14.179C112.092 14.1228 112.13 14.0566 112.153 13.9847C112.176 13.9128 112.184 13.8368 112.175 13.7617V1.45879C112.184 1.38372 112.176 1.30772 112.153 1.2358C112.13 1.16388 112.092 1.09766 112.042 1.04151C111.992 0.985366 111.93 0.940558 111.861 0.910039C111.792 0.87952 111.718 0.863983 111.643 0.864451Z" fill="#002554"/>
<path fill-rule="evenodd" clip-rule="evenodd" d="M56.3822 6.50957C57.5548 5.84267 58.8803 5.49442 60.2277 5.49919C62.5825 5.53165 64.9179 5.93269 67.1497 6.68788C67.2976 6.71115 67.449 6.68248 67.5783 6.6067C67.7076 6.53091 67.807 6.41264 67.8596 6.27184L68.4513 2.94352C68.4876 2.84226 68.5025 2.73449 68.4949 2.62713C68.4874 2.51976 68.4576 2.41516 68.4074 2.32004C68.3573 2.22491 68.288 2.14136 68.2038 2.07473C68.1197 2.00811 68.0226 1.95988 67.9188 1.93313C65.4349 1.10427 62.844 0.643756 60.2277 0.566144C58.4959 0.511371 56.7646 0.691293 55.0807 1.10105C51.2943 2.052 48.9278 4.90485 48.0404 9.36242C47.6737 11.5619 47.4956 13.789 47.5079 16.0191C47.5006 18.2293 47.6788 20.4361 48.0404 22.6163C48.9278 27.0738 51.2943 29.9267 55.0807 30.8776C56.7646 31.2874 58.4959 31.4673 60.2277 31.4125C62.8406 31.35 65.4309 30.9096 67.9188 30.105C68.0248 30.0715 68.1229 30.0169 68.2074 29.9445C68.2919 29.872 68.3611 29.7833 68.4108 29.6835C68.4605 29.5837 68.4896 29.4748 68.4966 29.3635C68.5035 29.2521 68.4881 29.1404 68.4513 29.0352L67.7413 25.8257C67.6822 25.4691 67.3863 25.3503 67.0314 25.4097C64.8175 26.1551 62.5031 26.556 60.1686 26.5984C58.799 26.6314 57.4472 26.2816 56.2639 25.588C54.844 24.6965 54.2524 23.2701 53.8383 21.3682C53.5623 19.6186 53.4238 17.8499 53.4241 16.0785C53.411 14.3878 53.5297 12.6987 53.7791 11.0266C54.1341 9.00582 54.9623 7.46052 56.3822 6.50957Z" fill="#002554"/>
<path fill-rule="evenodd" clip-rule="evenodd" d="M6.86861 43.3583C4.73878 43.3583 3.31889 43.8932 3.31889 46.3894V49.3611C3.31889 51.9168 4.73878 52.3923 6.86861 52.3923C7.99829 52.3738 9.12522 52.2745 10.2408 52.0951V53.4027C9.08806 53.6029 7.92017 53.7024 6.75029 53.6998C2.66811 53.6998 1.83984 51.8574 1.83984 49.3611V46.6866C1.83984 44.0121 2.43146 42.1102 6.98693 42.1102C8.17017 42.1102 9.41257 42.3479 10.2408 42.4073V43.7743C9.14103 43.4812 8.00635 43.3412 6.86861 43.3583Z" fill="#002554"/>
<path d="M14.5611 37.8286H13.082V53.4122H14.5611V37.8286Z" fill="#002554"/>
<path fill-rule="evenodd" clip-rule="evenodd" d="M22.3141 43.3603C19.9476 43.3603 18.7644 44.0735 18.7644 46.4509V49.2443C18.7644 51.7406 20.1843 52.3349 22.3141 52.3349C24.4439 52.3349 25.923 51.6217 25.923 49.2443V46.4509C25.923 44.0141 24.6214 43.3603 22.3141 43.3603ZM22.3141 53.6425C18.3502 53.6425 17.167 51.7406 17.167 49.2443V46.4509C17.167 44.0141 18.1136 41.9933 22.3141 41.9933C26.5146 41.9933 27.4612 44.0141 27.4612 46.4509V49.2443C27.4612 51.7406 26.3963 53.6425 22.3141 53.6425Z" fill="#002554"/>
<path fill-rule="evenodd" clip-rule="evenodd" d="M29.4648 51.7406C30.5306 52.1148 31.6491 52.3155 32.7779 52.3349C34.6119 52.3349 35.8543 52.0972 35.8543 50.6708C35.8543 49.2443 35.1444 49.3038 34.257 48.8283L32.0088 47.699C30.4114 46.9858 29.7607 46.2726 29.7607 44.7273C29.7607 43.182 31.1214 41.9933 34.257 41.9933C35.1536 42.0281 36.0449 42.1475 36.9193 42.35V43.6575C36.0474 43.4487 35.1532 43.3489 34.257 43.3603C32.2455 43.3603 31.358 43.8358 31.358 44.8462C31.358 45.8566 31.8313 46.0349 32.6004 46.4509L35.0852 47.6396C36.5643 48.3528 37.4517 49.2443 37.4517 50.7302C37.4517 52.2161 35.7952 53.7019 32.8371 53.7019C31.7104 53.7147 30.5899 53.5338 29.524 53.167V51.7406H29.4648Z" fill="#002554"/>
<path fill-rule="evenodd" clip-rule="evenodd" d="M47.5118 46.9858V46.2726C47.5118 44.0736 46.3877 43.3603 44.4945 43.3603C42.6013 43.3603 41.1814 44.133 41.004 46.9858H47.5118ZM41.004 48.1151C41.004 51.384 41.9505 52.3349 45.027 52.3349C46.0371 52.3293 47.0455 52.2498 48.0442 52.0972V53.3453C47.0474 53.5209 46.0388 53.6203 45.027 53.6425C40.5307 53.6425 39.5249 51.8594 39.5249 47.8773C39.5249 42.9443 41.4181 41.9933 44.5537 41.9933C47.6893 41.9933 48.9908 42.9443 48.9908 46.4509C48.9908 46.9264 48.9908 47.4613 48.9317 48.1151H41.004Z" fill="#002554"/>
<path fill-rule="evenodd" clip-rule="evenodd" d="M61.061 53.58H59.6411C55.9139 53.58 56.0322 50.6677 56.0322 49.9545V43.4167H54.2573V42.1686H56.0322L56.3872 38.9592H57.5704V42.1686H60.9426V43.4167H57.5704V50.3111C57.5704 51.2621 57.807 52.3319 59.8777 52.3319C60.2757 52.3488 60.6742 52.3088 61.061 52.213V53.58Z" fill="#002554"/>
<path fill-rule="evenodd" clip-rule="evenodd" d="M67.8668 43.3603C65.5003 43.3603 64.2579 44.0735 64.2579 46.4509V49.2443C64.2579 51.7406 65.737 52.3349 67.8668 52.3349C69.9966 52.3349 71.4165 51.6217 71.4165 49.2443V46.4509C71.4165 44.0141 70.115 43.3603 67.8668 43.3603ZM67.8668 53.6425C63.903 53.6425 62.7197 51.7406 62.7197 49.2443V46.4509C62.7197 44.0141 63.6663 41.9933 67.8668 41.9933C72.0673 41.9933 73.0139 44.0141 73.0139 46.4509V49.2443C72.8956 51.7406 71.8307 53.6425 67.8668 53.6425Z" fill="#002554"/>
<path fill-rule="evenodd" clip-rule="evenodd" d="M78.5137 56.7297C81.3534 56.5514 82.4775 55.957 83.3058 53.8768L78.6912 42.2277H80.4069L84.0749 52.0938L87.7429 42.2277H89.4586L85.2581 53.1042C84.0749 56.4325 83.5424 57.8589 78.632 58.1561V56.7297H78.5137Z" fill="#002554"/>
<path fill-rule="evenodd" clip-rule="evenodd" d="M95.3185 43.3603C92.952 43.3603 91.7688 44.0735 91.7688 46.4509V49.2443C91.7688 51.7406 93.1887 52.3349 95.3185 52.3349C97.4483 52.3349 98.8682 51.6217 98.8682 49.2443V46.4509C98.8682 44.0141 97.6258 43.3603 95.3185 43.3603ZM95.3185 53.6425C91.3546 53.6425 90.1714 51.7406 90.1714 49.2443V46.4509C90.1714 44.0141 91.118 41.9933 95.3185 41.9933C99.519 41.9933 100.466 44.0141 100.466 46.4509V49.2443C100.406 51.7406 99.3415 53.6425 95.3185 53.6425Z" fill="#002554"/>
<path fill-rule="evenodd" clip-rule="evenodd" d="M104.426 42.2277V49.2409C104.426 51.4994 104.9 52.3315 107.562 52.3315C108.642 52.3027 109.715 52.1431 110.757 51.8561V42.2277H112.236V53.4608H111.171L110.993 53.0447C109.889 53.4363 108.732 53.6568 107.562 53.6985C104.13 53.6985 103.006 52.807 103.006 49.3598V42.2277H104.426Z" fill="#002554"/>
</g>
<defs>
<clipPath id="clip0_3_6667">
<rect width="112.23" height="57.5918" fill="white" transform="translate(0 0.565796)"/>
</clipPath>
</defs>
</svg>
