<svg width="161" height="52" viewBox="0 0 161 52" fill="none" xmlns="http://www.w3.org/2000/svg">
<path d="M11.4924 2.28546C8.34304 3.95104 5.1317 5.61205 2.4468 8.40287C-0.0534574 10.9504 -0.702606 15.2948 0.800987 18.5711C2.41658 21.7599 4.51426 24.6827 7.02066 27.2372C5.34071 18.6555 6.93526 9.75818 11.4924 2.28546Z" fill="#37A58C"/>
<path d="M8.87207 28.895C11.9641 30.8553 15.0573 32.7585 18.6529 33.5901C22.5753 34.4812 26.2064 32.8773 28.5243 29.7255C30.3295 26.7502 31.7393 23.5542 32.7185 20.2175C26.1291 25.9622 17.6276 29.0562 8.87207 28.8961V28.895Z" fill="#DD0060"/>
<path d="M32.129 4.96033C31.3801 3.58946 30.305 2.4225 28.9979 1.56177C27.6926 0.702374 26.1951 0.175894 24.6374 0.0287037C21.1159 -0.106152 17.5929 0.253025 14.1719 1.09568C21.902 3.6089 29.6413 10.0108 33.5592 17.4385C33.7346 13.1626 33.9262 8.58622 32.129 4.96033Z" fill="#505050"/>
<path d="M159.289 47.1717C159.759 45.8827 159.963 44.5129 159.889 43.1437V17.1582H150.983V42.9415C150.99 43.4351 150.801 43.9114 150.458 44.2678C150.113 44.6217 149.641 44.825 149.146 44.8333H148.955C148.469 44.8666 147.991 44.7067 147.624 44.3889C147.257 44.071 147.032 43.6211 146.998 43.138V17.1524H138.134V43.138C138.048 44.5064 138.24 45.8779 138.699 47.1706C139.061 47.9429 139.59 48.6262 140.248 49.1721C140.905 49.718 141.675 50.1131 142.503 50.3292C143.299 50.4777 144.108 50.5463 144.917 50.5326H153.054C153.866 50.5486 154.679 50.4835 155.478 50.3407C156.309 50.1258 157.082 49.7301 157.741 49.1821C158.4 48.6342 158.929 47.9476 159.289 47.1717ZM117.305 17.141C114.426 17.141 112.419 19.6268 112.442 22.5981V50.5326H121.488V36.6642H125.175V50.5326H134.176V17.141H117.305ZM125.163 30.9363H121.494V24.1575C121.494 22.9203 121.958 22.4622 123.083 22.4622H125.163V30.9363ZM99.3991 17.141V30.9363H95.4422V17.141H86.3564V50.5326H95.4583V36.6642H99.3601V50.5326H108.473V17.141H99.3991ZM76.2579 23.6034H82.4317V17.141H67.1331V50.5326H82.4443V44.0645H76.2247V36.6642H81.5004V30.9363H76.2247L76.2591 23.6034H76.2579ZM58.6529 33.6232C59.9102 33.3907 61.0476 32.731 61.8711 31.7565C62.6961 30.78 63.1567 29.5495 63.1752 28.2734V22.6244C63.1247 19.6028 60.9135 17.1673 58.505 17.1673H41.2842V50.536H50.2564V36.6676H52.5181C53.649 36.6676 54.0951 37.1931 54.0951 38.4029V50.5372H63.1752V39.0517C63.1752 36.1021 60.7953 33.8711 58.6529 33.622V33.6232ZM54.0561 29.2902C54.0905 30.2954 53.6662 30.8952 52.9253 30.9854H50.245V22.5102H52.5067C53.6375 22.5102 54.1009 23.0756 54.0848 24.2055L54.0561 29.289V29.2902Z" fill="black"/>
</svg>
