<svg width="71" height="53" viewBox="0 0 71 53" fill="none" xmlns="http://www.w3.org/2000/svg">
<path fill-rule="evenodd" clip-rule="evenodd" d="M30.9655 13.027V43.7038C30.9771 43.9112 30.94 44.1185 30.8564 44.3131C30.7728 44.5077 30.6445 44.6856 30.4793 44.8359C30.314 44.9863 30.1153 45.106 29.8951 45.1878C29.6749 45.2696 29.4378 45.3117 29.1982 45.3117C28.9587 45.3117 28.7216 45.2696 28.5014 45.1878C28.2812 45.106 28.0824 44.9863 27.9172 44.8359C27.752 44.6856 27.6237 44.5077 27.5401 44.3131C27.4565 44.1185 27.4194 43.9112 27.431 43.7038V20.7021C27.406 19.6996 26.9289 18.7456 26.1021 18.0443C25.2753 17.3431 24.1646 16.9504 23.0078 16.9504C21.851 16.9504 20.7402 17.3431 19.9134 18.0443C19.0866 18.7456 18.6096 19.6996 18.5845 20.7021V43.7038C18.5961 43.9112 18.559 44.1185 18.4755 44.3131C18.3919 44.5077 18.2636 44.6856 18.0984 44.8359C17.9331 44.9863 17.7344 45.106 17.5142 45.1878C17.294 45.2696 17.0569 45.3117 16.8173 45.3117C16.5777 45.3117 16.3407 45.2696 16.1205 45.1878C15.9003 45.106 15.7015 44.9863 15.5363 44.8359C15.371 44.6856 15.2427 44.5077 15.1592 44.3131C15.0756 44.1185 15.0385 43.9112 15.0501 43.7038V28.3699C15.0629 27.8595 14.9579 27.3519 14.7413 26.8771C14.5248 26.4022 14.201 25.9697 13.789 25.6047C13.377 25.2398 12.8851 24.9498 12.3421 24.7519C11.7991 24.5539 11.2159 24.452 10.6269 24.452C10.0378 24.452 9.45463 24.5539 8.91162 24.7519C8.36862 24.9498 7.87669 25.2398 7.46469 25.6047C7.05269 25.9697 6.72891 26.4022 6.51236 26.8771C6.29581 27.3519 6.19084 27.8595 6.20361 28.3699V43.7038C6.20361 46.1442 7.32205 48.4846 9.3129 50.2102C11.3037 51.9358 14.0039 52.9053 16.8194 52.9053H60.1558C62.9712 52.9053 65.6714 51.9358 67.6623 50.2102C69.6531 48.4846 70.7715 46.1442 70.7715 43.7038V27.6022C70.7732 26.1139 70.3577 24.6475 69.561 23.3292C68.7643 22.0108 67.61 20.8798 66.1976 20.0335L66.1394 19.9993L66.052 19.9488L41.5563 5.54658C41.4128 5.45828 41.2673 5.36637 41.1197 5.28889L41.101 5.27987C39.3934 4.3346 37.4096 3.83233 35.3835 3.83233C33.3574 3.83233 31.3736 4.3346 29.666 5.27987C29.3687 5.44408 29.0814 5.62152 28.8053 5.81149L27.4248 6.66567V3.83641C27.4376 3.32594 27.3326 2.81839 27.116 2.34355C26.8995 1.86871 26.5757 1.43614 26.1637 1.0712C25.7517 0.706266 25.2598 0.416319 24.7168 0.21837C24.1738 0.0204213 23.5906 -0.081543 23.0015 -0.081543C22.4125 -0.081543 21.8293 0.0204213 21.2863 0.21837C20.7433 0.416319 20.2514 0.706266 19.8394 1.0712C19.4274 1.43614 19.1036 1.86871 18.8871 2.34355C18.6705 2.81839 18.5655 3.32594 18.5783 3.83641V12.144L4.59856 20.794C3.18013 21.6391 2.02038 22.7708 1.21949 24.0914C0.418595 25.4119 0.000637363 26.8816 0.00171105 28.3735V44.2192C0.00171105 44.7833 0.596326 45.241 1.32816 45.241C2.06 45.241 2.6567 44.7833 2.6567 44.2192V28.3699C2.65512 27.2722 2.95619 26.1901 3.53482 25.2136C4.11345 24.2372 4.9529 23.3947 5.98323 22.7564L21.2333 13.3226V3.83641C21.2217 3.629 21.2588 3.42171 21.3423 3.22711C21.4259 3.0325 21.5542 2.85464 21.7195 2.70429C21.8847 2.55394 22.0835 2.43425 22.3037 2.35247C22.5239 2.27068 22.7609 2.22852 23.0005 2.22852C23.2401 2.22852 23.4771 2.27068 23.6973 2.35247C23.9176 2.43425 24.1163 2.55394 24.2815 2.70429C24.4468 2.85464 24.5751 3.0325 24.6587 3.22711C24.7422 3.42171 24.7793 3.629 24.7677 3.83641V11.1312L25.038 10.9636L26.2376 10.223L31.0549 7.24414C32.3445 6.52022 33.8481 6.13505 35.3845 6.13505C36.921 6.13505 38.4246 6.52022 39.7142 7.24414L64.8129 22.0014C65.8366 22.6401 66.6701 23.4809 67.2446 24.4542C67.819 25.4275 68.1179 26.5054 68.1166 27.5986V43.7002C68.1166 44.6064 67.9107 45.5036 67.5106 46.3408C67.1105 47.178 66.5241 47.9386 65.7849 48.5794C65.0457 49.2201 64.1681 49.7284 63.2022 50.0751C62.2364 50.4219 61.2012 50.6004 60.1558 50.6004H16.8111C15.7657 50.6004 14.7305 50.4219 13.7646 50.0751C12.7988 49.7284 11.9212 49.2201 11.1819 48.5794C10.4427 47.9386 9.85633 47.178 9.45626 46.3408C9.05619 45.5036 8.85028 44.6064 8.85028 43.7002V28.3699C8.8723 27.9765 9.0681 27.6056 9.39711 27.3339C9.72611 27.0622 10.1631 26.9107 10.6175 26.9107C11.0719 26.9107 11.5089 27.0622 11.8379 27.3339C12.1669 27.6056 12.3627 27.9765 12.3847 28.3699V43.7038C12.3719 44.2143 12.4769 44.7218 12.6935 45.1967C12.91 45.6715 13.2338 46.1041 13.6458 46.469C14.0578 46.834 14.5497 47.1239 15.0927 47.3219C15.6357 47.5198 16.2189 47.6218 16.808 47.6218C17.397 47.6218 17.9802 47.5198 18.5232 47.3219C19.0662 47.1239 19.5581 46.834 19.9701 46.469C20.3821 46.1041 20.7059 45.6715 20.9225 45.1967C21.139 44.7218 21.244 44.2143 21.2312 43.7038V20.7021C21.2196 20.4947 21.2567 20.2874 21.3403 20.0928C21.4238 19.8982 21.5521 19.7203 21.7174 19.57C21.8826 19.4196 22.0814 19.2999 22.3016 19.2181C22.5218 19.1364 22.7589 19.0942 22.9984 19.0942C23.238 19.0942 23.4751 19.1364 23.6953 19.2181C23.9155 19.2999 24.1142 19.4196 24.2795 19.57C24.4447 19.7203 24.573 19.8982 24.6566 20.0928C24.7401 20.2874 24.7773 20.4947 24.7656 20.7021V43.7038C24.7529 44.2143 24.8578 44.7218 25.0744 45.1967C25.2909 45.6715 25.6147 46.1041 26.0267 46.469C26.4387 46.834 26.9307 47.1239 27.4737 47.3219C28.0167 47.5198 28.5998 47.6218 29.1889 47.6218C29.778 47.6218 30.3611 47.5198 30.9041 47.3219C31.4471 47.1239 31.9391 46.834 32.3511 46.469C32.7631 46.1041 33.0868 45.6715 33.3034 45.1967C33.5199 44.7218 33.6249 44.2143 33.6121 43.7038V13.027C33.6005 12.8196 33.6376 12.6123 33.7212 12.4177C33.8048 12.2231 33.9331 12.0452 34.0983 11.8949C34.2636 11.7446 34.4623 11.6249 34.6825 11.5431C34.9027 11.4613 35.1398 11.4191 35.3794 11.4191C35.6189 11.4191 35.856 11.4613 36.0762 11.5431C36.2964 11.6249 36.4952 11.7446 36.6604 11.8949C36.8256 12.0452 36.9539 12.2231 37.0375 12.4177C37.1211 12.6123 37.1582 12.8196 37.1466 13.027V43.7038C37.1338 44.2143 37.2388 44.7218 37.4553 45.1967C37.6719 45.6715 37.9956 46.1041 38.4076 46.469C38.8196 46.834 39.3116 47.1239 39.8546 47.3219C40.3976 47.5198 40.9807 47.6218 41.5698 47.6218C42.1589 47.6218 42.742 47.5198 43.285 47.3219C43.828 47.1239 44.32 46.834 44.732 46.469C45.144 46.1041 45.4678 45.6715 45.6843 45.1967C45.9009 44.7218 46.0058 44.2143 45.9931 43.7038V20.7021C46.0151 20.3087 46.2109 19.9377 46.5399 19.666C46.8689 19.3944 47.3059 19.2428 47.7603 19.2428C48.2147 19.2428 48.6517 19.3944 48.9807 19.666C49.3097 19.9377 49.5055 20.3087 49.5275 20.7021V43.7038C49.5275 44.2072 49.6419 44.7056 49.8641 45.1707C50.0864 45.6357 50.4121 46.0583 50.8227 46.4142C51.2334 46.7701 51.7209 47.0525 52.2574 47.2451C52.7939 47.4377 53.369 47.5369 53.9497 47.5369C54.5304 47.5369 55.1055 47.4377 55.642 47.2451C56.1785 47.0525 56.666 46.7701 57.0767 46.4142C57.4873 46.0583 57.813 45.6357 58.0353 45.1707C58.2575 44.7056 58.3719 44.2072 58.3719 43.7038V27.6022C58.3939 27.2088 58.5897 26.8379 58.9187 26.5662C59.2477 26.2945 59.6847 26.143 60.1391 26.143C60.5935 26.143 61.0305 26.2945 61.3595 26.5662C61.6885 26.8379 61.8843 27.2088 61.9063 27.6022V44.0877C61.9199 44.385 62.0657 44.6662 62.3132 44.8723C62.5607 45.0785 62.8906 45.1937 63.2338 45.1937C63.5771 45.1937 63.907 45.0785 64.1545 44.8723C64.402 44.6662 64.5478 44.385 64.5613 44.0877V27.6022C64.5363 26.5998 64.0592 25.6458 63.2324 24.9445C62.4057 24.2432 61.2949 23.8505 60.1381 23.8505C58.9813 23.8505 57.8705 24.2432 57.0437 24.9445C56.2169 25.6458 55.7399 26.5998 55.7148 27.6022V43.7038C55.7265 43.9112 55.6894 44.1185 55.6058 44.3131C55.5222 44.5077 55.3939 44.6856 55.2287 44.8359C55.0634 44.9863 54.8647 45.106 54.6445 45.1878C54.4243 45.2696 54.1872 45.3117 53.9476 45.3117C53.7081 45.3117 53.471 45.2696 53.2508 45.1878C53.0306 45.106 52.8318 44.9863 52.6666 44.8359C52.5013 44.6856 52.373 44.5077 52.2895 44.3131C52.2059 44.1185 52.1688 43.9112 52.1804 43.7038V20.7021C52.1553 19.6996 51.6783 18.7456 50.8515 18.0443C50.0247 17.3431 48.9139 16.9504 47.7572 16.9504C46.6004 16.9504 45.4896 17.3431 44.6628 18.0443C43.836 18.7456 43.359 19.6996 43.3339 20.7021V43.7038C43.3455 43.9112 43.3084 44.1185 43.2248 44.3131C43.1413 44.5077 43.013 44.6856 42.8477 44.8359C42.6825 44.9863 42.4837 45.106 42.2635 45.1878C42.0433 45.2696 41.8063 45.3117 41.5667 45.3117C41.3271 45.3117 41.0901 45.2696 40.8699 45.1878C40.6497 45.106 40.4509 44.9863 40.2857 44.8359C40.1204 44.6856 39.9921 44.5077 39.9085 44.3131C39.825 44.1185 39.7879 43.9112 39.7995 43.7038V13.027C39.7995 12.0104 39.3336 11.0355 38.5042 10.3167C37.6749 9.59783 36.5501 9.19399 35.3773 9.19399C34.2044 9.19399 33.0796 9.59783 32.2503 10.3167C31.421 11.0355 30.9551 12.0104 30.9551 13.027H30.9655Z" fill="#FAF39E"/>
</svg>
