<svg width="139" height="35" viewBox="0 0 139 35" fill="none" xmlns="http://www.w3.org/2000/svg">
<g clip-path="url(#clip0_1_44533)">
<g clip-path="url(#clip1_1_44533)">
<path fill-rule="evenodd" clip-rule="evenodd" d="M14.3755 11.0311V25.812C14.3809 25.9119 14.3637 26.0118 14.3249 26.1056C14.2861 26.1993 14.2265 26.285 14.1498 26.3575C14.0731 26.4299 13.9808 26.4876 13.8786 26.527C13.7764 26.5664 13.6663 26.5867 13.5551 26.5867C13.4438 26.5867 13.3338 26.5664 13.2315 26.527C13.1293 26.4876 13.037 26.4299 12.9603 26.3575C12.8836 26.285 12.824 26.1993 12.7852 26.1056C12.7464 26.0118 12.7292 25.9119 12.7346 25.812V14.7292C12.723 14.2462 12.5015 13.7865 12.1176 13.4486C11.7338 13.1107 11.2181 12.9215 10.681 12.9215C10.144 12.9215 9.62826 13.1107 9.24441 13.4486C8.86056 13.7865 8.63909 14.2462 8.62744 14.7292V25.812C8.63284 25.9119 8.61561 26.0118 8.57681 26.1056C8.53801 26.1993 8.47845 26.285 8.40173 26.3575C8.32501 26.4299 8.23274 26.4876 8.1305 26.527C8.02827 26.5664 7.9182 26.5867 7.80698 26.5867C7.69575 26.5867 7.58569 26.5664 7.48346 26.527C7.38122 26.4876 7.28895 26.4299 7.21223 26.3575C7.13551 26.285 7.07595 26.1993 7.03715 26.1056C6.99835 26.0118 6.98112 25.9119 6.98651 25.812V18.4237C6.99244 18.1778 6.94371 17.9332 6.84317 17.7044C6.74263 17.4756 6.59231 17.2672 6.40103 17.0914C6.20975 16.9156 5.98136 16.7758 5.72926 16.6805C5.47716 16.5851 5.20642 16.536 4.93293 16.536C4.65944 16.536 4.38871 16.5851 4.1366 16.6805C3.8845 16.7758 3.65612 16.9156 3.46484 17.0914C3.27356 17.2672 3.12324 17.4756 3.0227 17.7044C2.92216 17.9332 2.87343 18.1778 2.87936 18.4237V25.812C2.87936 26.9878 3.39861 28.1155 4.3229 28.9469C5.24719 29.7784 6.5008 30.2455 7.80794 30.2455H27.9277C29.2349 30.2455 30.4885 29.7784 31.4127 28.9469C32.337 28.1155 32.8563 26.9878 32.8563 25.812V18.0538C32.857 17.3367 32.6642 16.6302 32.2943 15.995C31.9244 15.3597 31.3885 14.8148 30.7327 14.407L30.7057 14.3905L30.6652 14.3662L19.2925 7.42686C19.2259 7.38432 19.1584 7.34003 19.0898 7.3027L19.0812 7.29836C18.2884 6.8429 17.3674 6.60089 16.4267 6.60089C15.486 6.60089 14.565 6.8429 13.7723 7.29836C13.6342 7.37747 13.5008 7.46297 13.3726 7.5545L12.7317 7.96607V6.60286C12.7376 6.3569 12.6889 6.11235 12.5884 5.88356C12.4878 5.65477 12.3375 5.44635 12.1462 5.27051C11.9549 5.09467 11.7266 4.95497 11.4745 4.85959C11.2224 4.76422 10.9516 4.71509 10.6781 4.71509C10.4046 4.71509 10.1339 4.76422 9.8818 4.85959C9.6297 4.95497 9.40131 5.09467 9.21003 5.27051C9.01875 5.44635 8.86843 5.65477 8.76789 5.88356C8.66736 6.11235 8.61862 6.3569 8.62455 6.60286V10.6057L2.13418 14.7735C1.47564 15.1807 0.937208 15.7259 0.565378 16.3622C0.193548 16.9985 -0.000497521 17.7066 9.57975e-07 18.4255V26.0603C9.57975e-07 26.3321 0.276063 26.5527 0.615832 26.5527C0.955602 26.5527 1.23263 26.3321 1.23263 26.0603V18.4237C1.2319 17.8948 1.37167 17.3734 1.64032 16.903C1.90896 16.4325 2.29869 16.0266 2.77704 15.719L9.85718 11.1735V6.60286C9.85179 6.50292 9.86902 6.40305 9.90781 6.30928C9.94662 6.21552 10.0062 6.12981 10.0829 6.05737C10.1596 5.98493 10.2519 5.92726 10.3541 5.88786C10.4564 5.84845 10.5664 5.82813 10.6776 5.82813C10.7889 5.82813 10.8989 5.84845 11.0012 5.88786C11.1034 5.92726 11.1957 5.98493 11.2724 6.05737C11.3491 6.12981 11.4087 6.21552 11.4475 6.30928C11.4863 6.40305 11.5035 6.50292 11.4981 6.60286V10.1177L11.6236 10.0369L12.1805 9.68007L14.417 8.24479C15.0158 7.89599 15.7139 7.7104 16.4272 7.7104C17.1405 7.7104 17.8386 7.89599 18.4373 8.24479L30.0899 15.3552C30.5651 15.663 30.9521 16.0681 31.2188 16.537C31.4855 17.006 31.6243 17.5253 31.6237 18.0521V25.8103C31.6237 26.2469 31.5281 26.6792 31.3423 27.0826C31.1566 27.4859 30.8844 27.8524 30.5412 28.1612C30.1979 28.4699 29.7905 28.7148 29.3421 28.8819C28.8937 29.0489 28.4131 29.1349 27.9277 29.1349H7.80408C7.31872 29.1349 6.83811 29.0489 6.3897 28.8819C5.94129 28.7148 5.53385 28.4699 5.19065 28.1612C4.84745 27.8524 4.5752 27.4859 4.38946 27.0826C4.20372 26.6792 4.10812 26.2469 4.10812 25.8103V18.4237C4.11835 18.2342 4.20925 18.0554 4.362 17.9245C4.51475 17.7936 4.71762 17.7206 4.92859 17.7206C5.13955 17.7206 5.34243 17.7936 5.49518 17.9245C5.64793 18.0554 5.73883 18.2342 5.74906 18.4237V25.812C5.74313 26.058 5.79186 26.3025 5.8924 26.5313C5.99294 26.7601 6.14326 26.9685 6.33454 27.1444C6.52582 27.3202 6.75421 27.4599 7.00631 27.5553C7.25841 27.6506 7.52915 27.6998 7.80264 27.6998C8.07613 27.6998 8.34686 27.6506 8.59896 27.5553C8.85106 27.4599 9.07946 27.3202 9.27073 27.1444C9.46201 26.9685 9.61233 26.7601 9.71287 26.5313C9.81341 26.3025 9.86214 26.058 9.85621 25.812V14.7292C9.85082 14.6292 9.86805 14.5294 9.90685 14.4356C9.94565 14.3418 10.0052 14.2561 10.0819 14.1837C10.1587 14.1112 10.2509 14.0536 10.3532 14.0142C10.4554 13.9748 10.5655 13.9544 10.6767 13.9544C10.7879 13.9544 10.898 13.9748 11.0002 14.0142C11.1024 14.0536 11.1947 14.1112 11.2714 14.1837C11.3481 14.2561 11.4077 14.3418 11.4465 14.4356C11.4853 14.5294 11.5025 14.6292 11.4971 14.7292V25.812C11.4912 26.058 11.54 26.3025 11.6405 26.5313C11.741 26.7601 11.8913 26.9685 12.0826 27.1444C12.2739 27.3202 12.5023 27.4599 12.7544 27.5553C13.0065 27.6506 13.2772 27.6998 13.5507 27.6998C13.8242 27.6998 14.095 27.6506 14.3471 27.5553C14.5992 27.4599 14.8275 27.3202 15.0188 27.1444C15.2101 26.9685 15.3604 26.7601 15.461 26.5313C15.5615 26.3025 15.6102 26.058 15.6043 25.812V11.0311C15.5989 10.9312 15.6161 10.8313 15.6549 10.7376C15.6937 10.6438 15.7533 10.5581 15.83 10.4856C15.9067 10.4132 15.999 10.3555 16.1012 10.3161C16.2035 10.2767 16.3135 10.2564 16.4248 10.2564C16.536 10.2564 16.6461 10.2767 16.7483 10.3161C16.8505 10.3555 16.9428 10.4132 17.0195 10.4856C17.0962 10.5581 17.1558 10.6438 17.1946 10.7376C17.2334 10.8313 17.2506 10.9312 17.2452 11.0311V25.812C17.2393 26.058 17.288 26.3025 17.3886 26.5313C17.4891 26.7601 17.6394 26.9685 17.8307 27.1444C18.022 27.3202 18.2504 27.4599 18.5025 27.5553C18.7546 27.6506 19.0253 27.6998 19.2988 27.6998C19.5723 27.6998 19.843 27.6506 20.0951 27.5553C20.3472 27.4599 20.5756 27.3202 20.7669 27.1444C20.9582 26.9685 21.1085 26.7601 21.2091 26.5313C21.3096 26.3025 21.3583 26.058 21.3524 25.812V14.7292C21.3626 14.5396 21.4535 14.3609 21.6063 14.23C21.759 14.0991 21.9619 14.0261 22.1729 14.0261C22.3838 14.0261 22.5867 14.0991 22.7395 14.23C22.8922 14.3609 22.9831 14.5396 22.9933 14.7292V25.812C22.9933 26.0545 23.0464 26.2947 23.1496 26.5188C23.2528 26.7428 23.404 26.9464 23.5947 27.1179C23.7853 27.2894 24.0116 27.4255 24.2607 27.5183C24.5098 27.6111 24.7768 27.6589 25.0464 27.6589C25.316 27.6589 25.583 27.6111 25.8321 27.5183C26.0812 27.4255 26.3075 27.2894 26.4982 27.1179C26.6888 26.9464 26.8401 26.7428 26.9432 26.5188C27.0464 26.2947 27.0995 26.0545 27.0995 25.812V18.0538C27.1097 17.8643 27.2007 17.6856 27.3534 17.5547C27.5061 17.4238 27.709 17.3507 27.92 17.3507C28.131 17.3507 28.3338 17.4238 28.4866 17.5547C28.6393 17.6856 28.7302 17.8643 28.7405 18.0538V25.9969C28.7468 26.1402 28.8144 26.2757 28.9293 26.375C29.0442 26.4744 29.1974 26.5298 29.3568 26.5298C29.5161 26.5298 29.6693 26.4744 29.7842 26.375C29.8991 26.2757 29.9668 26.1402 29.9731 25.9969V18.0538C29.9614 17.5709 29.74 17.1112 29.3561 16.7733C28.9723 16.4354 28.4566 16.2462 27.9195 16.2462C27.3824 16.2462 26.8667 16.4354 26.4829 16.7733C26.099 17.1112 25.8776 17.5709 25.8659 18.0538V25.812C25.8713 25.9119 25.8541 26.0118 25.8153 26.1056C25.7765 26.1993 25.7169 26.285 25.6402 26.3575C25.5635 26.4299 25.4712 26.4876 25.369 26.527C25.2668 26.5664 25.1567 26.5867 25.0455 26.5867C24.9342 26.5867 24.8242 26.5664 24.7219 26.527C24.6197 26.4876 24.5274 26.4299 24.4507 26.3575C24.374 26.285 24.3144 26.1993 24.2756 26.1056C24.2368 26.0118 24.2196 25.9119 24.225 25.812V14.7292C24.2134 14.2462 23.9919 13.7865 23.608 13.4486C23.2242 13.1107 22.7085 12.9215 22.1714 12.9215C21.6344 12.9215 21.1187 13.1107 20.7348 13.4486C20.351 13.7865 20.1295 14.2462 20.1178 14.7292V25.812C20.1232 25.9119 20.106 26.0118 20.0672 26.1056C20.0284 26.1993 19.9688 26.285 19.8921 26.3575C19.8154 26.4299 19.7231 26.4876 19.6209 26.527C19.5187 26.5664 19.4086 26.5867 19.2974 26.5867C19.1861 26.5867 19.0761 26.5664 18.9738 26.527C18.8716 26.4876 18.7793 26.4299 18.7026 26.3575C18.6259 26.285 18.5663 26.1993 18.5275 26.1056C18.4887 26.0118 18.4715 25.9119 18.4769 25.812V11.0311C18.4769 10.5413 18.2606 10.0716 17.8756 9.72521C17.4905 9.37886 16.9683 9.18428 16.4238 9.18428C15.8793 9.18428 15.3571 9.37886 14.972 9.72521C14.587 10.0716 14.3707 10.5413 14.3707 11.0311H14.3755Z" fill="#FAF39E"/>
</g>
</g>
<path d="M43.7138 13.4333C43.7138 13.2894 43.7009 13.1585 43.675 13.0405C43.6492 12.9225 43.5939 12.8137 43.5091 12.7141C43.428 12.6145 43.3081 12.515 43.1495 12.4154C42.9946 12.3158 42.7918 12.2125 42.541 12.1056C42.2423 11.9802 41.9528 11.8474 41.6725 11.7073C41.3922 11.5635 41.1396 11.3975 40.9146 11.2094C40.6896 11.0213 40.5108 10.8001 40.378 10.5456C40.2489 10.2874 40.1844 9.98502 40.1844 9.63835C40.1844 9.29906 40.2452 8.99111 40.3669 8.71452C40.4923 8.43792 40.6694 8.20189 40.898 8.00643C41.1267 7.80728 41.394 7.65423 41.7001 7.54727C42.0099 7.44032 42.3548 7.38685 42.7346 7.38685C43.2509 7.38685 43.6972 7.4938 44.0733 7.7077C44.4532 7.9216 44.7464 8.2148 44.9529 8.58728C45.1631 8.95976 45.2682 9.38757 45.2682 9.87069H43.6529C43.6529 9.64204 43.6197 9.44104 43.5533 9.26771C43.4906 9.09069 43.3892 8.95239 43.2491 8.85281C43.1089 8.75324 42.9282 8.70345 42.707 8.70345C42.5004 8.70345 42.3289 8.74586 42.1925 8.83069C42.0597 8.91182 41.9601 9.0243 41.8938 9.16813C41.8311 9.30828 41.7997 9.46686 41.7997 9.64388C41.7997 9.77665 41.8311 9.89651 41.8938 10.0035C41.9601 10.1067 42.0505 10.2008 42.1648 10.2856C42.2792 10.3667 42.4138 10.446 42.5687 10.5235C42.7272 10.6009 42.9006 10.6765 43.0887 10.7503C43.4538 10.8941 43.7765 11.0527 44.0568 11.226C44.337 11.3957 44.5712 11.5874 44.7593 11.8013C44.9474 12.0116 45.0894 12.2494 45.1853 12.515C45.2812 12.7805 45.3291 13.0829 45.3291 13.4222C45.3291 13.7578 45.2701 14.0639 45.1521 14.3405C45.0377 14.6134 44.8699 14.8494 44.6487 15.0486C44.4274 15.2441 44.16 15.3953 43.8465 15.5022C43.5367 15.6092 43.1901 15.6626 42.8065 15.6626C42.434 15.6626 42.0818 15.611 41.7499 15.5077C41.418 15.4008 41.1248 15.2404 40.8703 15.0265C40.6196 14.8089 40.4223 14.5341 40.2784 14.2022C40.1346 13.8666 40.0627 13.4701 40.0627 13.0128H41.6835C41.6835 13.2562 41.7075 13.4646 41.7555 13.6379C41.8034 13.8076 41.8772 13.944 41.9767 14.0473C42.0763 14.1469 42.198 14.2225 42.3418 14.2741C42.4894 14.3221 42.6572 14.346 42.8453 14.346C43.0592 14.346 43.2288 14.3055 43.3542 14.2243C43.4833 14.1432 43.5755 14.0344 43.6308 13.8979C43.6861 13.7615 43.7138 13.6066 43.7138 13.4333ZM49.7009 7.49749V15.552H48.0911V7.49749H49.7009ZM51.7035 7.49749V8.84175H46.1273V7.49749H51.7035ZM58.2162 10.8996V12.2439C58.2162 12.8118 58.1461 13.3097 58.006 13.7375C57.8695 14.1616 57.6741 14.5175 57.4196 14.8052C57.1688 15.0892 56.8646 15.3031 56.5068 15.4469C56.1528 15.5907 55.76 15.6626 55.3285 15.6626C54.897 15.6626 54.5024 15.5907 54.1447 15.4469C53.7906 15.3031 53.4845 15.0892 53.2264 14.8052C52.9719 14.5175 52.7746 14.1616 52.6345 13.7375C52.4943 13.3097 52.4242 12.8118 52.4242 12.2439V10.8996C52.4242 10.3169 52.4925 9.808 52.6289 9.37282C52.7654 8.93395 52.9627 8.56884 53.2208 8.27749C53.479 7.98245 53.7851 7.76118 54.1391 7.61366C54.4932 7.46245 54.886 7.38685 55.3174 7.38685C55.7489 7.38685 56.1417 7.46245 56.4958 7.61366C56.8498 7.76118 57.1559 7.98245 57.4141 8.27749C57.6722 8.56884 57.8695 8.93395 58.006 9.37282C58.1461 9.808 58.2162 10.3169 58.2162 10.8996ZM56.6064 12.2439V10.8886C56.6064 10.505 56.5787 10.1786 56.5234 9.90942C56.4681 9.63651 56.3851 9.41338 56.2745 9.24005C56.1638 9.06672 56.0292 8.93948 55.8706 8.85835C55.7121 8.77721 55.5277 8.73664 55.3174 8.73664C55.1072 8.73664 54.921 8.77721 54.7587 8.85835C54.6001 8.93948 54.4655 9.06672 54.3549 9.24005C54.2479 9.41338 54.1668 9.63651 54.1115 9.90942C54.0599 10.1786 54.034 10.505 54.034 10.8886V12.2439C54.034 12.6127 54.0617 12.928 54.117 13.1899C54.1723 13.4517 54.2553 13.6656 54.366 13.8316C54.4766 13.9975 54.6112 14.1211 54.7698 14.2022C54.9321 14.2797 55.1183 14.3184 55.3285 14.3184C55.535 14.3184 55.7176 14.2797 55.8762 14.2022C56.0384 14.1211 56.1731 13.9975 56.28 13.8316C56.387 13.6656 56.4681 13.4517 56.5234 13.1899C56.5787 12.928 56.6064 12.6127 56.6064 12.2439ZM62.2063 12.7141H60.5578V11.3698H62.2063C62.435 11.3698 62.6212 11.3182 62.765 11.215C62.9126 11.1117 63.0195 10.9697 63.0859 10.789C63.1523 10.6046 63.1855 10.3981 63.1855 10.1694C63.1855 9.93708 63.1504 9.72133 63.0804 9.52218C63.014 9.31934 62.9089 9.15523 62.765 9.02984C62.6249 8.90445 62.4387 8.84175 62.2063 8.84175H61.0778V15.552H59.4625V7.49749H62.2063C62.7484 7.49749 63.215 7.61181 63.6059 7.84047C63.9968 8.06912 64.2955 8.38444 64.5021 8.78643C64.7123 9.18473 64.8174 9.64204 64.8174 10.1584C64.8174 10.6784 64.7123 11.1301 64.5021 11.5137C64.2955 11.8935 63.9968 12.1886 63.6059 12.3988C63.215 12.609 62.7484 12.7141 62.2063 12.7141Z" fill="#F3F3F3"/>
<path d="M65.9752 7.49749H68.5586C69.097 7.49749 69.5562 7.58969 69.936 7.77408C70.3159 7.95848 70.6072 8.23139 70.8101 8.59281C71.0129 8.95423 71.1143 9.40048 71.1143 9.93154C71.1143 10.3667 71.0553 10.7392 70.9373 11.049C70.8193 11.3551 70.6515 11.6114 70.4339 11.8179C70.2163 12.0208 69.9563 12.183 69.6539 12.3047L69.1616 12.5979H67.065L67.0594 11.2537H68.5143C68.7356 11.2537 68.9182 11.2057 69.062 11.1098C69.2095 11.0103 69.3183 10.872 69.3884 10.695C69.4621 10.5142 69.499 10.304 69.499 10.0643C69.499 9.80984 69.4658 9.59225 69.3994 9.41154C69.3367 9.22714 69.2353 9.087 69.0952 8.99111C68.9587 8.89154 68.7799 8.84175 68.5586 8.84175H67.596V15.552H65.9752V7.49749ZM69.6318 15.552L68.1548 11.9618L69.8531 11.9562L71.3633 15.4746V15.552H69.6318ZM75.2262 8.93579L73.4947 15.552H71.7853L74.3023 7.49749H75.37L75.2262 8.93579ZM76.5926 15.552L74.85 8.93579L74.6896 7.49749H75.7738L78.313 15.552H76.5926ZM76.6534 12.5482V13.8924H73.0189V12.5482H76.6534ZM81.2521 15.552H79.8303L79.8414 14.2133H81.2521C81.643 14.2133 81.9472 14.1432 82.1648 14.0031C82.3824 13.8629 82.5355 13.6416 82.624 13.3392C82.7162 13.0368 82.7623 12.6404 82.7623 12.1499V10.8941C82.7623 10.5216 82.7383 10.2063 82.6904 9.94814C82.6424 9.68629 82.5613 9.47608 82.447 9.3175C82.3326 9.15523 82.1796 9.03537 81.9878 8.95792C81.796 8.88047 81.5582 8.84175 81.2742 8.84175H79.8027V7.49749H81.2742C81.7389 7.49749 82.1611 7.57309 82.541 7.7243C82.9209 7.8755 83.2472 8.09678 83.5202 8.38813C83.7931 8.67579 84.0033 9.03168 84.1508 9.4558C84.2983 9.87991 84.3721 10.363 84.3721 10.9052V12.1499C84.3721 12.6957 84.2983 13.1788 84.1508 13.5992C84.0033 14.0197 83.7931 14.3755 83.5202 14.6669C83.2509 14.9546 82.9246 15.174 82.541 15.3252C82.1575 15.4764 81.7278 15.552 81.2521 15.552ZM80.7708 7.49749V15.552H79.1499V7.49749H80.7708ZM87.3056 7.49749V15.552H85.6958V7.49749H87.3056ZM91.7715 8.93579L90.04 15.552H88.3306L90.8476 7.49749H91.9153L91.7715 8.93579ZM93.1379 15.552L91.3953 8.93579L91.2349 7.49749H92.3191L94.8583 15.552H93.1379ZM93.1987 12.5482V13.8924H89.5642V12.5482H93.1987ZM98.2399 7.49749V15.552H96.6301V7.49749H98.2399ZM100.242 7.49749V8.84175H94.6663V7.49749H100.242ZM106.755 10.8996V12.2439C106.755 12.8118 106.685 13.3097 106.545 13.7375C106.409 14.1616 106.213 14.5175 105.959 14.8052C105.708 15.0892 105.404 15.3031 105.046 15.4469C104.692 15.5907 104.299 15.6626 103.868 15.6626C103.436 15.6626 103.041 15.5907 102.684 15.4469C102.33 15.3031 102.024 15.0892 101.765 14.8052C101.511 14.5175 101.314 14.1616 101.173 13.7375C101.033 13.3097 100.963 12.8118 100.963 12.2439V10.8996C100.963 10.3169 101.031 9.808 101.168 9.37282C101.304 8.93395 101.502 8.56884 101.76 8.27749C102.018 7.98245 102.324 7.76118 102.678 7.61366C103.032 7.46245 103.425 7.38685 103.856 7.38685C104.288 7.38685 104.681 7.46245 105.035 7.61366C105.389 7.76118 105.695 7.98245 105.953 8.27749C106.211 8.56884 106.409 8.93395 106.545 9.37282C106.685 9.808 106.755 10.3169 106.755 10.8996ZM105.145 12.2439V10.8886C105.145 10.505 105.118 10.1786 105.062 9.90942C105.007 9.63651 104.924 9.41338 104.813 9.24005C104.703 9.06672 104.568 8.93948 104.41 8.85835C104.251 8.77721 104.067 8.73664 103.856 8.73664C103.646 8.73664 103.46 8.77721 103.298 8.85835C103.139 8.93948 103.005 9.06672 102.894 9.24005C102.787 9.41338 102.706 9.63651 102.65 9.90942C102.599 10.1786 102.573 10.505 102.573 10.8886V12.2439C102.573 12.6127 102.601 12.928 102.656 13.1899C102.711 13.4517 102.794 13.6656 102.905 13.8316C103.016 13.9975 103.15 14.1211 103.309 14.2022C103.471 14.2797 103.657 14.3184 103.868 14.3184C104.074 14.3184 104.257 14.2797 104.415 14.2022C104.577 14.1211 104.712 13.9975 104.819 13.8316C104.926 13.6656 105.007 13.4517 105.062 13.1899C105.118 12.928 105.145 12.6127 105.145 12.2439ZM108.007 7.49749H110.59C111.129 7.49749 111.588 7.58969 111.968 7.77408C112.348 7.95848 112.639 8.23139 112.842 8.59281C113.045 8.95423 113.146 9.40048 113.146 9.93154C113.146 10.3667 113.087 10.7392 112.969 11.049C112.851 11.3551 112.683 11.6114 112.466 11.8179C112.248 12.0208 111.988 12.183 111.686 12.3047L111.193 12.5979H109.097L109.091 11.2537H110.546C110.767 11.2537 110.95 11.2057 111.094 11.1098C111.241 11.0103 111.35 10.872 111.42 10.695C111.494 10.5142 111.531 10.304 111.531 10.0643C111.531 9.80984 111.498 9.59225 111.431 9.41154C111.369 9.22714 111.267 9.087 111.127 8.99111C110.991 8.89154 110.812 8.84175 110.59 8.84175H109.628V15.552H108.007V7.49749ZM111.664 15.552L110.187 11.9618L111.885 11.9562L113.395 15.4746V15.552H111.664ZM117.75 13.4333C117.75 13.2894 117.737 13.1585 117.712 13.0405C117.686 12.9225 117.63 12.8137 117.546 12.7141C117.465 12.6145 117.345 12.515 117.186 12.4154C117.031 12.3158 116.828 12.2125 116.578 12.1056C116.279 11.9802 115.989 11.8474 115.709 11.7073C115.429 11.5635 115.176 11.3975 114.951 11.2094C114.726 11.0213 114.547 10.8001 114.415 10.5456C114.286 10.2874 114.221 9.98502 114.221 9.63835C114.221 9.29906 114.282 8.99111 114.404 8.71452C114.529 8.43792 114.706 8.20189 114.935 8.00643C115.163 7.80728 115.431 7.65423 115.737 7.54727C116.047 7.44032 116.391 7.38685 116.771 7.38685C117.288 7.38685 117.734 7.4938 118.11 7.7077C118.49 7.9216 118.783 8.2148 118.99 8.58728C119.2 8.95976 119.305 9.38757 119.305 9.87069H117.689C117.689 9.64204 117.656 9.44104 117.59 9.26771C117.527 9.09069 117.426 8.95239 117.286 8.85281C117.146 8.75324 116.965 8.70345 116.744 8.70345C116.537 8.70345 116.366 8.74586 116.229 8.83069C116.096 8.91182 115.997 9.0243 115.93 9.16813C115.868 9.30828 115.836 9.46686 115.836 9.64388C115.836 9.77665 115.868 9.89651 115.93 10.0035C115.997 10.1067 116.087 10.2008 116.201 10.2856C116.316 10.3667 116.45 10.446 116.605 10.5235C116.764 10.6009 116.937 10.6765 117.125 10.7503C117.49 10.8941 117.813 11.0527 118.093 11.226C118.374 11.3957 118.608 11.5874 118.796 11.8013C118.984 12.0116 119.126 12.2494 119.222 12.515C119.318 12.7805 119.366 13.0829 119.366 13.4222C119.366 13.7578 119.307 14.0639 119.189 14.3405C119.074 14.6134 118.907 14.8494 118.685 15.0486C118.464 15.2441 118.197 15.3953 117.883 15.5022C117.573 15.6092 117.227 15.6626 116.843 15.6626C116.471 15.6626 116.118 15.611 115.787 15.5077C115.455 15.4008 115.161 15.2404 114.907 15.0265C114.656 14.8089 114.459 14.5341 114.315 14.2022C114.171 13.8666 114.099 13.4701 114.099 13.0128H115.72C115.72 13.2562 115.744 13.4646 115.792 13.6379C115.84 13.8076 115.914 13.944 116.013 14.0473C116.113 14.1469 116.235 14.2225 116.378 14.2741C116.526 14.3221 116.694 14.346 116.882 14.346C117.096 14.346 117.265 14.3055 117.391 14.2243C117.52 14.1432 117.612 14.0344 117.667 13.8979C117.723 13.7615 117.75 13.6066 117.75 13.4333Z" fill="white"/>
<path d="M41.9369 23.2916H40.7121L40.7055 22.7772H41.8174C42.0011 22.7772 42.1615 22.7462 42.2987 22.6842C42.4359 22.6223 42.5421 22.5338 42.6173 22.4187C42.6948 22.3014 42.7335 22.162 42.7335 22.0005C42.7335 21.8235 42.6992 21.6796 42.6306 21.569C42.5642 21.4561 42.4613 21.3743 42.3219 21.3234C42.1847 21.2703 42.0099 21.2437 41.7975 21.2437H40.8549V25.552H40.2143V20.7193H41.7975C42.0453 20.7193 42.2666 20.7447 42.4613 20.7956C42.6561 20.8443 42.8209 20.9218 42.9559 21.028C43.0931 21.132 43.1971 21.2647 43.2679 21.4263C43.3387 21.5878 43.3741 21.7814 43.3741 22.0071C43.3741 22.2063 43.3232 22.3866 43.2214 22.5482C43.1196 22.7075 42.978 22.838 42.7966 22.9398C42.6173 23.0416 42.4071 23.1069 42.1659 23.1356L41.9369 23.2916ZM41.907 25.552H40.4599L40.8217 25.0309H41.907C42.1106 25.0309 42.2832 24.9955 42.4248 24.9247C42.5687 24.8539 42.6782 24.7543 42.7534 24.626C42.8287 24.4954 42.8663 24.3416 42.8663 24.1646C42.8663 23.9854 42.8342 23.8305 42.77 23.6999C42.7058 23.5694 42.6052 23.4687 42.468 23.3979C42.3308 23.3271 42.1538 23.2916 41.9369 23.2916H41.0241L41.0308 22.7772H42.2788L42.4149 22.9631C42.6472 22.983 42.8441 23.0493 43.0057 23.1622C43.1672 23.2728 43.29 23.4145 43.3741 23.5871C43.4604 23.7597 43.5036 23.95 43.5036 24.158C43.5036 24.4589 43.4372 24.7134 43.3044 24.9214C43.1739 25.1271 42.9891 25.2843 42.7501 25.3927C42.5111 25.4989 42.2301 25.552 41.907 25.552ZM47.3671 24.0152H48.0043C47.9712 24.3206 47.8838 24.5939 47.7421 24.8351C47.6005 25.0763 47.4003 25.2677 47.1414 25.4093C46.8825 25.5487 46.5594 25.6184 46.1722 25.6184C45.8889 25.6184 45.6311 25.5653 45.3988 25.4591C45.1687 25.3529 44.9706 25.2024 44.8047 25.0077C44.6387 24.8107 44.5104 24.5751 44.4196 24.3007C44.3311 24.0241 44.2869 23.7165 44.2869 23.3779V22.8967C44.2869 22.5581 44.3311 22.2516 44.4196 21.9773C44.5104 21.7007 44.6398 21.4639 44.808 21.267C44.9784 21.07 45.1831 20.9184 45.422 20.8122C45.661 20.706 45.9299 20.6529 46.2286 20.6529C46.5937 20.6529 46.9024 20.7215 47.1546 20.8587C47.4069 20.9959 47.6027 21.1862 47.7421 21.4296C47.8838 21.6708 47.9712 21.9507 48.0043 22.2693H47.3671C47.3361 22.0436 47.2786 21.85 47.1945 21.6885C47.1104 21.5247 46.9909 21.3986 46.836 21.3101C46.6811 21.2216 46.4786 21.1773 46.2286 21.1773C46.014 21.1773 45.8248 21.2183 45.661 21.3001C45.4995 21.382 45.3634 21.4982 45.2528 21.6487C45.1443 21.7991 45.0625 21.9795 45.0071 22.1897C44.9518 22.3999 44.9242 22.6333 44.9242 22.89V23.3779C44.9242 23.6147 44.9485 23.8371 44.9972 24.0451C45.0481 24.2531 45.1244 24.4357 45.2262 24.5928C45.328 24.7499 45.4574 24.8738 45.6145 24.9645C45.7717 25.053 45.9575 25.0973 46.1722 25.0973C46.4443 25.0973 46.6612 25.0541 46.8227 24.9678C46.9843 24.8815 47.106 24.7576 47.1878 24.5961C47.2719 24.4345 47.3317 24.2409 47.3671 24.0152ZM51.9475 25.0309V25.552H49.3884V25.0309H51.9475ZM49.5179 20.7193V25.552H48.8773V20.7193H49.5179ZM51.609 22.7971V23.3182H49.3884V22.7971H51.609ZM51.9143 20.7193V21.2437H49.3884V20.7193H51.9143ZM55.0941 24.4434L57.4739 20.7193H58.1145V25.552H57.4739V21.8246L55.0941 25.552H54.4568V20.7193H55.0941V24.4434ZM62.4361 22.7971V23.3182H59.8206V22.7971H62.4361ZM59.9202 20.7193V25.552H59.2796V20.7193H59.9202ZM62.9937 20.7193V25.552H62.3564V20.7193H62.9937ZM65.576 23.3448L63.8501 20.7193H64.6002L65.8847 22.8137H66.7942L66.6913 23.3448H65.576ZM65.9212 23.295L64.5172 25.552H63.7206L65.5163 22.744L65.9212 23.295ZM67.0696 20.7193V25.552H66.4357V20.7193H67.0696ZM69.632 20.7193L67.8994 23.3448H66.8174L66.7178 22.8137H67.5941L68.8786 20.7193H69.632ZM68.9616 25.552L67.5609 23.295L67.9691 22.744L69.7582 25.552H68.9616ZM73.4358 25.0309V25.552H70.8767V25.0309H73.4358ZM71.0062 20.7193V25.552H70.3656V20.7193H71.0062ZM73.0973 22.7971V23.3182H70.8767V22.7971H73.0973ZM73.4026 20.7193V21.2437H70.8767V20.7193H73.4026ZM77.3856 22.7971V23.3182H74.7701V22.7971H77.3856ZM74.8697 20.7193V25.552H74.2291V20.7193H74.8697ZM77.9432 20.7193V25.552H77.306V20.7193H77.9432ZM82.1519 25.0309V25.552H79.5929V25.0309H82.1519ZM79.7223 20.7193V25.552H79.0817V20.7193H79.7223ZM81.8134 22.7971V23.3182H79.5929V22.7971H81.8134ZM82.1188 20.7193V21.2437H79.5929V20.7193H82.1188ZM84.7276 23.6568H83.4365V23.1356H84.7276C84.9777 23.1356 85.1801 23.0958 85.335 23.0162C85.4899 22.9365 85.6028 22.8259 85.6736 22.6842C85.7466 22.5426 85.7831 22.3811 85.7831 22.1996C85.7831 22.0337 85.7466 21.8777 85.6736 21.7316C85.6028 21.5856 85.4899 21.4683 85.335 21.3798C85.1801 21.2891 84.9777 21.2437 84.7276 21.2437H83.5858V25.552H82.9452V20.7193H84.7276C85.0927 20.7193 85.4014 20.7824 85.6537 20.9085C85.9059 21.0346 86.0973 21.2094 86.2279 21.4329C86.3584 21.6542 86.4237 21.9076 86.4237 22.193C86.4237 22.5028 86.3584 22.7672 86.2279 22.9863C86.0973 23.2054 85.9059 23.3724 85.6537 23.4875C85.4014 23.6003 85.0927 23.6568 84.7276 23.6568ZM90.3901 22.7971V23.3182H87.7746V22.7971H90.3901ZM87.8742 20.7193V25.552H87.2336V20.7193H87.8742ZM90.9477 20.7193V25.552H90.3105V20.7193H90.9477ZM92.604 22.6876H93.9217C94.2758 22.6876 94.5745 22.7473 94.8179 22.8668C95.0613 22.9841 95.2461 23.1489 95.3722 23.3614C95.4983 23.5738 95.5614 23.8227 95.5614 24.1082C95.5614 24.3206 95.526 24.5153 95.4552 24.6923C95.3844 24.8671 95.2793 25.0198 95.1398 25.1504C95.0004 25.2787 94.829 25.3783 94.6254 25.4491C94.4218 25.5177 94.1872 25.552 93.9217 25.552H92.1161V20.7193H92.7567V25.0309H93.9217C94.1585 25.0309 94.3499 24.9877 94.4959 24.9014C94.6442 24.8129 94.7526 24.6979 94.8212 24.5563C94.8898 24.4146 94.9241 24.2631 94.9241 24.1015C94.9241 23.94 94.8898 23.7917 94.8212 23.6568C94.7526 23.5218 94.6442 23.4145 94.4959 23.3348C94.3499 23.2529 94.1585 23.212 93.9217 23.212H92.604V22.6876ZM96.7862 20.7193V25.552H96.1456V20.7193H96.7862ZM101.038 25.0309V25.552H98.4789V25.0309H101.038ZM98.6084 20.7193V25.552H97.9678V20.7193H98.6084ZM100.699 22.7971V23.3182H98.4789V22.7971H100.699ZM101.005 20.7193V21.2437H98.4789V20.7193H101.005ZM106.435 24.0152H107.072C107.039 24.3206 106.952 24.5939 106.81 24.8351C106.668 25.0763 106.468 25.2677 106.209 25.4093C105.95 25.5487 105.627 25.6184 105.24 25.6184C104.957 25.6184 104.699 25.5653 104.467 25.4591C104.237 25.3529 104.039 25.2024 103.873 25.0077C103.707 24.8107 103.578 24.5751 103.488 24.3007C103.399 24.0241 103.355 23.7165 103.355 23.3779V22.8967C103.355 22.5581 103.399 22.2516 103.488 21.9773C103.578 21.7007 103.708 21.4639 103.876 21.267C104.046 21.07 104.251 20.9184 104.49 20.8122C104.729 20.706 104.998 20.6529 105.297 20.6529C105.662 20.6529 105.97 20.7215 106.223 20.8587C106.475 20.9959 106.671 21.1862 106.81 21.4296C106.952 21.6708 107.039 21.9507 107.072 22.2693H106.435C106.404 22.0436 106.346 21.85 106.262 21.6885C106.178 21.5247 106.059 21.3986 105.904 21.3101C105.749 21.2216 105.547 21.1773 105.297 21.1773C105.082 21.1773 104.893 21.2183 104.729 21.3001C104.567 21.382 104.431 21.4982 104.321 21.6487C104.212 21.7991 104.13 21.9795 104.075 22.1897C104.02 22.3999 103.992 22.6333 103.992 22.89V23.3779C103.992 23.6147 104.016 23.8371 104.065 24.0451C104.116 24.2531 104.192 24.4357 104.294 24.5928C104.396 24.7499 104.525 24.8738 104.682 24.9645C104.84 25.053 105.025 25.0973 105.24 25.0973C105.512 25.0973 105.729 25.0541 105.891 24.9678C106.052 24.8815 106.174 24.7576 106.256 24.5961C106.34 24.4345 106.4 24.2409 106.435 24.0152ZM111.015 25.0309V25.552H108.456V25.0309H111.015ZM108.586 20.7193V25.552H107.945V20.7193H108.586ZM110.677 22.7971V23.3182H108.456V22.7971H110.677ZM110.982 20.7193V21.2437H108.456V20.7193H110.982ZM113.661 20.7193V25.552H113.03V20.7193H113.661ZM115.214 20.7193V21.2437H111.48V20.7193H115.214ZM116.598 24.4434L118.978 20.7193H119.619V25.552H118.978V21.8246L116.598 25.552H115.961V20.7193H116.598V24.4434Z" fill="#C9CCCF"/>
<defs>
<clipPath id="clip0_1_44533">
<rect width="32.8553" height="33.9883" fill="white" transform="translate(0 0.505859)"/>
</clipPath>
<clipPath id="clip1_1_44533">
<rect width="32.8553" height="25.4912" fill="white" transform="translate(0 4.75439)"/>
</clipPath>
</defs>
</svg>
