<svg width="254" height="56" viewBox="0 0 254 56" fill="none" xmlns="http://www.w3.org/2000/svg">
<g clip-path="url(#clip0_3_5053)">
<path fill-rule="evenodd" clip-rule="evenodd" d="M30.9655 13.027V43.7038C30.9771 43.9112 30.94 44.1185 30.8564 44.3131C30.7728 44.5077 30.6445 44.6856 30.4793 44.8359C30.314 44.9863 30.1153 45.106 29.8951 45.1878C29.6749 45.2696 29.4378 45.3117 29.1982 45.3117C28.9587 45.3117 28.7216 45.2696 28.5014 45.1878C28.2812 45.106 28.0824 44.9863 27.9172 44.8359C27.752 44.6856 27.6237 44.5077 27.5401 44.3131C27.4565 44.1185 27.4194 43.9112 27.431 43.7038V20.7021C27.406 19.6996 26.9289 18.7456 26.1021 18.0443C25.2753 17.3431 24.1646 16.9504 23.0078 16.9504C21.851 16.9504 20.7402 17.3431 19.9134 18.0443C19.0866 18.7456 18.6096 19.6996 18.5845 20.7021V43.7038C18.5961 43.9112 18.559 44.1185 18.4755 44.3131C18.3919 44.5077 18.2636 44.6856 18.0984 44.8359C17.9331 44.9863 17.7344 45.106 17.5142 45.1878C17.294 45.2696 17.0569 45.3117 16.8173 45.3117C16.5777 45.3117 16.3407 45.2696 16.1205 45.1878C15.9003 45.106 15.7015 44.9863 15.5363 44.8359C15.371 44.6856 15.2427 44.5077 15.1592 44.3131C15.0756 44.1185 15.0385 43.9112 15.0501 43.7038V28.3699C15.0629 27.8595 14.9579 27.3519 14.7413 26.8771C14.5248 26.4022 14.201 25.9697 13.789 25.6047C13.377 25.2398 12.8851 24.9498 12.3421 24.7519C11.7991 24.5539 11.2159 24.452 10.6269 24.452C10.0378 24.452 9.45463 24.5539 8.91162 24.7519C8.36862 24.9498 7.87669 25.2398 7.46469 25.6047C7.05269 25.9697 6.72891 26.4022 6.51236 26.8771C6.29581 27.3519 6.19084 27.8595 6.20361 28.3699V43.7038C6.20361 46.1442 7.32205 48.4846 9.3129 50.2102C11.3037 51.9358 14.0039 52.9053 16.8194 52.9053H60.1558C62.9712 52.9053 65.6714 51.9358 67.6623 50.2102C69.6531 48.4846 70.7715 46.1442 70.7715 43.7038V27.6022C70.7732 26.1139 70.3577 24.6475 69.561 23.3292C68.7643 22.0108 67.61 20.8798 66.1976 20.0335L66.1394 19.9993L66.052 19.9488L41.5563 5.54658C41.4128 5.45828 41.2673 5.36637 41.1197 5.28889L41.101 5.27987C39.3934 4.3346 37.4096 3.83233 35.3835 3.83233C33.3574 3.83233 31.3736 4.3346 29.666 5.27987C29.3687 5.44408 29.0814 5.62152 28.8053 5.81149L27.4248 6.66567V3.83641C27.4376 3.32594 27.3326 2.81839 27.116 2.34355C26.8995 1.86871 26.5757 1.43614 26.1637 1.0712C25.7517 0.706266 25.2598 0.416319 24.7168 0.21837C24.1738 0.0204213 23.5906 -0.081543 23.0015 -0.081543C22.4125 -0.081543 21.8293 0.0204213 21.2863 0.21837C20.7433 0.416319 20.2514 0.706266 19.8394 1.0712C19.4274 1.43614 19.1036 1.86871 18.8871 2.34355C18.6705 2.81839 18.5655 3.32594 18.5783 3.83641V12.144L4.59856 20.794C3.18013 21.6391 2.02038 22.7708 1.21949 24.0914C0.418595 25.4119 0.000637363 26.8816 0.00171105 28.3735V44.2192C0.00171105 44.7833 0.596326 45.241 1.32816 45.241C2.06 45.241 2.6567 44.7833 2.6567 44.2192V28.3699C2.65512 27.2722 2.95619 26.1901 3.53482 25.2136C4.11345 24.2372 4.9529 23.3947 5.98323 22.7564L21.2333 13.3226V3.83641C21.2217 3.629 21.2588 3.42171 21.3423 3.22711C21.4259 3.0325 21.5542 2.85464 21.7195 2.70429C21.8847 2.55394 22.0835 2.43425 22.3037 2.35247C22.5239 2.27068 22.7609 2.22852 23.0005 2.22852C23.2401 2.22852 23.4771 2.27068 23.6973 2.35247C23.9176 2.43425 24.1163 2.55394 24.2815 2.70429C24.4468 2.85464 24.5751 3.0325 24.6587 3.22711C24.7422 3.42171 24.7793 3.629 24.7677 3.83641V11.1312L25.038 10.9636L26.2376 10.223L31.0549 7.24414C32.3445 6.52022 33.8481 6.13505 35.3845 6.13505C36.921 6.13505 38.4246 6.52022 39.7142 7.24414L64.8129 22.0014C65.8366 22.6401 66.6701 23.4809 67.2446 24.4542C67.819 25.4275 68.1179 26.5054 68.1166 27.5986V43.7002C68.1166 44.6064 67.9107 45.5036 67.5106 46.3408C67.1105 47.178 66.5241 47.9386 65.7849 48.5794C65.0457 49.2201 64.1681 49.7284 63.2022 50.0751C62.2364 50.4219 61.2012 50.6004 60.1558 50.6004H16.8111C15.7657 50.6004 14.7305 50.4219 13.7646 50.0751C12.7988 49.7284 11.9212 49.2201 11.1819 48.5794C10.4427 47.9386 9.85633 47.178 9.45626 46.3408C9.05619 45.5036 8.85028 44.6064 8.85028 43.7002V28.3699C8.8723 27.9765 9.0681 27.6056 9.39711 27.3339C9.72611 27.0622 10.1631 26.9107 10.6175 26.9107C11.0719 26.9107 11.5089 27.0622 11.8379 27.3339C12.1669 27.6056 12.3627 27.9765 12.3847 28.3699V43.7038C12.3719 44.2143 12.4769 44.7218 12.6935 45.1967C12.91 45.6715 13.2338 46.1041 13.6458 46.469C14.0578 46.834 14.5497 47.1239 15.0927 47.3219C15.6357 47.5198 16.2189 47.6218 16.808 47.6218C17.397 47.6218 17.9802 47.5198 18.5232 47.3219C19.0662 47.1239 19.5581 46.834 19.9701 46.469C20.3821 46.1041 20.7059 45.6715 20.9225 45.1967C21.139 44.7218 21.244 44.2143 21.2312 43.7038V20.7021C21.2196 20.4947 21.2567 20.2874 21.3403 20.0928C21.4238 19.8982 21.5521 19.7203 21.7174 19.57C21.8826 19.4196 22.0814 19.2999 22.3016 19.2181C22.5218 19.1364 22.7589 19.0942 22.9984 19.0942C23.238 19.0942 23.4751 19.1364 23.6953 19.2181C23.9155 19.2999 24.1142 19.4196 24.2795 19.57C24.4447 19.7203 24.573 19.8982 24.6566 20.0928C24.7401 20.2874 24.7773 20.4947 24.7656 20.7021V43.7038C24.7529 44.2143 24.8578 44.7218 25.0744 45.1967C25.2909 45.6715 25.6147 46.1041 26.0267 46.469C26.4387 46.834 26.9307 47.1239 27.4737 47.3219C28.0167 47.5198 28.5998 47.6218 29.1889 47.6218C29.778 47.6218 30.3611 47.5198 30.9041 47.3219C31.4471 47.1239 31.9391 46.834 32.3511 46.469C32.7631 46.1041 33.0868 45.6715 33.3034 45.1967C33.5199 44.7218 33.6249 44.2143 33.6121 43.7038V13.027C33.6005 12.8196 33.6376 12.6123 33.7212 12.4177C33.8048 12.2231 33.9331 12.0452 34.0983 11.8949C34.2636 11.7446 34.4623 11.6249 34.6825 11.5431C34.9027 11.4613 35.1398 11.4191 35.3794 11.4191C35.6189 11.4191 35.856 11.4613 36.0762 11.5431C36.2964 11.6249 36.4952 11.7446 36.6604 11.8949C36.8256 12.0452 36.9539 12.2231 37.0375 12.4177C37.1211 12.6123 37.1582 12.8196 37.1466 13.027V43.7038C37.1338 44.2143 37.2388 44.7218 37.4553 45.1967C37.6719 45.6715 37.9956 46.1041 38.4076 46.469C38.8196 46.834 39.3116 47.1239 39.8546 47.3219C40.3976 47.5198 40.9807 47.6218 41.5698 47.6218C42.1589 47.6218 42.742 47.5198 43.285 47.3219C43.828 47.1239 44.32 46.834 44.732 46.469C45.144 46.1041 45.4678 45.6715 45.6843 45.1967C45.9009 44.7218 46.0058 44.2143 45.9931 43.7038V20.7021C46.0151 20.3087 46.2109 19.9377 46.5399 19.666C46.8689 19.3944 47.3059 19.2428 47.7603 19.2428C48.2147 19.2428 48.6517 19.3944 48.9807 19.666C49.3097 19.9377 49.5055 20.3087 49.5275 20.7021V43.7038C49.5275 44.2072 49.6419 44.7056 49.8641 45.1707C50.0864 45.6357 50.4121 46.0583 50.8227 46.4142C51.2334 46.7701 51.7209 47.0525 52.2574 47.2451C52.7939 47.4377 53.369 47.5369 53.9497 47.5369C54.5304 47.5369 55.1055 47.4377 55.642 47.2451C56.1785 47.0525 56.666 46.7701 57.0767 46.4142C57.4873 46.0583 57.813 45.6357 58.0353 45.1707C58.2575 44.7056 58.3719 44.2072 58.3719 43.7038V27.6022C58.3939 27.2088 58.5897 26.8379 58.9187 26.5662C59.2477 26.2945 59.6847 26.143 60.1391 26.143C60.5935 26.143 61.0305 26.2945 61.3595 26.5662C61.6885 26.8379 61.8843 27.2088 61.9063 27.6022V44.0877C61.9199 44.385 62.0657 44.6662 62.3132 44.8723C62.5607 45.0785 62.8906 45.1937 63.2338 45.1937C63.5771 45.1937 63.907 45.0785 64.1545 44.8723C64.402 44.6662 64.5478 44.385 64.5613 44.0877V27.6022C64.5363 26.5998 64.0592 25.6458 63.2324 24.9445C62.4057 24.2432 61.2949 23.8505 60.1381 23.8505C58.9813 23.8505 57.8705 24.2432 57.0437 24.9445C56.2169 25.6458 55.7399 26.5998 55.7148 27.6022V43.7038C55.7265 43.9112 55.6894 44.1185 55.6058 44.3131C55.5222 44.5077 55.3939 44.6856 55.2287 44.8359C55.0634 44.9863 54.8647 45.106 54.6445 45.1878C54.4243 45.2696 54.1872 45.3117 53.9476 45.3117C53.7081 45.3117 53.471 45.2696 53.2508 45.1878C53.0306 45.106 52.8318 44.9863 52.6666 44.8359C52.5013 44.6856 52.373 44.5077 52.2895 44.3131C52.2059 44.1185 52.1688 43.9112 52.1804 43.7038V20.7021C52.1553 19.6996 51.6783 18.7456 50.8515 18.0443C50.0247 17.3431 48.9139 16.9504 47.7572 16.9504C46.6004 16.9504 45.4896 17.3431 44.6628 18.0443C43.836 18.7456 43.359 19.6996 43.3339 20.7021V43.7038C43.3455 43.9112 43.3084 44.1185 43.2248 44.3131C43.1413 44.5077 43.013 44.6856 42.8477 44.8359C42.6825 44.9863 42.4837 45.106 42.2635 45.1878C42.0433 45.2696 41.8063 45.3117 41.5667 45.3117C41.3271 45.3117 41.0901 45.2696 40.8699 45.1878C40.6497 45.106 40.4509 44.9863 40.2857 44.8359C40.1204 44.6856 39.9921 44.5077 39.9085 44.3131C39.825 44.1185 39.7879 43.9112 39.7995 43.7038V13.027C39.7995 12.0104 39.3336 11.0355 38.5042 10.3167C37.6749 9.59783 36.5501 9.19399 35.3773 9.19399C34.2044 9.19399 33.0796 9.59783 32.2503 10.3167C31.421 11.0355 30.9551 12.0104 30.9551 13.027H30.9655Z" fill="#FAF39E"/>
</g>
<path d="M94.1858 22.7526C94.1858 22.4565 94.1592 22.1869 94.106 21.9439C94.0529 21.701 93.939 21.477 93.7644 21.272C93.5973 21.067 93.3505 20.862 93.024 20.6569C92.7051 20.4519 92.2875 20.2393 91.7712 20.0191C91.1562 19.761 90.5601 19.4876 89.9831 19.1991C89.406 18.903 88.8859 18.5613 88.4227 18.174C87.9595 17.7868 87.5913 17.3312 87.3179 16.8073C87.0522 16.2758 86.9193 15.6532 86.9193 14.9395C86.9193 14.2409 87.0446 13.6069 87.2952 13.0374C87.5533 12.4679 87.9178 11.982 88.3885 11.5796C88.8593 11.1696 89.4098 10.8544 90.04 10.6343C90.6778 10.4141 91.3878 10.304 92.1698 10.304C93.2328 10.304 94.1516 10.5242 94.9261 10.9645C95.7082 11.4049 96.3118 12.0086 96.737 12.7755C97.1698 13.5424 97.3862 14.4231 97.3862 15.4178H94.0605C94.0605 14.947 93.9921 14.5332 93.8555 14.1764C93.7264 13.8119 93.5176 13.5272 93.2291 13.3222C92.9405 13.1171 92.5685 13.0146 92.1129 13.0146C91.6877 13.0146 91.3346 13.102 91.0537 13.2766C90.7803 13.4436 90.5753 13.6752 90.4386 13.9714C90.3096 14.2599 90.245 14.5864 90.245 14.9508C90.245 15.2242 90.3096 15.471 90.4386 15.6912C90.5753 15.9038 90.7613 16.0974 90.9967 16.272C91.2321 16.4391 91.5092 16.6023 91.8282 16.7618C92.1547 16.9212 92.5115 17.0769 92.8988 17.2287C93.6505 17.5249 94.3148 17.8513 94.8919 18.2082C95.469 18.5575 95.9511 18.9523 96.3384 19.3927C96.7256 19.8255 97.0179 20.3153 97.2154 20.862C97.4128 21.4086 97.5115 22.0313 97.5115 22.7298C97.5115 23.4208 97.39 24.051 97.147 24.6205C96.9116 25.1823 96.5662 25.6683 96.1106 26.0783C95.655 26.4807 95.1045 26.792 94.4591 27.0122C93.8213 27.2324 93.1076 27.3425 92.3179 27.3425C91.551 27.3425 90.8259 27.2362 90.1425 27.0236C89.4592 26.8034 88.8555 26.4731 88.3316 26.0328C87.8153 25.5848 87.4091 25.0191 87.1129 24.3357C86.8168 23.6448 86.6687 22.8285 86.6687 21.887H90.0058C90.0058 22.3881 90.0552 22.8171 90.1539 23.174C90.2526 23.5233 90.4045 23.8042 90.6095 24.0168C90.8145 24.2218 91.0651 24.3775 91.3612 24.4838C91.6649 24.5825 92.0104 24.6319 92.3976 24.6319C92.838 24.6319 93.1873 24.5483 93.4455 24.3813C93.7112 24.2142 93.901 23.9902 94.0149 23.7093C94.1288 23.4284 94.1858 23.1095 94.1858 22.7526ZM106.512 10.5317V27.1147H103.198V10.5317H106.512ZM110.635 10.5317V13.2994H99.1548V10.5317H110.635ZM124.044 17.5362V20.3039C124.044 21.4732 123.9 22.4982 123.611 23.379C123.33 24.2522 122.928 24.9849 122.404 25.5772C121.888 26.1618 121.261 26.6022 120.525 26.8983C119.796 27.1945 118.987 27.3425 118.099 27.3425C117.21 27.3425 116.398 27.1945 115.661 26.8983C114.932 26.6022 114.302 26.1618 113.771 25.5772C113.247 24.9849 112.841 24.2522 112.552 23.379C112.264 22.4982 112.119 21.4732 112.119 20.3039V17.5362C112.119 16.3366 112.26 15.2887 112.541 14.3928C112.822 13.4892 113.228 12.7375 113.759 12.1377C114.291 11.5302 114.921 11.0746 115.65 10.7709C116.379 10.4596 117.188 10.304 118.076 10.304C118.964 10.304 119.773 10.4596 120.502 10.7709C121.231 11.0746 121.861 11.5302 122.393 12.1377C122.924 12.7375 123.33 13.4892 123.611 14.3928C123.9 15.2887 124.044 16.3366 124.044 17.5362ZM120.73 20.3039V17.5135C120.73 16.7238 120.673 16.0518 120.559 15.4975C120.445 14.9357 120.274 14.4763 120.046 14.1194C119.819 13.7625 119.541 13.5006 119.215 13.3335C118.888 13.1665 118.509 13.083 118.076 13.083C117.643 13.083 117.26 13.1665 116.926 13.3335C116.599 13.5006 116.322 13.7625 116.094 14.1194C115.874 14.4763 115.707 14.9357 115.593 15.4975C115.487 16.0518 115.434 16.7238 115.434 17.5135V20.3039C115.434 21.0632 115.491 21.7124 115.604 22.2515C115.718 22.7906 115.889 23.231 116.117 23.5726C116.345 23.9143 116.622 24.1687 116.948 24.3357C117.282 24.4952 117.666 24.5749 118.099 24.5749C118.524 24.5749 118.9 24.4952 119.226 24.3357C119.56 24.1687 119.838 23.9143 120.058 23.5726C120.278 23.231 120.445 22.7906 120.559 22.2515C120.673 21.7124 120.73 21.0632 120.73 20.3039ZM132.259 21.272H128.865V18.5043H132.259C132.73 18.5043 133.113 18.398 133.409 18.1854C133.713 17.9728 133.933 17.6805 134.07 17.3085C134.207 16.9288 134.275 16.5036 134.275 16.0328C134.275 15.5545 134.203 15.1103 134.059 14.7003C133.922 14.2827 133.706 13.9448 133.409 13.6866C133.121 13.4285 132.737 13.2994 132.259 13.2994H129.936V27.1147H126.61V10.5317H132.259C133.375 10.5317 134.336 10.7671 135.141 11.2379C135.945 11.7087 136.56 12.3579 136.986 13.1855C137.418 14.0055 137.635 14.947 137.635 16.0101C137.635 17.0807 137.418 18.0108 136.986 18.8005C136.56 19.5825 135.945 20.19 135.141 20.6228C134.336 21.0556 133.375 21.272 132.259 21.272Z" fill="#F3F3F3"/>
<path d="M140.019 10.5317H145.337C146.446 10.5317 147.391 10.7216 148.173 11.1012C148.955 11.4809 149.555 12.0427 149.973 12.7869C150.391 13.531 150.599 14.4497 150.599 15.5431C150.599 16.4391 150.478 17.2059 150.235 17.8438C149.992 18.474 149.646 19.0017 149.198 19.4269C148.75 19.8445 148.215 20.1786 147.593 20.4292L146.579 21.0328H142.262L142.251 18.2652H145.246C145.702 18.2652 146.078 18.1665 146.374 17.969C146.678 17.764 146.902 17.4793 147.046 17.1148C147.198 16.7428 147.274 16.31 147.274 15.8164C147.274 15.2925 147.205 14.8445 147.069 14.4725C146.94 14.0928 146.731 13.8043 146.442 13.6069C146.161 13.4019 145.793 13.2994 145.337 13.2994H143.356V27.1147H140.019V10.5317ZM147.547 27.1147L144.506 19.723L148.003 19.7116L151.112 26.9553V27.1147H147.547ZM159.065 13.493L155.5 27.1147H151.981L157.163 10.5317H159.361L159.065 13.493ZM161.878 27.1147L158.29 13.493L157.96 10.5317H160.192L165.42 27.1147H161.878ZM162.003 20.9303V23.6979H154.521V20.9303H162.003ZM171.471 27.1147H168.544L168.567 24.3585H171.471C172.276 24.3585 172.903 24.2142 173.351 23.9257C173.799 23.6372 174.114 23.1816 174.296 22.559C174.486 21.9364 174.581 21.1201 174.581 20.1103V17.5249C174.581 16.758 174.531 16.1088 174.433 15.5773C174.334 15.0382 174.167 14.6054 173.931 14.2789C173.696 13.9448 173.381 13.698 172.986 13.5386C172.591 13.3791 172.102 13.2994 171.517 13.2994H168.487V10.5317H171.517C172.474 10.5317 173.343 10.6874 174.125 10.9987C174.907 11.31 175.579 11.7656 176.141 12.3654C176.703 12.9577 177.136 13.6904 177.439 14.5636C177.743 15.4368 177.895 16.4315 177.895 17.5476V20.1103C177.895 21.234 177.743 22.2287 177.439 23.0943C177.136 23.9599 176.703 24.6926 176.141 25.2924C175.587 25.8847 174.915 26.3365 174.125 26.6478C173.335 26.9591 172.451 27.1147 171.471 27.1147ZM170.48 10.5317V27.1147H167.143V10.5317H170.48ZM183.935 10.5317V27.1147H180.62V10.5317H183.935ZM193.129 13.493L189.564 27.1147H186.045L191.227 10.5317H193.425L193.129 13.493ZM195.942 27.1147L192.355 13.493L192.024 10.5317H194.257L199.484 27.1147H195.942ZM196.068 20.9303V23.6979H188.585V20.9303H196.068ZM206.447 10.5317V27.1147H203.132V10.5317H206.447ZM210.57 10.5317V13.2994H199.089V10.5317H210.57ZM223.978 17.5362V20.3039C223.978 21.4732 223.834 22.4982 223.545 23.379C223.265 24.2522 222.862 24.9849 222.338 25.5772C221.822 26.1618 221.195 26.6022 220.459 26.8983C219.73 27.1945 218.921 27.3425 218.033 27.3425C217.145 27.3425 216.332 27.1945 215.596 26.8983C214.867 26.6022 214.237 26.1618 213.705 25.5772C213.181 24.9849 212.775 24.2522 212.486 23.379C212.198 22.4982 212.054 21.4732 212.054 20.3039V17.5362C212.054 16.3366 212.194 15.2887 212.475 14.3928C212.756 13.4892 213.162 12.7375 213.694 12.1377C214.225 11.5302 214.855 11.0746 215.584 10.7709C216.313 10.4596 217.122 10.304 218.01 10.304C218.899 10.304 219.707 10.4596 220.436 10.7709C221.165 11.0746 221.795 11.5302 222.327 12.1377C222.858 12.7375 223.265 13.4892 223.545 14.3928C223.834 15.2887 223.978 16.3366 223.978 17.5362ZM220.664 20.3039V17.5135C220.664 16.7238 220.607 16.0518 220.493 15.4975C220.379 14.9357 220.208 14.4763 219.981 14.1194C219.753 13.7625 219.476 13.5006 219.149 13.3335C218.823 13.1665 218.443 13.083 218.01 13.083C217.577 13.083 217.194 13.1665 216.86 13.3335C216.533 13.5006 216.256 13.7625 216.028 14.1194C215.808 14.4763 215.641 14.9357 215.527 15.4975C215.421 16.0518 215.368 16.7238 215.368 17.5135V20.3039C215.368 21.0632 215.425 21.7124 215.539 22.2515C215.653 22.7906 215.823 23.231 216.051 23.5726C216.279 23.9143 216.556 24.1687 216.883 24.3357C217.217 24.4952 217.6 24.5749 218.033 24.5749C218.458 24.5749 218.834 24.4952 219.161 24.3357C219.495 24.1687 219.772 23.9143 219.992 23.5726C220.212 23.231 220.379 22.7906 220.493 22.2515C220.607 21.7124 220.664 21.0632 220.664 20.3039ZM226.556 10.5317H231.874C232.983 10.5317 233.928 10.7216 234.71 11.1012C235.492 11.4809 236.092 12.0427 236.51 12.7869C236.928 13.531 237.136 14.4497 237.136 15.5431C237.136 16.4391 237.015 17.2059 236.772 17.8438C236.529 18.474 236.183 19.0017 235.735 19.4269C235.287 19.8445 234.752 20.1786 234.13 20.4292L233.116 21.0328H228.799L228.788 18.2652H231.783C232.239 18.2652 232.615 18.1665 232.911 17.969C233.215 17.764 233.439 17.4793 233.583 17.1148C233.735 16.7428 233.811 16.31 233.811 15.8164C233.811 15.2925 233.742 14.8445 233.606 14.4725C233.477 14.0928 233.268 13.8043 232.979 13.6069C232.698 13.4019 232.33 13.2994 231.874 13.2994H229.893V27.1147H226.556V10.5317ZM234.084 27.1147L231.043 19.723L234.54 19.7116L237.649 26.9553V27.1147H234.084ZM246.616 22.7526C246.616 22.4565 246.589 22.1869 246.536 21.9439C246.483 21.701 246.369 21.477 246.194 21.272C246.027 21.067 245.78 20.862 245.454 20.6569C245.135 20.4519 244.717 20.2393 244.201 20.0191C243.586 19.761 242.99 19.4876 242.413 19.1991C241.836 18.903 241.316 18.5613 240.853 18.174C240.389 17.7868 240.021 17.3312 239.748 16.8073C239.482 16.2758 239.349 15.6532 239.349 14.9395C239.349 14.2409 239.474 13.6069 239.725 13.0374C239.983 12.4679 240.348 11.982 240.818 11.5796C241.289 11.1696 241.84 10.8544 242.47 10.6343C243.108 10.4141 243.818 10.304 244.6 10.304C245.663 10.304 246.581 10.5242 247.356 10.9645C248.138 11.4049 248.742 12.0086 249.167 12.7755C249.6 13.5424 249.816 14.4231 249.816 15.4178H246.49C246.49 14.947 246.422 14.5332 246.285 14.1764C246.156 13.8119 245.947 13.5272 245.659 13.3222C245.37 13.1171 244.998 13.0146 244.543 13.0146C244.118 13.0146 243.764 13.102 243.484 13.2766C243.21 13.4436 243.005 13.6752 242.868 13.9714C242.739 14.2599 242.675 14.5864 242.675 14.9508C242.675 15.2242 242.739 15.471 242.868 15.6912C243.005 15.9038 243.191 16.0974 243.427 16.272C243.662 16.4391 243.939 16.6023 244.258 16.7618C244.584 16.9212 244.941 17.0769 245.329 17.2287C246.08 17.5249 246.745 17.8513 247.322 18.2082C247.899 18.5575 248.381 18.9523 248.768 19.3927C249.155 19.8255 249.448 20.3153 249.645 20.862C249.843 21.4086 249.941 22.0313 249.941 22.7298C249.941 23.4208 249.82 24.051 249.577 24.6205C249.341 25.1823 248.996 25.6683 248.54 26.0783C248.085 26.4807 247.534 26.792 246.889 27.0122C246.251 27.2324 245.537 27.3425 244.748 27.3425C243.981 27.3425 243.256 27.2362 242.572 27.0236C241.889 26.8034 241.285 26.4731 240.761 26.0328C240.245 25.5848 239.839 25.0191 239.543 24.3357C239.247 23.6448 239.099 22.8285 239.099 21.887H242.436C242.436 22.3881 242.485 22.8171 242.584 23.174C242.682 23.5233 242.834 23.8042 243.039 24.0168C243.244 24.2218 243.495 24.3775 243.791 24.4838C244.095 24.5825 244.44 24.6319 244.827 24.6319C245.268 24.6319 245.617 24.5483 245.875 24.3813C246.141 24.2142 246.331 23.9902 246.445 23.7093C246.559 23.4284 246.616 23.1095 246.616 22.7526Z" fill="white"/>
<path d="M90.9298 43.9679H88.4082L88.3945 42.9086H90.6838C91.0619 42.9086 91.3922 42.8449 91.6747 42.7173C91.9572 42.5897 92.1758 42.4075 92.3307 42.1706C92.4902 41.9292 92.5699 41.6421 92.5699 41.3096C92.5699 40.9451 92.4993 40.649 92.3581 40.4212C92.2214 40.1889 92.0095 40.0203 91.7225 39.9155C91.4401 39.8062 91.0802 39.7515 90.6428 39.7515H88.7021V48.6216H87.3832V38.6718H90.6428C91.1531 38.6718 91.6086 38.7242 92.0095 38.829C92.4105 38.9292 92.7499 39.0886 93.0278 39.3073C93.3102 39.5214 93.5243 39.7948 93.6701 40.1273C93.8159 40.4599 93.8888 40.8586 93.8888 41.3232C93.8888 41.7333 93.784 42.1046 93.5744 42.4371C93.3649 42.7651 93.0733 43.0339 92.6997 43.2435C92.3307 43.4531 91.8979 43.5875 91.4013 43.6467L90.9298 43.9679ZM90.8683 48.6216H87.8888L88.6337 47.5487H90.8683C91.2875 47.5487 91.6428 47.4758 91.9344 47.33C92.2305 47.1842 92.456 46.9792 92.6109 46.715C92.7658 46.4462 92.8432 46.1296 92.8432 45.7651C92.8432 45.3961 92.7772 45.0772 92.6451 44.8084C92.513 44.5396 92.3057 44.3323 92.0232 44.1865C91.7408 44.0408 91.3763 43.9679 90.9298 43.9679H89.0506L89.0642 42.9086H91.6337L91.9139 43.2913C92.3922 43.3323 92.7977 43.469 93.1303 43.7014C93.4628 43.9291 93.7157 44.2207 93.8888 44.5761C94.0665 44.9314 94.1553 45.3232 94.1553 45.7514C94.1553 46.371 94.0186 46.8949 93.7453 47.3232C93.4765 47.7469 93.0961 48.0703 92.6041 48.2936C92.112 48.5122 91.5335 48.6216 90.8683 48.6216ZM101.97 45.4576H103.282C103.213 46.0863 103.034 46.6489 102.742 47.1455C102.45 47.6421 102.038 48.0362 101.505 48.3277C100.972 48.6147 100.307 48.7583 99.5096 48.7583C98.9265 48.7583 98.3957 48.6489 97.9174 48.4302C97.4436 48.2116 97.0358 47.9018 96.6941 47.5009C96.3525 47.0954 96.0882 46.6102 95.9014 46.0453C95.7192 45.4758 95.6281 44.8426 95.6281 44.1455V43.1547C95.6281 42.4576 95.7192 41.8267 95.9014 41.2617C96.0882 40.6923 96.3547 40.2048 96.701 39.7993C97.0518 39.3939 97.4732 39.0818 97.9652 38.8631C98.4572 38.6444 99.0108 38.5351 99.6258 38.5351C100.377 38.5351 101.013 38.6763 101.532 38.9588C102.052 39.2413 102.455 39.633 102.742 40.1342C103.034 40.6308 103.213 41.2071 103.282 41.8631H101.97C101.906 41.3984 101.787 40.9998 101.614 40.6672C101.441 40.3301 101.195 40.0704 100.876 39.8882C100.557 39.7059 100.141 39.6148 99.6258 39.6148C99.1839 39.6148 98.7944 39.6991 98.4572 39.8677C98.1247 40.0362 97.8445 40.2754 97.6167 40.5852C97.3935 40.895 97.2249 41.2663 97.111 41.6991C96.9971 42.1319 96.9402 42.6125 96.9402 43.141V44.1455C96.9402 44.633 96.9903 45.0909 97.0905 45.5191C97.1953 45.9473 97.3525 46.3232 97.562 46.6467C97.7716 46.9701 98.0381 47.2252 98.3616 47.412C98.685 47.5943 99.0677 47.6854 99.5096 47.6854C100.07 47.6854 100.516 47.5965 100.849 47.4189C101.182 47.2412 101.432 46.9861 101.601 46.6535C101.774 46.3209 101.897 45.9223 101.97 45.4576ZM111.26 47.5487V48.6216H105.991V47.5487H111.26ZM106.258 38.6718V48.6216H104.939V38.6718H106.258ZM110.563 42.9496V44.0225H105.991V42.9496H110.563ZM111.192 38.6718V39.7515H105.991V38.6718H111.192ZM117.459 46.3391L122.358 38.6718H123.677V48.6216H122.358V40.9474L117.459 48.6216H116.147V38.6718H117.459V46.3391ZM132.435 42.9496V44.0225H127.05V42.9496H132.435ZM127.255 38.6718V48.6216H125.936V38.6718H127.255ZM133.583 38.6718V48.6216H132.271V38.6718H133.583ZM138.759 44.0772L135.206 38.6718H136.75L139.395 42.9838H141.267L141.056 44.0772H138.759ZM139.47 43.9747L136.579 48.6216H134.939L138.636 42.8403L139.47 43.9747ZM141.835 38.6718V48.6216H140.529V38.6718H141.835ZM147.11 38.6718L143.543 44.0772H141.315L141.11 42.9838H142.914L145.559 38.6718H147.11ZM145.73 48.6216L142.846 43.9747L143.686 42.8403L147.37 48.6216H145.73ZM154.802 47.5487V48.6216H149.533V47.5487H154.802ZM149.799 38.6718V48.6216H148.48V38.6718H149.799ZM154.105 42.9496V44.0225H149.533V42.9496H154.105ZM154.733 38.6718V39.7515H149.533V38.6718H154.733ZM162.794 42.9496V44.0225H157.409V42.9496H162.794ZM157.614 38.6718V48.6216H156.295V38.6718H157.614ZM163.942 38.6718V48.6216H162.63V38.6718H163.942ZM172.467 47.5487V48.6216H167.198V47.5487H172.467ZM167.465 38.6718V48.6216H166.146V38.6718H167.465ZM171.77 42.9496V44.0225H167.198V42.9496H171.77ZM172.398 38.6718V39.7515H167.198V38.6718H172.398ZM177.63 44.7196H174.971V43.6467H177.63C178.145 43.6467 178.561 43.5647 178.88 43.4007C179.199 43.2367 179.432 43.0089 179.577 42.7173C179.728 42.4257 179.803 42.0932 179.803 41.7196C179.803 41.3779 179.728 41.0567 179.577 40.756C179.432 40.4554 179.199 40.2139 178.88 40.0317C178.561 39.8449 178.145 39.7515 177.63 39.7515H175.279V48.6216H173.96V38.6718H177.63C178.381 38.6718 179.017 38.8016 179.536 39.0613C180.056 39.321 180.45 39.6809 180.719 40.141C180.987 40.5966 181.122 41.1182 181.122 41.7059C181.122 42.3437 180.987 42.8881 180.719 43.3392C180.45 43.7902 180.056 44.1341 179.536 44.371C179.017 44.6034 178.381 44.7196 177.63 44.7196ZM189.148 42.9496V44.0225H183.763V42.9496H189.148ZM183.968 38.6718V48.6216H182.649V38.6718H183.968ZM190.296 38.6718V48.6216H188.984V38.6718H190.296ZM193.566 42.7241H196.279C197.008 42.7241 197.623 42.8471 198.124 43.0932C198.625 43.3346 199.006 43.674 199.265 44.1114C199.525 44.5487 199.655 45.0612 199.655 45.6489C199.655 46.0863 199.582 46.4872 199.436 46.8517C199.29 47.2116 199.074 47.5259 198.787 47.7947C198.5 48.0589 198.147 48.264 197.728 48.4097C197.309 48.551 196.826 48.6216 196.279 48.6216H192.562V38.6718H193.88V47.5487H196.279C196.767 47.5487 197.161 47.4599 197.461 47.2822C197.767 47.1 197.99 46.8631 198.131 46.5715C198.272 46.2799 198.343 45.9678 198.343 45.6353C198.343 45.3027 198.272 44.9975 198.131 44.7196C197.99 44.4417 197.767 44.2207 197.461 44.0567C197.161 43.8881 196.767 43.8039 196.279 43.8039H193.566V42.7241ZM202.177 38.6718V48.6216H200.858V38.6718H202.177ZM210.79 47.5487V48.6216H205.522V47.5487H210.79ZM205.788 38.6718V48.6216H204.469V38.6718H205.788ZM210.093 42.9496V44.0225H205.522V42.9496H210.093ZM210.722 38.6718V39.7515H205.522V38.6718H210.722ZM221.622 45.4576H222.934C222.866 46.0863 222.686 46.6489 222.394 47.1455C222.103 47.6421 221.69 48.0362 221.157 48.3277C220.624 48.6147 219.959 48.7583 219.162 48.7583C218.579 48.7583 218.048 48.6489 217.57 48.4302C217.096 48.2116 216.688 47.9018 216.347 47.5009C216.005 47.0954 215.741 46.6102 215.554 46.0453C215.372 45.4758 215.28 44.8426 215.28 44.1455V43.1547C215.28 42.4576 215.372 41.8267 215.554 41.2617C215.741 40.6923 216.007 40.2048 216.353 39.7993C216.704 39.3939 217.126 39.0818 217.618 38.8631C218.11 38.6444 218.663 38.5351 219.278 38.5351C220.03 38.5351 220.665 38.6763 221.185 38.9588C221.704 39.2413 222.107 39.633 222.394 40.1342C222.686 40.6308 222.866 41.2071 222.934 41.8631H221.622C221.558 41.3984 221.44 40.9998 221.267 40.6672C221.094 40.3301 220.848 40.0704 220.529 39.8882C220.21 39.7059 219.793 39.6148 219.278 39.6148C218.836 39.6148 218.447 39.6991 218.11 39.8677C217.777 40.0362 217.497 40.2754 217.269 40.5852C217.046 40.895 216.877 41.2663 216.763 41.6991C216.649 42.1319 216.593 42.6125 216.593 43.141V44.1455C216.593 44.633 216.643 45.0909 216.743 45.5191C216.848 45.9473 217.005 46.3232 217.214 46.6467C217.424 46.9701 217.69 47.2252 218.014 47.412C218.337 47.5943 218.72 47.6854 219.162 47.6854C219.722 47.6854 220.169 47.5965 220.501 47.4189C220.834 47.2412 221.085 46.9861 221.253 46.6535C221.426 46.3209 221.549 45.9223 221.622 45.4576ZM230.913 47.5487V48.6216H225.644V47.5487H230.913ZM225.91 38.6718V48.6216H224.591V38.6718H225.91ZM230.216 42.9496V44.0225H225.644V42.9496H230.216ZM230.844 38.6718V39.7515H225.644V38.6718H230.844ZM236.219 38.6718V48.6216H234.921V38.6718H236.219ZM239.417 38.6718V39.7515H231.729V38.6718H239.417ZM242.127 46.3391L247.027 38.6718H248.346V48.6216H247.027V40.9474L242.127 48.6216H240.815V38.6718H242.127V46.3391Z" fill="#C9CCCF"/>
<defs>
<clipPath id="clip0_3_5053">
<rect width="70.7678" height="52.9055" fill="white" transform="translate(0.00170898)"/>
</clipPath>
</defs>
</svg>
