<svg width="214" height="61" viewBox="0 0 214 61" fill="none" xmlns="http://www.w3.org/2000/svg">
<g clip-path="url(#clip0_1_45802)">
<path fill-rule="evenodd" clip-rule="evenodd" d="M25.3754 19.0807V45.1736C25.3849 45.35 25.3545 45.5263 25.286 45.6918C25.2175 45.8574 25.1124 46.0087 24.9769 46.1365C24.8415 46.2644 24.6786 46.3662 24.4981 46.4358C24.3177 46.5054 24.1234 46.5412 23.927 46.5412C23.7307 46.5412 23.5364 46.5054 23.3559 46.4358C23.1754 46.3662 23.0125 46.2644 22.8771 46.1365C22.7417 46.0087 22.6365 45.8574 22.568 45.6918C22.4995 45.5263 22.4691 45.35 22.4786 45.1736V25.6089C22.4581 24.7563 22.0671 23.9448 21.3895 23.3483C20.7119 22.7518 19.8015 22.4178 18.8534 22.4178C17.9053 22.4178 16.995 22.7518 16.3173 23.3483C15.6397 23.9448 15.2488 24.7563 15.2282 25.6089V45.1736C15.2377 45.35 15.2073 45.5263 15.1388 45.6918C15.0703 45.8574 14.9652 46.0087 14.8297 46.1365C14.6943 46.2644 14.5314 46.3662 14.3509 46.4358C14.1705 46.5054 13.9762 46.5412 13.7798 46.5412C13.5835 46.5412 13.3892 46.5054 13.2087 46.4358C13.0282 46.3662 12.8653 46.2644 12.7299 46.1365C12.5945 46.0087 12.4893 45.8574 12.4208 45.6918C12.3523 45.5263 12.3219 45.35 12.3314 45.1736V32.131C12.3419 31.6968 12.2559 31.2651 12.0784 30.8612C11.9009 30.4573 11.6356 30.0894 11.2979 29.779C10.9602 29.4686 10.557 29.2219 10.112 29.0536C9.66696 28.8852 9.18902 28.7985 8.70623 28.7985C8.22343 28.7985 7.74549 28.8852 7.30046 29.0536C6.85542 29.2219 6.45224 29.4686 6.11457 29.779C5.7769 30.0894 5.51155 30.4573 5.33406 30.8612C5.15658 31.2651 5.07055 31.6968 5.08101 32.131V45.1736C5.08101 47.2493 5.99767 49.24 7.62933 50.7078C9.26099 52.1755 11.474 53.0001 13.7815 53.0001H49.2992C51.6068 53.0001 53.8198 52.1755 55.4514 50.7078C57.0831 49.24 57.9998 47.2493 57.9998 45.1736V31.478C58.0011 30.2121 57.6606 28.9648 57.0076 27.8434C56.3546 26.722 55.4086 25.7601 54.251 25.0402L54.2033 25.0111L54.1317 24.9682L34.0555 12.718C33.9379 12.6429 33.8186 12.5648 33.6976 12.4989L33.6823 12.4912C32.2828 11.6872 30.6569 11.2599 28.9963 11.2599C27.3358 11.2599 25.7099 11.6872 24.3104 12.4912C24.0667 12.6309 23.8313 12.7818 23.605 12.9434L22.4735 13.6699V11.2634C22.484 10.8292 22.398 10.3975 22.2205 9.99363C22.043 9.58974 21.7776 9.22181 21.44 8.9114C21.1023 8.601 20.6991 8.35438 20.2541 8.18601C19.809 8.01764 19.3311 7.93091 18.8483 7.93091C18.3655 7.93091 17.8876 8.01764 17.4425 8.18601C16.9975 8.35438 16.5943 8.601 16.2566 8.9114C15.919 9.22181 15.6536 9.58974 15.4761 9.99363C15.2987 10.3975 15.2126 10.8292 15.2231 11.2634V18.3296L3.76554 25.6871C2.60302 26.4059 1.65251 27.3685 0.996117 28.4918C0.33972 29.615 -0.00283141 30.8651 -0.00195143 32.134V45.612C-0.00195143 46.0917 0.485384 46.4811 1.08518 46.4811C1.68498 46.4811 2.17403 46.0917 2.17403 45.612V32.131C2.17274 31.1973 2.41948 30.2769 2.89372 29.4463C3.36796 28.6158 4.05596 27.8992 4.90039 27.3563L17.3991 19.3321V11.2634C17.3896 11.087 17.42 10.9107 17.4885 10.7452C17.557 10.5796 17.6621 10.4283 17.7975 10.3005C17.933 10.1726 18.0959 10.0708 18.2763 10.0012C18.4568 9.93165 18.6511 9.89578 18.8475 9.89578C19.0438 9.89578 19.2381 9.93165 19.4186 10.0012C19.599 10.0708 19.7619 10.1726 19.8974 10.3005C20.0328 10.4283 20.138 10.5796 20.2064 10.7452C20.2749 10.9107 20.3053 11.087 20.2958 11.2634V17.4682L20.5173 17.3256L21.5005 16.6957L25.4487 14.1619C26.5056 13.5462 27.738 13.2186 28.9972 13.2186C30.2564 13.2186 31.4888 13.5462 32.5457 14.1619L53.1162 26.7141C53.9551 27.2574 54.6383 27.9725 55.1091 28.8004C55.5799 29.6282 55.8249 30.545 55.8238 31.4749V45.1705C55.8238 45.9413 55.655 46.7045 55.3271 47.4165C54.9992 48.1286 54.5186 48.7756 53.9128 49.3206C53.3069 49.8656 52.5877 50.2979 51.7961 50.5929C51.0045 50.8878 50.1561 51.0396 49.2992 51.0396H13.7747C12.9179 51.0396 12.0695 50.8878 11.2779 50.5929C10.4863 50.2979 9.76703 49.8656 9.16117 49.3206C8.55531 48.7756 8.07472 48.1286 7.74683 47.4165C7.41894 46.7045 7.25018 45.9413 7.25018 45.1705V32.131C7.26822 31.7964 7.4287 31.4808 7.69835 31.2498C7.968 31.0187 8.32614 30.8898 8.69856 30.8898C9.07098 30.8898 9.42912 31.0187 9.69877 31.2498C9.96842 31.4808 10.1289 31.7964 10.1469 32.131V45.1736C10.1365 45.6078 10.2225 46.0395 10.4 46.4434C10.5775 46.8473 10.8428 47.2152 11.1805 47.5256C11.5182 47.836 11.9213 48.0826 12.3664 48.251C12.8114 48.4194 13.2894 48.5061 13.7722 48.5061C14.255 48.5061 14.7329 48.4194 15.1779 48.251C15.623 48.0826 16.0261 47.836 16.3638 47.5256C16.7015 47.2152 16.9668 46.8473 17.1443 46.4434C17.3218 46.0395 17.4078 45.6078 17.3974 45.1736V25.6089C17.3878 25.4325 17.4183 25.2562 17.4868 25.0907C17.5553 24.9251 17.6604 24.7738 17.7958 24.646C17.9313 24.5181 18.0942 24.4163 18.2746 24.3467C18.4551 24.2771 18.6494 24.2413 18.8457 24.2413C19.0421 24.2413 19.2364 24.2771 19.4169 24.3467C19.5973 24.4163 19.7602 24.5181 19.8957 24.646C20.0311 24.7738 20.1362 24.9251 20.2047 25.0907C20.2732 25.2562 20.3036 25.4325 20.2941 25.6089V45.1736C20.2837 45.6078 20.3697 46.0395 20.5472 46.4434C20.7247 46.8473 20.99 47.2152 21.3277 47.5256C21.6654 47.836 22.0685 48.0826 22.5136 48.251C22.9586 48.4194 23.4365 48.5061 23.9193 48.5061C24.4021 48.5061 24.8801 48.4194 25.3251 48.251C25.7702 48.0826 26.1733 47.836 26.511 47.5256C26.8487 47.2152 27.114 46.8473 27.2915 46.4434C27.469 46.0395 27.555 45.6078 27.5446 45.1736V19.0807C27.535 18.9043 27.5655 18.728 27.6339 18.5625C27.7024 18.3969 27.8076 18.2456 27.943 18.1178C28.0784 17.9899 28.2413 17.8881 28.4218 17.8185C28.6023 17.7489 28.7966 17.7131 28.9929 17.7131C29.1893 17.7131 29.3836 17.7489 29.5641 17.8185C29.7445 17.8881 29.9074 17.9899 30.0429 18.1178C30.1783 18.2456 30.2834 18.3969 30.3519 18.5625C30.4204 18.728 30.4508 18.9043 30.4413 19.0807V45.1736C30.4309 45.6078 30.5169 46.0395 30.6944 46.4434C30.8718 46.8473 31.1372 47.2152 31.4749 47.5256C31.8125 47.836 32.2157 48.0826 32.6608 48.251C33.1058 48.4194 33.5837 48.5061 34.0665 48.5061C34.5493 48.5061 35.0273 48.4194 35.4723 48.251C35.9173 48.0826 36.3205 47.836 36.6582 47.5256C36.9959 47.2152 37.2612 46.8473 37.4387 46.4434C37.6162 46.0395 37.7022 45.6078 37.6917 45.1736V25.6089C37.7098 25.2743 37.8703 24.9588 38.1399 24.7277C38.4096 24.4966 38.7677 24.3677 39.1401 24.3677C39.5125 24.3677 39.8707 24.4966 40.1403 24.7277C40.41 24.9588 40.5705 25.2743 40.5885 25.6089V45.1736C40.5885 45.6017 40.6823 46.0257 40.8644 46.4212C41.0465 46.8168 41.3135 47.1762 41.6501 47.479C41.9866 47.7817 42.3862 48.0218 42.8259 48.1857C43.2656 48.3495 43.7369 48.4339 44.2129 48.4339C44.6888 48.4339 45.1601 48.3495 45.5998 48.1857C46.0396 48.0218 46.4391 47.7817 46.7757 47.479C47.1122 47.1762 47.3792 46.8168 47.5613 46.4212C47.7435 46.0257 47.8372 45.6017 47.8372 45.1736V31.478C47.8553 31.1434 48.0158 30.8279 48.2854 30.5968C48.555 30.3657 48.9132 30.2368 49.2856 30.2368C49.658 30.2368 50.0162 30.3657 50.2858 30.5968C50.5555 30.8279 50.7159 31.1434 50.734 31.478V45.5001C50.7451 45.7529 50.8646 45.9921 51.0674 46.1675C51.2703 46.3429 51.5407 46.4408 51.822 46.4408C52.1033 46.4408 52.3737 46.3429 52.5765 46.1675C52.7794 45.9921 52.8988 45.7529 52.91 45.5001V31.478C52.8894 30.6254 52.4985 29.8139 51.8208 29.2174C51.1432 28.6209 50.2328 28.2869 49.2848 28.2869C48.3367 28.2869 47.4263 28.6209 46.7487 29.2174C46.0711 29.8139 45.6801 30.6254 45.6595 31.478V45.1736C45.6691 45.35 45.6387 45.5263 45.5702 45.6918C45.5017 45.8574 45.3965 46.0087 45.2611 46.1365C45.1257 46.2644 44.9628 46.3662 44.7823 46.4358C44.6018 46.5054 44.4075 46.5412 44.2112 46.5412C44.0148 46.5412 43.8205 46.5054 43.64 46.4358C43.4596 46.3662 43.2967 46.2644 43.1612 46.1365C43.0258 46.0087 42.9207 45.8574 42.8522 45.6918C42.7837 45.5263 42.7533 45.35 42.7628 45.1736V25.6089C42.7422 24.7563 42.3513 23.9448 41.6736 23.3483C40.996 22.7518 40.0856 22.4178 39.1376 22.4178C38.1895 22.4178 37.2791 22.7518 36.6015 23.3483C35.9239 23.9448 35.5329 24.7563 35.5124 25.6089V45.1736C35.5219 45.35 35.4915 45.5263 35.423 45.6918C35.3545 45.8574 35.2493 46.0087 35.1139 46.1365C34.9785 46.2644 34.8156 46.3662 34.6351 46.4358C34.4546 46.5054 34.2603 46.5412 34.064 46.5412C33.8676 46.5412 33.6733 46.5054 33.4929 46.4358C33.3124 46.3662 33.1495 46.2644 33.0141 46.1365C32.8786 46.0087 32.7735 45.8574 32.705 45.6918C32.6365 45.5263 32.6061 45.35 32.6156 45.1736V19.0807C32.6156 18.216 32.2337 17.3868 31.554 16.7753C30.8743 16.1639 29.9525 15.8204 28.9912 15.8204C28.03 15.8204 27.1081 16.1639 26.4284 16.7753C25.7487 17.3868 25.3669 18.216 25.3669 19.0807H25.3754Z" fill="#FAF39E"/>
</g>
<path d="M77.168 23.2598C77.168 23.0059 77.1452 22.7747 77.0996 22.5664C77.054 22.3581 76.9564 22.166 76.8066 21.9902C76.6634 21.8145 76.4518 21.6387 76.1719 21.4629C75.8984 21.2871 75.5404 21.1048 75.0977 20.916C74.5703 20.6947 74.0592 20.4603 73.5645 20.2129C73.0697 19.959 72.6237 19.666 72.2266 19.334C71.8294 19.002 71.5137 18.6113 71.2793 18.1621C71.0514 17.7064 70.9375 17.1725 70.9375 16.5605C70.9375 15.9616 71.0449 15.418 71.2598 14.9297C71.4811 14.4414 71.7936 14.0247 72.1973 13.6797C72.6009 13.3281 73.0729 13.0579 73.6133 12.8691C74.1602 12.6803 74.7689 12.5859 75.4395 12.5859C76.3509 12.5859 77.1387 12.7747 77.8027 13.1523C78.4733 13.5299 78.9909 14.0475 79.3555 14.7051C79.7266 15.3626 79.9121 16.1178 79.9121 16.9707H77.0605C77.0605 16.5671 77.002 16.2122 76.8848 15.9062C76.7741 15.5938 76.5951 15.3496 76.3477 15.1738C76.1003 14.998 75.7812 14.9102 75.3906 14.9102C75.026 14.9102 74.7233 14.985 74.4824 15.1348C74.248 15.278 74.0723 15.4766 73.9551 15.7305C73.8444 15.9779 73.7891 16.2578 73.7891 16.5703C73.7891 16.8047 73.8444 17.0163 73.9551 17.2051C74.0723 17.3874 74.2318 17.5534 74.4336 17.7031C74.6354 17.8464 74.873 17.9863 75.1465 18.123C75.4264 18.2598 75.7324 18.3932 76.0645 18.5234C76.709 18.7773 77.2786 19.0573 77.7734 19.3633C78.2682 19.6628 78.6816 20.0013 79.0137 20.3789C79.3457 20.75 79.5964 21.1699 79.7656 21.6387C79.9349 22.1074 80.0195 22.6413 80.0195 23.2402C80.0195 23.8327 79.9154 24.373 79.707 24.8613C79.5052 25.3431 79.209 25.7598 78.8184 26.1113C78.4277 26.4564 77.9557 26.7233 77.4023 26.9121C76.8555 27.1009 76.2435 27.1953 75.5664 27.1953C74.9089 27.1953 74.2871 27.1042 73.7012 26.9219C73.1152 26.7331 72.5977 26.4499 72.1484 26.0723C71.7057 25.6882 71.3574 25.2031 71.1035 24.6172C70.8496 24.0247 70.7227 23.3249 70.7227 22.5176H73.584C73.584 22.9473 73.6263 23.3151 73.7109 23.6211C73.7956 23.9206 73.9258 24.1615 74.1016 24.3438C74.2773 24.5195 74.4922 24.653 74.7461 24.7441C75.0065 24.8288 75.3027 24.8711 75.6348 24.8711C76.0124 24.8711 76.3118 24.7995 76.5332 24.6562C76.7611 24.513 76.9238 24.321 77.0215 24.0801C77.1191 23.8392 77.168 23.5658 77.168 23.2598ZM87.7372 12.7812V27H84.8954V12.7812H87.7372ZM91.2723 12.7812V15.1543H81.4286V12.7812H91.2723ZM102.769 18.7871V21.1602C102.769 22.1628 102.646 23.0417 102.398 23.7969C102.157 24.5456 101.812 25.1738 101.363 25.6816C100.92 26.1829 100.383 26.5605 99.7517 26.8145C99.1267 27.0684 98.4334 27.1953 97.6716 27.1953C96.9099 27.1953 96.2133 27.0684 95.5818 26.8145C94.9568 26.5605 94.4164 26.1829 93.9607 25.6816C93.5115 25.1738 93.1632 24.5456 92.9158 23.7969C92.6684 23.0417 92.5447 22.1628 92.5447 21.1602V18.7871C92.5447 17.7585 92.6651 16.86 92.906 16.0918C93.1469 15.3171 93.4952 14.6725 93.9509 14.1582C94.4067 13.6374 94.947 13.2467 95.572 12.9863C96.197 12.7194 96.8904 12.5859 97.6521 12.5859C98.4138 12.5859 99.1072 12.7194 99.7322 12.9863C100.357 13.2467 100.898 13.6374 101.353 14.1582C101.809 14.6725 102.157 15.3171 102.398 16.0918C102.646 16.86 102.769 17.7585 102.769 18.7871ZM99.9275 21.1602V18.7676C99.9275 18.0905 99.8787 17.5143 99.781 17.0391C99.6834 16.5573 99.5369 16.1634 99.3416 15.8574C99.1462 15.5514 98.9086 15.3268 98.6287 15.1836C98.3487 15.0404 98.0232 14.9688 97.6521 14.9688C97.281 14.9688 96.9522 15.0404 96.6658 15.1836C96.3858 15.3268 96.1482 15.5514 95.9529 15.8574C95.7641 16.1634 95.6209 16.5573 95.5232 17.0391C95.4321 17.5143 95.3865 18.0905 95.3865 18.7676V21.1602C95.3865 21.8112 95.4353 22.3678 95.533 22.8301C95.6306 23.2923 95.7771 23.6699 95.9724 23.9629C96.1677 24.2559 96.4054 24.474 96.6853 24.6172C96.9718 24.7539 97.3005 24.8223 97.6716 24.8223C98.0362 24.8223 98.3585 24.7539 98.6384 24.6172C98.9249 24.474 99.1625 24.2559 99.3513 23.9629C99.5401 23.6699 99.6834 23.2923 99.781 22.8301C99.8787 22.3678 99.9275 21.8112 99.9275 21.1602ZM109.813 21.9902H106.903V19.6172H109.813C110.217 19.6172 110.546 19.526 110.799 19.3438C111.06 19.1615 111.249 18.9108 111.366 18.5918C111.483 18.2663 111.542 17.9017 111.542 17.498C111.542 17.0879 111.48 16.707 111.356 16.3555C111.239 15.9974 111.053 15.7077 110.799 15.4863C110.552 15.265 110.223 15.1543 109.813 15.1543H107.821V27H104.969V12.7812H109.813C110.77 12.7812 111.594 12.9831 112.284 13.3867C112.974 13.7904 113.501 14.347 113.866 15.0566C114.237 15.7598 114.423 16.5671 114.423 17.4785C114.423 18.3965 114.237 19.194 113.866 19.8711C113.501 20.5417 112.974 21.0625 112.284 21.4336C111.594 21.8047 110.77 21.9902 109.813 21.9902Z" fill="#F3F3F3"/>
<path d="M116.466 12.7812H121.027C121.977 12.7812 122.788 12.944 123.459 13.2695C124.129 13.5951 124.643 14.0768 125.001 14.7148C125.36 15.3529 125.539 16.1406 125.539 17.0781C125.539 17.8464 125.434 18.5039 125.226 19.0508C125.018 19.5911 124.722 20.0436 124.337 20.4082C123.953 20.7663 123.494 21.0527 122.96 21.2676L122.091 21.7852H118.39L118.38 19.4121H120.949C121.339 19.4121 121.662 19.3275 121.916 19.1582C122.176 18.9824 122.368 18.7383 122.492 18.4258C122.622 18.1068 122.687 17.7357 122.687 17.3125C122.687 16.8633 122.628 16.4792 122.511 16.1602C122.401 15.8346 122.222 15.5872 121.974 15.418C121.733 15.2422 121.417 15.1543 121.027 15.1543H119.328V27H116.466V12.7812ZM122.921 27L120.314 20.6621L123.312 20.6523L125.978 26.8633V27H122.921ZM132.797 15.3203L129.741 27H126.723L131.166 12.7812H133.051L132.797 15.3203ZM135.209 27L132.133 15.3203L131.85 12.7812H133.764L138.246 27H135.209ZM135.317 21.6973V24.0703H128.901V21.6973H135.317ZM143.435 27H140.925L140.945 24.6367H143.435C144.125 24.6367 144.662 24.513 145.046 24.2656C145.43 24.0182 145.7 23.6276 145.857 23.0938C146.019 22.5599 146.101 21.86 146.101 20.9941V18.7773C146.101 18.1198 146.059 17.5632 145.974 17.1074C145.889 16.6452 145.746 16.2741 145.544 15.9941C145.342 15.7077 145.072 15.4961 144.734 15.3594C144.395 15.2227 143.975 15.1543 143.474 15.1543H140.876V12.7812H143.474C144.294 12.7812 145.04 12.9147 145.71 13.1816C146.381 13.4486 146.957 13.8392 147.439 14.3535C147.921 14.8613 148.292 15.4896 148.552 16.2383C148.812 16.987 148.943 17.8398 148.943 18.7969V20.9941C148.943 21.9577 148.812 22.8105 148.552 23.5527C148.292 24.2949 147.921 24.9232 147.439 25.4375C146.963 25.9453 146.387 26.3327 145.71 26.5996C145.033 26.8665 144.275 27 143.435 27ZM142.585 12.7812V27H139.724V12.7812H142.585ZM154.121 12.7812V27H151.279V12.7812H154.121ZM162.005 15.3203L158.948 27H155.931L160.374 12.7812H162.259L162.005 15.3203ZM164.417 27L161.341 15.3203L161.058 12.7812H162.972L167.454 27H164.417ZM164.524 21.6973V24.0703H158.108V21.6973H164.524ZM173.424 12.7812V27H170.582V12.7812H173.424ZM176.959 12.7812V15.1543H167.115V12.7812H176.959ZM188.456 18.7871V21.1602C188.456 22.1628 188.332 23.0417 188.085 23.7969C187.844 24.5456 187.499 25.1738 187.05 25.6816C186.607 26.1829 186.07 26.5605 185.438 26.8145C184.813 27.0684 184.12 27.1953 183.358 27.1953C182.596 27.1953 181.9 27.0684 181.268 26.8145C180.643 26.5605 180.103 26.1829 179.647 25.6816C179.198 25.1738 178.85 24.5456 178.602 23.7969C178.355 23.0417 178.231 22.1628 178.231 21.1602V18.7871C178.231 17.7585 178.352 16.86 178.593 16.0918C178.833 15.3171 179.182 14.6725 179.637 14.1582C180.093 13.6374 180.634 13.2467 181.259 12.9863C181.884 12.7194 182.577 12.5859 183.339 12.5859C184.1 12.5859 184.794 12.7194 185.419 12.9863C186.044 13.2467 186.584 13.6374 187.04 14.1582C187.496 14.6725 187.844 15.3171 188.085 16.0918C188.332 16.86 188.456 17.7585 188.456 18.7871ZM185.614 21.1602V18.7676C185.614 18.0905 185.565 17.5143 185.468 17.0391C185.37 16.5573 185.223 16.1634 185.028 15.8574C184.833 15.5514 184.595 15.3268 184.315 15.1836C184.035 15.0404 183.71 14.9688 183.339 14.9688C182.968 14.9688 182.639 15.0404 182.352 15.1836C182.072 15.3268 181.835 15.5514 181.639 15.8574C181.451 16.1634 181.307 16.5573 181.21 17.0391C181.119 17.5143 181.073 18.0905 181.073 18.7676V21.1602C181.073 21.8112 181.122 22.3678 181.22 22.8301C181.317 23.2923 181.464 23.6699 181.659 23.9629C181.854 24.2559 182.092 24.474 182.372 24.6172C182.658 24.7539 182.987 24.8223 183.358 24.8223C183.723 24.8223 184.045 24.7539 184.325 24.6172C184.611 24.474 184.849 24.2559 185.038 23.9629C185.227 23.6699 185.37 23.2923 185.468 22.8301C185.565 22.3678 185.614 21.8112 185.614 21.1602ZM190.666 12.7812H195.226C196.177 12.7812 196.987 12.944 197.658 13.2695C198.328 13.5951 198.843 14.0768 199.201 14.7148C199.559 15.3529 199.738 16.1406 199.738 17.0781C199.738 17.8464 199.634 18.5039 199.425 19.0508C199.217 19.5911 198.921 20.0436 198.537 20.4082C198.153 20.7663 197.694 21.0527 197.16 21.2676L196.291 21.7852H192.59L192.58 19.4121H195.148C195.539 19.4121 195.861 19.3275 196.115 19.1582C196.375 18.9824 196.567 18.7383 196.691 18.4258C196.821 18.1068 196.886 17.7357 196.886 17.3125C196.886 16.8633 196.828 16.4792 196.711 16.1602C196.6 15.8346 196.421 15.5872 196.174 15.418C195.933 15.2422 195.617 15.1543 195.226 15.1543H193.527V27H190.666V12.7812ZM197.121 27L194.513 20.6621L197.511 20.6523L200.177 26.8633V27H197.121ZM207.866 23.2598C207.866 23.0059 207.843 22.7747 207.797 22.5664C207.752 22.3581 207.654 22.166 207.504 21.9902C207.361 21.8145 207.15 21.6387 206.87 21.4629C206.596 21.2871 206.238 21.1048 205.795 20.916C205.268 20.6947 204.757 20.4603 204.262 20.2129C203.767 19.959 203.322 19.666 202.924 19.334C202.527 19.002 202.211 18.6113 201.977 18.1621C201.749 17.7064 201.635 17.1725 201.635 16.5605C201.635 15.9616 201.743 15.418 201.958 14.9297C202.179 14.4414 202.491 14.0247 202.895 13.6797C203.299 13.3281 203.771 13.0579 204.311 12.8691C204.858 12.6803 205.467 12.5859 206.137 12.5859C207.049 12.5859 207.836 12.7747 208.501 13.1523C209.171 13.5299 209.689 14.0475 210.053 14.7051C210.424 15.3626 210.61 16.1178 210.61 16.9707H207.758C207.758 16.5671 207.7 16.2122 207.583 15.9062C207.472 15.5938 207.293 15.3496 207.045 15.1738C206.798 14.998 206.479 14.9102 206.088 14.9102C205.724 14.9102 205.421 14.985 205.18 15.1348C204.946 15.278 204.77 15.4766 204.653 15.7305C204.542 15.9779 204.487 16.2578 204.487 16.5703C204.487 16.8047 204.542 17.0163 204.653 17.2051C204.77 17.3874 204.93 17.5534 205.131 17.7031C205.333 17.8464 205.571 17.9863 205.844 18.123C206.124 18.2598 206.43 18.3932 206.762 18.5234C207.407 18.7773 207.976 19.0573 208.471 19.3633C208.966 19.6628 209.379 20.0013 209.711 20.3789C210.044 20.75 210.294 21.1699 210.463 21.6387C210.633 22.1074 210.717 22.6413 210.717 23.2402C210.717 23.8327 210.613 24.373 210.405 24.8613C210.203 25.3431 209.907 25.7598 209.516 26.1113C209.126 26.4564 208.654 26.7233 208.1 26.9121C207.553 27.1009 206.941 27.1953 206.264 27.1953C205.607 27.1953 204.985 27.1042 204.399 26.9219C203.813 26.7331 203.295 26.4499 202.846 26.0723C202.404 25.6882 202.055 25.2031 201.801 24.6172C201.547 24.0247 201.42 23.3249 201.42 22.5176H204.282C204.282 22.9473 204.324 23.3151 204.409 23.6211C204.493 23.9206 204.624 24.1615 204.799 24.3438C204.975 24.5195 205.19 24.653 205.444 24.7441C205.704 24.8288 206.001 24.8711 206.333 24.8711C206.71 24.8711 207.01 24.7995 207.231 24.6562C207.459 24.513 207.622 24.321 207.719 24.0801C207.817 23.8392 207.866 23.5658 207.866 23.2598Z" fill="white"/>
<path d="M73.6953 40.3423H71.7134L71.7026 39.5098H73.502C73.7992 39.5098 74.0588 39.4596 74.2808 39.3594C74.5028 39.2591 74.6746 39.1159 74.7964 38.9297C74.9217 38.7399 74.9844 38.5143 74.9844 38.2529C74.9844 37.9665 74.9289 37.7337 74.8179 37.5547C74.7104 37.3721 74.5439 37.2396 74.3184 37.1572C74.0964 37.0713 73.8135 37.0283 73.4697 37.0283H71.9443V44H70.9077V36.1797H73.4697C73.8708 36.1797 74.2288 36.2209 74.5439 36.3032C74.859 36.382 75.1258 36.5073 75.3442 36.6792C75.5662 36.8475 75.7345 37.0623 75.8491 37.3237C75.9637 37.5851 76.021 37.8984 76.021 38.2637C76.021 38.5859 75.9386 38.8778 75.7739 39.1392C75.6092 39.397 75.38 39.6082 75.0864 39.7729C74.7964 39.9377 74.4562 40.0433 74.0659 40.0898L73.6953 40.3423ZM73.647 44H71.3052L71.8906 43.1567H73.647C73.9764 43.1567 74.2557 43.0994 74.4849 42.9849C74.7176 42.8703 74.8949 42.7091 75.0166 42.5015C75.1383 42.2902 75.1992 42.0413 75.1992 41.7549C75.1992 41.4648 75.1473 41.2142 75.0435 41.0029C74.9396 40.7917 74.7767 40.6287 74.5547 40.5142C74.3327 40.3996 74.0462 40.3423 73.6953 40.3423H72.2183L72.229 39.5098H74.2485L74.4688 39.8105C74.8447 39.8428 75.1634 39.9502 75.4248 40.1328C75.6862 40.3118 75.8849 40.541 76.021 40.8203C76.1606 41.0996 76.2305 41.4076 76.2305 41.7441C76.2305 42.2311 76.123 42.6429 75.9082 42.9795C75.6969 43.3125 75.3979 43.5667 75.0112 43.7422C74.6245 43.9141 74.1698 44 73.647 44ZM82.8124 41.5132H83.8437C83.79 42.0073 83.6485 42.4495 83.4194 42.8398C83.1902 43.2301 82.8661 43.5399 82.4472 43.769C82.0282 43.9946 81.5055 44.1074 80.8788 44.1074C80.4205 44.1074 80.0033 44.0215 79.6274 43.8496C79.255 43.6777 78.9345 43.4342 78.6659 43.1191C78.3974 42.8005 78.1897 42.4191 78.0429 41.9751C77.8997 41.5275 77.828 41.0298 77.828 40.4819V39.7031C77.828 39.1553 77.8997 38.6593 78.0429 38.2153C78.1897 37.7677 78.3992 37.3846 78.6713 37.0659C78.947 36.7472 79.2782 36.502 79.665 36.3301C80.0517 36.1582 80.4867 36.0723 80.9701 36.0723C81.561 36.0723 82.0605 36.1833 82.4687 36.4053C82.8769 36.6273 83.1938 36.9352 83.4194 37.3291C83.6485 37.7194 83.79 38.1724 83.8437 38.688H82.8124C82.7623 38.3228 82.6692 38.0094 82.5331 37.748C82.3971 37.4831 82.2037 37.279 81.953 37.1357C81.7024 36.9925 81.3748 36.9209 80.9701 36.9209C80.6228 36.9209 80.3167 36.9871 80.0517 37.1196C79.7903 37.2521 79.5701 37.4401 79.391 37.6836C79.2156 37.9271 79.0831 38.2189 78.9936 38.5591C78.9041 38.8993 78.8593 39.277 78.8593 39.6924V40.4819C78.8593 40.8651 78.8987 41.2249 78.9775 41.5615C79.0598 41.8981 79.1834 42.1935 79.3481 42.4478C79.5128 42.702 79.7223 42.9025 79.9765 43.0493C80.2307 43.1925 80.5315 43.2642 80.8788 43.2642C81.3193 43.2642 81.6702 43.1943 81.9316 43.0547C82.193 42.915 82.3899 42.7145 82.5224 42.4531C82.6585 42.1917 82.7551 41.8784 82.8124 41.5132ZM90.5545 43.1567V44H86.4134V43.1567H90.5545ZM86.6229 36.1797V44H85.5863V36.1797H86.6229ZM90.0067 39.542V40.3853H86.4134V39.542H90.0067ZM90.5008 36.1797V37.0283H86.4134V36.1797H90.5008ZM96.3063 42.2061L100.157 36.1797H101.194V44H100.157V37.9683L96.3063 44H95.2751V36.1797H96.3063V42.2061ZM108.517 39.542V40.3853H104.285V39.542H108.517ZM104.446 36.1797V44H103.409V36.1797H104.446ZM109.42 36.1797V44H108.388V36.1797H109.42ZM113.928 40.4282L111.135 36.1797H112.349L114.428 39.5688H115.899L115.733 40.4282H113.928ZM114.487 40.3477L112.215 44H110.926L113.832 39.4561L114.487 40.3477ZM116.345 36.1797V44H115.319V36.1797H116.345ZM120.492 36.1797L117.688 40.4282H115.937L115.776 39.5688H117.194L119.272 36.1797H120.492ZM119.407 44L117.14 40.3477L117.801 39.4561L120.696 44H119.407ZM126.977 43.1567V44H122.836V43.1567H126.977ZM123.045 36.1797V44H122.009V36.1797H123.045ZM126.429 39.542V40.3853H122.836V39.542H126.429ZM126.923 36.1797V37.0283H122.836V36.1797H126.923ZM133.699 39.542V40.3853H129.466V39.542H133.699ZM129.627 36.1797V44H128.591V36.1797H129.627ZM134.601 36.1797V44H133.57V36.1797H134.601ZM141.741 43.1567V44H137.6V43.1567H141.741ZM137.81 36.1797V44H136.773V36.1797H137.81ZM141.194 39.542V40.3853H137.6V39.542H141.194ZM141.688 36.1797V37.0283H137.6V36.1797H141.688ZM146.239 40.9331H144.15V40.0898H146.239C146.644 40.0898 146.972 40.0254 147.222 39.8965C147.473 39.7676 147.656 39.5885 147.77 39.3594C147.888 39.1302 147.947 38.8688 147.947 38.5752C147.947 38.3066 147.888 38.0542 147.77 37.8179C147.656 37.5815 147.473 37.3918 147.222 37.2485C146.972 37.1017 146.644 37.0283 146.239 37.0283H144.392V44H143.355V36.1797H146.239C146.83 36.1797 147.33 36.2817 147.738 36.4858C148.146 36.6899 148.456 36.9728 148.667 37.3345C148.878 37.6925 148.984 38.1025 148.984 38.5645C148.984 39.0658 148.878 39.4937 148.667 39.8481C148.456 40.2026 148.146 40.473 147.738 40.6592C147.33 40.8418 146.83 40.9331 146.239 40.9331ZM155.733 39.542V40.3853H151.5V39.542H155.733ZM151.661 36.1797V44H150.625V36.1797H151.661ZM156.635 36.1797V44H155.604V36.1797H156.635ZM159.645 39.3647H161.777C162.35 39.3647 162.834 39.4614 163.228 39.6548C163.621 39.8446 163.92 40.1113 164.125 40.4551C164.329 40.7988 164.431 41.2017 164.431 41.6636C164.431 42.0073 164.373 42.3224 164.259 42.6089C164.144 42.8918 163.974 43.1388 163.749 43.3501C163.523 43.5578 163.245 43.7189 162.916 43.8335C162.587 43.9445 162.207 44 161.777 44H158.856V36.1797H159.892V43.1567H161.777C162.161 43.1567 162.47 43.0869 162.707 42.9473C162.946 42.804 163.122 42.6178 163.233 42.3887C163.344 42.1595 163.399 41.9142 163.399 41.6528C163.399 41.3914 163.344 41.1515 163.233 40.9331C163.122 40.7147 162.946 40.541 162.707 40.4121C162.47 40.2796 162.161 40.2134 161.777 40.2134H159.645V39.3647ZM166.413 36.1797V44H165.376V36.1797H166.413ZM173.623 43.1567V44H169.482V43.1567H173.623ZM169.691 36.1797V44H168.655V36.1797H169.691ZM173.075 39.542V40.3853H169.482V39.542H173.075ZM173.569 36.1797V37.0283H169.482V36.1797H173.569ZM183.016 41.5132H184.048C183.994 42.0073 183.853 42.4495 183.623 42.8398C183.394 43.2301 183.07 43.5399 182.651 43.769C182.232 43.9946 181.709 44.1074 181.083 44.1074C180.624 44.1074 180.207 44.0215 179.831 43.8496C179.459 43.6777 179.138 43.4342 178.87 43.1191C178.601 42.8005 178.394 42.4191 178.247 41.9751C178.104 41.5275 178.032 41.0298 178.032 40.4819V39.7031C178.032 39.1553 178.104 38.6593 178.247 38.2153C178.394 37.7677 178.603 37.3846 178.875 37.0659C179.151 36.7472 179.482 36.502 179.869 36.3301C180.256 36.1582 180.691 36.0723 181.174 36.0723C181.765 36.0723 182.264 36.1833 182.673 36.4053C183.081 36.6273 183.398 36.9352 183.623 37.3291C183.853 37.7194 183.994 38.1724 184.048 38.688H183.016C182.966 38.3228 182.873 38.0094 182.737 37.748C182.601 37.4831 182.408 37.279 182.157 37.1357C181.906 36.9925 181.579 36.9209 181.174 36.9209C180.827 36.9209 180.521 36.9871 180.256 37.1196C179.994 37.2521 179.774 37.4401 179.595 37.6836C179.42 37.9271 179.287 38.2189 179.198 38.5591C179.108 38.8993 179.063 39.277 179.063 39.6924V40.4819C179.063 40.8651 179.103 41.2249 179.181 41.5615C179.264 41.8981 179.387 42.1935 179.552 42.4478C179.717 42.702 179.926 42.9025 180.18 43.0493C180.435 43.1925 180.735 43.2642 181.083 43.2642C181.523 43.2642 181.874 43.1943 182.136 43.0547C182.397 42.915 182.594 42.7145 182.726 42.4531C182.862 42.1917 182.959 41.8784 183.016 41.5132ZM190.759 43.1567V44H186.617V43.1567H190.759ZM186.827 36.1797V44H185.79V36.1797H186.827ZM190.211 39.542V40.3853H186.617V39.542H190.211ZM190.705 36.1797V37.0283H186.617V36.1797H190.705ZM195.369 36.1797V44H194.349V36.1797H195.369ZM197.883 36.1797V37.0283H191.84V36.1797H197.883ZM200.453 42.2061L204.304 36.1797H205.34V44H204.304V37.9683L200.453 44H199.421V36.1797H200.453V42.2061Z" fill="#C9CCCF"/>
<defs>
<clipPath id="clip0_1_45802">
<rect width="58" height="45" fill="white" transform="translate(0 8)"/>
</clipPath>
</defs>
</svg>
