<svg width="34" height="21" viewBox="0 0 34 21" fill="none" xmlns="http://www.w3.org/2000/svg">
<path d="M33.825 10.5C33.825 15.9872 29.3634 20.5 23.825 20.5C18.3378 20.5 13.825 15.9872 13.825 10.5C13.825 5.01282 18.2865 0.5 23.7737 0.5C29.3634 0.5 33.825 5.01282 33.825 10.5Z" fill="#F9B50B"/>
<path d="M20.4404 10.5513C20.4404 9.83333 20.3379 9.11539 20.2353 8.44872H14.0814C14.1327 8.08974 14.2353 7.78205 14.3379 7.3718H19.825C19.7225 7.01282 19.5686 6.65385 19.4148 6.29487H14.7481C14.902 5.9359 15.1071 5.62821 15.3122 5.21795H18.8507C18.6455 4.85897 18.3891 4.5 18.0814 4.14103H16.1327C16.4404 3.78205 16.7481 3.47436 17.1584 3.11538C15.4148 1.47436 13.0558 0.5 10.4404 0.5C5.00452 0.653846 0.491699 5.01282 0.491699 10.5C0.491699 15.9872 4.95324 20.5 10.4917 20.5C13.1071 20.5 15.4148 19.4744 17.2096 17.8846C17.5686 17.5769 17.8763 17.2179 18.2353 16.8077H16.184C15.9276 16.5 15.6712 16.141 15.4661 15.7821H18.9532C19.1584 15.4744 19.3635 15.1154 19.5173 14.7051H14.8507C14.6968 14.3974 14.543 14.0385 14.4404 13.6282H19.9276C20.2353 12.7051 20.4404 11.6795 20.4404 10.5513Z" fill="#C8191C"/>
<path d="M14.0302 13.0641L14.184 12.1411C14.1327 12.1411 14.0302 12.1923 13.9276 12.1923C13.5686 12.1923 13.5173 11.9872 13.5686 11.8846L13.8763 10.0385H14.4404L14.5943 9.01285H14.0814L14.184 8.39746H13.1071C13.1071 8.39746 12.4917 11.8846 12.4917 12.2949C12.4917 12.9103 12.8507 13.218 13.3635 13.218C13.6712 13.218 13.9276 13.1154 14.0302 13.0641Z" fill="white"/>
<path d="M14.3892 11.3718C14.3892 12.859 15.4148 13.218 16.2353 13.218C17.0045 13.218 17.3635 13.0641 17.3635 13.0641L17.5686 12.0385C17.5686 12.0385 17.0045 12.2949 16.4404 12.2949C15.261 12.2949 15.4661 11.4231 15.4661 11.4231H17.6199C17.6199 11.4231 17.7738 10.7565 17.7738 10.4488C17.7738 9.7821 17.4148 8.9103 16.2353 8.9103C15.2097 8.85902 14.3892 10.0385 14.3892 11.3718ZM16.2353 9.83338C16.7994 9.83338 16.6969 10.5 16.6969 10.5513H15.5174C15.5686 10.5 15.6712 9.83338 16.2353 9.83338Z" fill="white"/>
<path d="M22.9534 13.064L23.1585 11.8845C23.1585 11.8845 22.6457 12.1409 22.2354 12.1409C21.5175 12.1409 21.1585 11.5768 21.1585 10.9102C21.1585 9.62811 21.7739 8.96144 22.5431 8.96144C23.0559 8.96144 23.5175 9.26914 23.5175 9.26914L23.6713 8.14093C23.6713 8.14093 23.0559 7.88452 22.4405 7.88452C21.2098 7.88452 20.0303 8.96144 20.0303 10.9614C20.0303 12.2948 20.6457 13.1666 21.9277 13.1666C22.3892 13.2179 22.9534 13.064 22.9534 13.064Z" fill="white"/>
<path d="M8.23535 8.85889C7.5174 8.85889 6.9533 9.06402 6.9533 9.06402L6.79945 9.98709C6.79945 9.98709 7.26099 9.78196 7.97894 9.78196C8.33792 9.78196 8.64561 9.83325 8.64561 10.1409C8.64561 10.3461 8.59433 10.3973 8.59433 10.3973H8.13279C7.20971 10.3973 6.23535 10.7563 6.23535 11.9871C6.23535 12.9615 6.85074 13.1666 7.26099 13.1666C7.97894 13.1666 8.33792 12.705 8.3892 12.705L8.33792 13.1153H9.20971L9.61997 10.1922C9.61997 8.91017 8.59433 8.85889 8.23535 8.85889ZM8.44048 11.2179C8.44048 11.3717 8.33792 12.2435 7.72253 12.2435C7.41484 12.2435 7.31227 11.9871 7.31227 11.8332C7.31227 11.5768 7.46612 11.2179 8.28663 11.2179C8.3892 11.2179 8.44048 11.2179 8.44048 11.2179Z" fill="white"/>
<path d="M10.6456 13.1666C10.902 13.1666 12.2353 13.2179 12.2353 11.782C12.2353 10.4486 10.9533 10.7051 10.9533 10.1922C10.9533 9.93582 11.1584 9.83326 11.5174 9.83326C11.6712 9.83326 12.2353 9.88454 12.2353 9.88454L12.3892 8.91018C12.3892 8.91018 12.0302 8.80762 11.3635 8.80762C10.5943 8.80762 9.77378 9.11531 9.77378 10.1922C9.77378 11.423 11.1071 11.3204 11.1071 11.782C11.1071 12.0897 10.7481 12.141 10.4917 12.141C10.0302 12.141 9.51737 11.9871 9.51737 11.9871L9.36353 12.9615C9.46609 13.064 9.77378 13.1666 10.6456 13.1666Z" fill="white"/>
<path d="M31.7737 8.03857L31.5686 9.47447C31.5686 9.47447 31.1583 8.96165 30.5429 8.96165C29.5686 8.96165 28.748 10.1411 28.748 11.5258C28.748 12.3975 29.1583 13.2693 30.0814 13.2693C30.6968 13.2693 31.107 12.8591 31.107 12.8591L31.0557 13.2181H32.1327L32.9019 8.14114L31.7737 8.03857ZM31.2609 10.8078C31.2609 11.3719 31.0045 12.1411 30.3891 12.1411C30.0301 12.1411 29.825 11.8334 29.825 11.2693C29.825 10.3975 30.1839 9.88473 30.6968 9.88473C31.0557 9.93601 31.2609 10.1924 31.2609 10.8078Z" fill="white"/>
<path d="M2.44044 13.1155L3.05582 9.32063L3.15838 13.1155H3.87633L5.26095 9.32063L4.69685 13.1155H5.82505L6.69685 8.03857H4.95326L3.87633 11.1668L3.82505 8.03857H2.28659L1.41479 13.1155H2.44044Z" fill="white"/>
<path d="M18.8506 13.1153C19.1583 11.3717 19.2096 9.93578 19.9788 10.1922C20.0814 9.52553 20.2352 9.21784 20.3378 8.96143H20.1327C19.6711 8.96143 19.2609 9.57681 19.2609 9.57681L19.3634 9.01271H18.3378L17.6711 13.1153H18.8506Z" fill="white"/>
<path d="M25.4148 8.85889C24.6968 8.85889 24.1327 9.06402 24.1327 9.06402L23.9789 9.98709C23.9789 9.98709 24.4404 9.78196 25.1584 9.78196C25.5174 9.78196 25.8251 9.83325 25.8251 10.1409C25.8251 10.3461 25.7738 10.3973 25.7738 10.3973H25.3122C24.3892 10.3973 23.4148 10.7563 23.4148 11.9871C23.4148 12.9615 24.0302 13.1666 24.4404 13.1666C25.1584 13.1666 25.5174 12.705 25.5686 12.705L25.5174 13.1153H26.4917L26.902 10.1922C26.902 8.91017 25.7738 8.85889 25.4148 8.85889ZM25.6712 11.2179C25.6712 11.3717 25.5686 12.2435 24.9533 12.2435C24.6456 12.2435 24.543 11.9871 24.543 11.8332C24.543 11.5768 24.6968 11.2179 25.5174 11.2179C25.6199 11.2179 25.6199 11.2179 25.6712 11.2179Z" fill="white"/>
<path d="M27.7225 13.1153C28.0301 11.3717 28.0814 9.93578 28.8507 10.1922C28.9532 9.52553 29.1071 9.21784 29.2096 8.96143H29.0045C28.543 8.96143 28.1327 9.57681 28.1327 9.57681L28.2353 9.01271H27.2096L26.543 13.1153H27.7225Z" fill="white"/>
</svg>
