<svg width="66" height="21" viewBox="0 0 66 21" fill="none" xmlns="http://www.w3.org/2000/svg">
<path d="M61.5868 0.785645H57.4916C56.2535 0.785645 55.3011 1.1666 54.7297 2.40469L46.9202 20.2142H52.444C52.444 20.2142 53.3964 17.8333 53.5868 17.2618C54.1583 17.2618 59.5868 17.2618 60.3487 17.2618C60.5392 17.9285 61.0154 20.119 61.0154 20.119H65.9678L61.5868 0.785645ZM55.1106 13.2618C55.5868 12.119 57.2059 7.83326 57.2059 7.83326C57.2059 7.9285 57.6821 6.69041 57.8725 6.02374L58.2535 7.73802C58.2535 7.73802 59.3011 12.4047 59.4916 13.3571H55.1106V13.2618Z" fill="#798797"/>
<path d="M47.3011 13.8333C47.3011 17.8333 43.682 20.5 38.063 20.5C35.682 20.5 33.3963 20.0238 32.1582 19.4524L32.9201 15.0714L33.5868 15.3571C35.3011 16.119 36.4439 16.4048 38.5392 16.4048C40.063 16.4048 41.682 15.8333 41.682 14.5C41.682 13.6429 41.0153 13.0714 38.9201 12.119C36.9201 11.1667 34.2534 9.64286 34.2534 6.88095C34.2534 3.07143 37.9677 0.5 43.2058 0.5C45.2058 0.5 46.9201 0.880952 47.9677 1.35714L47.2058 5.54762L46.8249 5.16667C45.8725 4.78571 44.6344 4.40476 42.8249 4.40476C40.8249 4.5 39.8725 5.35714 39.8725 6.11905C39.8725 6.97619 41.0153 7.64286 42.8249 8.5C45.8725 9.92857 47.3011 11.5476 47.3011 13.8333Z" fill="#798797"/>
<path d="M0.824951 0.976167L0.920189 0.595215H9.11067C10.2535 0.595215 11.1107 0.976167 11.3964 2.21426L13.2059 10.7857C11.3964 6.21426 7.2059 2.49998 0.824951 0.976167Z" fill="white"/>
<path d="M24.7297 0.785668L16.4439 20.119H10.8249L6.06299 3.92853C9.49156 6.119 12.3487 9.54757 13.3963 11.9285L13.9678 13.9285L19.1106 0.69043H24.7297V0.785668Z" fill="#798797"/>
<path d="M26.9202 0.69043H32.1583L28.825 20.119H23.5869L26.9202 0.69043Z" fill="#798797"/>
</svg>
