<svg width="24" height="24" viewBox="0 0 24 24" fill="none" xmlns="http://www.w3.org/2000/svg">
<path d="M16 7C16 6.73478 16.1054 6.48043 16.2929 6.29289C16.4804 6.10536 16.7348 6 17 6C17.2652 6 17.5196 6.10536 17.7071 6.29289C17.8946 6.48043 18 6.73478 18 7C18 7.26522 17.8946 7.51957 17.7071 7.70711C17.5196 7.89464 17.2652 8 17 8C16.7348 8 16.4804 7.89464 16.2929 7.70711C16.1054 7.51957 16 7.26522 16 7Z" fill="#CEAAD0"/>
<path fill-rule="evenodd" clip-rule="evenodd" d="M11.75 7C10.4902 7 9.28204 7.50045 8.39124 8.39124C7.50045 9.28204 7 10.4902 7 11.75C7 13.0098 7.50045 14.218 8.39124 15.1088C9.28204 15.9996 10.4902 16.5 11.75 16.5C13.0098 16.5 14.218 15.9996 15.1088 15.1088C15.9996 14.218 16.5 13.0098 16.5 11.75C16.5 10.4902 15.9996 9.28204 15.1088 8.39124C14.218 7.50045 13.0098 7 11.75 7ZM8.5 11.75C8.5 10.888 8.84241 10.0614 9.4519 9.4519C10.0614 8.84241 10.888 8.5 11.75 8.5C12.612 8.5 13.4386 8.84241 14.0481 9.4519C14.6576 10.0614 15 10.888 15 11.75C15 12.612 14.6576 13.4386 14.0481 14.0481C13.4386 14.6576 12.612 15 11.75 15C10.888 15 10.0614 14.6576 9.4519 14.0481C8.84241 13.4386 8.5 12.612 8.5 11.75Z" fill="#CEAAD0"/>
<path fill-rule="evenodd" clip-rule="evenodd" d="M17.2581 2.83255C13.7634 2.44514 10.2367 2.44514 6.74206 2.83255C4.73006 3.05755 3.10506 4.64255 2.86906 6.66455C2.45446 10.2091 2.45446 13.79 2.86906 17.3345C3.10506 19.3565 4.72906 20.9415 6.74206 21.1665C10.2367 21.5536 13.7634 21.5536 17.2581 21.1665C19.2701 20.9415 20.8951 19.3565 21.1311 17.3345C21.5457 13.79 21.5457 10.2091 21.1311 6.66455C20.8951 4.64255 19.2711 3.05755 17.2581 2.83255ZM6.90806 4.32255C10.2924 3.94742 13.7078 3.94742 17.0921 4.32255C18.4221 4.47255 19.4871 5.52155 19.6421 6.83955C20.043 10.2679 20.043 13.7312 19.6421 17.1595C19.5619 17.8046 19.2666 18.4038 18.8039 18.8603C18.3412 19.3168 17.7381 19.604 17.0921 19.6755C13.7078 20.0507 10.2924 20.0507 6.90806 19.6755C6.262 19.604 5.65891 19.3168 5.19621 18.8603C4.73351 18.4038 4.43823 17.8046 4.35806 17.1595C3.9571 13.7312 3.9571 10.2679 4.35806 6.83955C4.43823 6.1945 4.73351 5.59532 5.19621 5.1388C5.65891 4.68227 6.262 4.39405 6.90806 4.32255Z" fill="#CEAAD0"/>
</svg>
